<?xml version="1.0" encoding="UTF-8"?>
<svg version="1.1" xmlns="http://www.w3.org/2000/svg" width="690" height="361">
<path d="M0 0 C1 1 2 2 3 3 C4.175625 3.680625 4.175625 3.680625 5.375 4.375 C12.49938205 8.78533174 17.57926189 16.3779863 21.421875 23.71484375 C23.33627471 26.48693244 24.39128814 26.82849874 27.625 27.5625 C39.902979 30.75298213 48.3660335 36.77281587 56 47 C57.1285944 49.1118195 58.19009589 51.26064631 59.1875 53.4375 C59.95126953 55.07525391 59.95126953 55.07525391 60.73046875 56.74609375 C64.39699347 66.14367864 64.36551086 78.47574052 61 88 C59.7926521 90.58271779 58.45795672 93.07700015 57.0625 95.5625 C56.54042969 96.49328369 56.54042969 96.49328369 56.0078125 97.44287109 C53.38612894 101.87129035 53.38612894 101.87129035 50 103 C49.731875 103.5775 49.46375 104.155 49.1875 104.75 C46.19643317 110.41728452 40.10995566 113.22268664 34.5 115.75 C33.86191406 116.05292969 33.22382813 116.35585937 32.56640625 116.66796875 C24.97356587 120.16160696 17.84616358 120.15631846 9.64550781 120.17700195 C8.50977325 120.18357315 7.3740387 120.19014435 6.20388794 120.19691467 C2.4536329 120.21658976 -1.29658224 120.22829657 -5.046875 120.23828125 C-6.33073341 120.24235678 -7.61459183 120.2464323 -8.93735504 120.25063133 C-15.03169942 120.26932132 -21.12602393 120.28389365 -27.22039104 120.2922433 C-34.23067622 120.30200944 -41.24064514 120.3283236 -48.25081897 120.36874419 C-54.34302092 120.40265414 -60.43509084 120.41439718 -66.5273819 120.41844749 C-69.10926714 120.42330947 -71.69114909 120.43491223 -74.27297211 120.45348549 C-77.89154582 120.47790205 -81.50929836 120.47690686 -85.12792969 120.4699707 C-86.18593781 120.48278076 -87.24394592 120.49559082 -88.33401489 120.50878906 C-99.69990818 120.42970393 -109.35242787 116.02575024 -117.75390625 108.41015625 C-124.96846535 100.7254755 -126.75222306 92.10175286 -126.44921875 81.7578125 C-125.41654204 73.11924736 -121.73871159 64.69304944 -115 59 C-109.33002322 55.10189096 -104.34024904 51.83564856 -97.3125 51.9375 C-96.10013672 51.95103516 -96.10013672 51.95103516 -94.86328125 51.96484375 C-94.24839844 51.97644531 -93.63351563 51.98804688 -93 52 C-92.92523438 51.23558594 -92.85046875 50.47117188 -92.7734375 49.68359375 C-90.73081475 33.04222609 -84.04709598 19.12473808 -71.6875 7.6875 C-70.48329575 6.75838204 -69.2500101 5.86651186 -68 5 C-67.07832031 4.34386719 -66.15664062 3.68773438 -65.20703125 3.01171875 C-45.77500987 -9.9350726 -20.70271248 -11.33829265 0 0 Z " fill="#12ADFC" transform="translate(186,117)"/>
<path d="M0 0 C1.32293188 3.63174292 0.64912098 5.5556426 -0.8125 9.0625 C-2.98286338 14.63485166 -4.13235316 20.0977182 -5 26 C-3.1128125 26.0309375 -3.1128125 26.0309375 -1.1875 26.0625 C5.12901691 26.75321263 10.18057924 29.9864496 15 34 C16.0490136 35.63626045 17.05378527 37.30222043 18 39 C18.51175781 39.48339844 19.02351563 39.96679688 19.55078125 40.46484375 C23.7690073 44.93320719 25.23273773 53.01578472 25.5625 59 C25.33215476 65.14921646 22.62986727 70.53363304 20 76 C19.34 76 18.68 76 18 76 C17.773125 76.556875 17.54625 77.11375 17.3125 77.6875 C14.45801655 82.71682799 9.98357758 86.19673761 5 89 C2.125 89.25 2.125 89.25 0 89 C0 89.66 0 90.32 0 91 C11.04211342 90.91470893 22.08409613 90.81950568 33.12602139 90.71247292 C38.25610727 90.66303926 43.38617761 90.61671645 48.51635742 90.578125 C79.70817726 90.34381948 79.70817726 90.34381948 110.81277466 88.1774292 C113.88790278 87.92797273 116.9165649 87.93546116 120 88 C113.79082764 94.20917236 103.77867392 93.15648868 95.64550781 93.17700195 C94.50977325 93.18357315 93.3740387 93.19014435 92.20388794 93.19691467 C88.4536329 93.21658976 84.70341776 93.22829657 80.953125 93.23828125 C79.66926659 93.24235678 78.38540817 93.2464323 77.06264496 93.25063133 C70.96830058 93.26932132 64.87397607 93.28389365 58.77960896 93.2922433 C51.76932378 93.30200944 44.75935486 93.3283236 37.74918103 93.36874419 C31.65697908 93.40265414 25.56490916 93.41439718 19.4726181 93.41844749 C16.89073286 93.42330947 14.30885091 93.43491223 11.72702789 93.45348549 C8.10845418 93.47790205 4.49070164 93.47690686 0.87207031 93.4699707 C-0.18593781 93.48278076 -1.24394592 93.49559082 -2.33401489 93.50878906 C-13.69990818 93.42970393 -23.35242787 89.02575024 -31.75390625 81.41015625 C-38.96846535 73.7254755 -40.75222306 65.10175286 -40.44921875 54.7578125 C-39.41654204 46.11924736 -35.73871159 37.69304944 -29 32 C-23.33002322 28.10189096 -18.34024904 24.83564856 -11.3125 24.9375 C-10.10013672 24.95103516 -10.10013672 24.95103516 -8.86328125 24.96484375 C-8.24839844 24.97644531 -7.63351563 24.98804688 -7 25 C-6.91363281 24.20078125 -6.82726562 23.4015625 -6.73828125 22.578125 C-5.68851064 14.37257858 -3.52689711 7.47109883 0 0 Z " fill="#62C8FC" transform="translate(100,144)"/>
<path d="M0 0 C8.93911571 -0.7327144 15.54671723 1.90206416 22.875 7 C28.89136592 12.66246205 33.71707006 17.86321974 37.1875 25.4375 C37.69667969 26.52933594 38.20585937 27.62117188 38.73046875 28.74609375 C42.39699347 38.14367864 42.36551086 50.47574052 39 60 C37.7926521 62.58271779 36.45795672 65.07700015 35.0625 67.5625 C34.71445313 68.18302246 34.36640625 68.80354492 34.0078125 69.44287109 C31.38612894 73.87129035 31.38612894 73.87129035 28 75 C27.731875 75.5775 27.46375 76.155 27.1875 76.75 C24.276245 82.2660621 18.72987512 85.09856505 13 87 C10.17986644 87.57430042 7.36468098 87.86778393 4.5 88.125 C3.79875 88.19847656 3.0975 88.27195312 2.375 88.34765625 C-0.08158794 88.59418004 -2.53903062 88.80171456 -5 89 C-6.10867432 89.09047607 -7.21734863 89.18095215 -8.35961914 89.27416992 C-17.7384448 89.97404541 -27.03834796 90.12150214 -36.4375 90.0625 C-37.8626286 90.05746421 -39.28775896 90.05290506 -40.71289062 90.04882812 C-44.14196493 90.03801182 -47.57097032 90.02086761 -51 90 C-51 89.34 -51 88.68 -51 88 C-48.5272848 86.7636424 -46.43861089 86.68837157 -43.6875 86.375 C-34.60139548 84.92823788 -26.31415119 80.71547436 -20 74 C-18.84485391 72.98671395 -17.67868322 71.98580778 -16.5 71 C-12.13975006 67.27193982 -8.76730089 63.94723899 -6.02734375 58.87890625 C-5 57 -5 57 -3.54296875 54.75 C-1.68790952 51.44376785 -0.52029188 48.03244396 0.625 44.4375 C0.8415625 43.77814453 1.058125 43.11878906 1.28125 42.43945312 C3.31389944 36.19721178 4.19424871 30.95297162 4.1875 24.375 C4.18669434 23.56973877 4.18588867 22.76447754 4.18505859 21.93481445 C4.10605046 14.24701297 3.28724577 7.04409807 0 0 Z " fill="#138DED" transform="translate(208,145)"/>
<path d="M0 0 C8.88409704 -0.77628032 8.88409704 -0.77628032 12.875 2 C19 10.64705882 19 10.64705882 19 16 C19.66 16 20.32 16 21 16 C24.465 22.93 24.465 22.93 28 30 C32.55774445 23.80146755 36.30662121 17.70466517 39.65234375 10.78125 C44.197405 1.4012975 44.197405 1.4012975 47 0 C48.66444461 -0.0955931 50.33281963 -0.12984645 52 -0.125 C52.886875 -0.12757813 53.77375 -0.13015625 54.6875 -0.1328125 C57 0 57 0 59 1 C59 20.14 59 39.28 59 59 C54.38 59 49.76 59 45 59 C44.505 46.13 44.505 46.13 44 33 C39.67358835 40.17140488 39.67358835 40.17140488 35.75 47.5625 C34 51 34 51 32 52 C26.88 52.93866667 26.88 52.93866667 24 52 C20.69868095 48.22706394 18 44.08846307 18 39 C17.34 39 16.68 39 16 39 C15.01 36.69 14.02 34.38 13 32 C12.67 40.91 12.34 49.82 12 59 C7.71 59 3.42 59 -1 59 C-1.19281758 51.72285131 -1.3714527 44.44554235 -1.53710938 37.16772461 C-1.59541006 34.69334645 -1.65754556 32.21905548 -1.72363281 29.74487305 C-1.81810237 26.18294149 -1.89865339 22.62092134 -1.9765625 19.05859375 C-2.00875885 17.95728622 -2.0409552 16.8559787 -2.0741272 15.72129822 C-2.1842319 10.04161606 -1.95237766 5.35404591 0 0 Z " fill="#1E88F8" transform="translate(583,160)"/>
<path d="M0 0 C1.1034375 -0.01611328 2.206875 -0.03222656 3.34375 -0.04882812 C11.63694569 -0.05375283 18.18484989 0.98907215 25.25 5.4375 C29.10681138 9.66162675 30.84153654 13.92711297 30.8984375 19.68359375 C30.6927499 21.94234832 30.34372813 24.09441154 29.875 26.3125 C29.648125 27.405625 29.42125 28.49875 29.1875 29.625 C27.46443311 33.15318458 25.24175105 34.40955376 21.875 36.3125 C22.27978587 40.76514453 24.11180054 43.27755903 26.81640625 46.6640625 C27.875 48.3125 27.875 48.3125 27.875 51.3125 C28.535 51.3125 29.195 51.3125 29.875 51.3125 C31.13164978 54.21850261 31.875 56.10854584 31.875 59.3125 C18.40451292 60.53246864 18.40451292 60.53246864 14.90625 57.7421875 C13.66337214 55.64682291 12.75558742 53.58154851 11.875 51.3125 C10.02894607 48.4891234 8.19575627 45.72490091 6.125 43.0625 C4.875 41.3125 4.875 41.3125 4.875 39.3125 C3.225 39.3125 1.575 39.3125 -0.125 39.3125 C-0.11976318 39.88282959 -0.11452637 40.45315918 -0.10913086 41.04077148 C-0.08841779 43.61050323 -0.0753581 46.18021747 -0.0625 48.75 C-0.05412109 49.64783203 -0.04574219 50.54566406 -0.03710938 51.47070312 C-0.03388672 52.32470703 -0.03066406 53.17871094 -0.02734375 54.05859375 C-0.02210693 54.84935303 -0.01687012 55.6401123 -0.01147461 56.45483398 C-0.125 58.3125 -0.125 58.3125 -1.125 59.3125 C-3.28980797 59.4114294 -5.45793785 59.442211 -7.625 59.4375 C-8.8109375 59.44007813 -9.996875 59.44265625 -11.21875 59.4453125 C-14.125 59.3125 -14.125 59.3125 -15.125 58.3125 C-15.23433299 56.5743027 -15.27407948 54.83167862 -15.28613281 53.09008789 C-15.29574036 51.9754567 -15.3053479 50.8608255 -15.31524658 49.7124176 C-15.3216214 47.89217323 -15.3216214 47.89217323 -15.328125 46.03515625 C-15.33382507 44.79833603 -15.33952515 43.56151581 -15.34539795 42.28721619 C-15.35486479 39.6652004 -15.36138858 37.04317263 -15.36523438 34.42114258 C-15.36963245 31.72536782 -15.38357047 29.02991073 -15.40625 26.33422852 C-15.43657625 22.46360455 -15.4472673 18.59338548 -15.453125 14.72265625 C-15.4654718 13.51118423 -15.4778186 12.29971222 -15.49053955 11.05152893 C-15.48753845 9.93374557 -15.48453735 8.81596222 -15.48144531 7.66430664 C-15.48509094 6.67693008 -15.48873657 5.68955353 -15.49249268 4.67225647 C-15.37122009 3.89353683 -15.24994751 3.1148172 -15.125 2.3125 C-10.42525449 -0.82066368 -5.52710159 -0.01580979 0 0 Z M-0.125 14.3125 C-0.125 18.2725 -0.125 22.2325 -0.125 26.3125 C7.36951971 26.94384039 7.36951971 26.94384039 14.0625 24.3125 C14.660625 23.6525 15.25875 22.9925 15.875 22.3125 C15.60843428 19.37806598 15.60843428 19.37806598 14.875 16.3125 C10.12868713 13.14829142 5.50743123 14.19137245 -0.125 14.3125 Z " fill="#1388FC" transform="translate(544.125,159.6875)"/>
<path d="M0 0 C0.76183594 -0.01417969 1.52367187 -0.02835938 2.30859375 -0.04296875 C4.79597315 0.21137334 6.41058106 0.94732804 8.5625 2.1875 C8.5625 2.8475 8.5625 3.5075 8.5625 4.1875 C9.2225 4.1875 9.8825 4.1875 10.5625 4.1875 C10.68367188 4.89777344 10.80484375 5.60804688 10.9296875 6.33984375 C11.18105469 7.71849609 11.18105469 7.71849609 11.4375 9.125 C11.68113281 10.49978516 11.68113281 10.49978516 11.9296875 11.90234375 C12.13851562 12.65644531 12.34734375 13.41054687 12.5625 14.1875 C13.2225 14.5175 13.8825 14.8475 14.5625 15.1875 C15.25893985 17.17732813 15.917376 19.18044757 16.5625 21.1875 C17.23611297 22.71453498 17.92446579 24.23512638 18.625 25.75 C20.07122853 28.91894192 20.87966347 31.77331734 21.5625 35.1875 C22.54278616 36.53539347 23.54221135 37.86962715 24.5625 39.1875 C24.90054979 40.51964535 25.23309958 41.8531896 25.5625 43.1875 C26.6149277 45.65948135 27.70856298 48.10883856 28.8203125 50.5546875 C29.5625 53.1875 29.5625 53.1875 28.5625 59.1875 C23.9425 59.1875 19.3225 59.1875 14.5625 59.1875 C14.5625 58.5275 14.5625 57.8675 14.5625 57.1875 C13.9025 57.1875 13.2425 57.1875 12.5625 57.1875 C11.9025 54.5475 11.2425 51.9075 10.5625 49.1875 C3.9625 49.1875 -2.6375 49.1875 -9.4375 49.1875 C-10.0975 51.1675 -10.7575 53.1475 -11.4375 55.1875 C-12.4375 58.1875 -12.4375 58.1875 -14.4375 59.1875 C-16.40873511 59.49382143 -18.39036711 59.73542829 -20.375 59.9375 C-21.43589844 60.05609375 -22.49679687 60.1746875 -23.58984375 60.296875 C-26.4375 60.1875 -26.4375 60.1875 -28.31640625 58.953125 C-29.4375 57.1875 -29.4375 57.1875 -29.4375 53.1875 C-27.4375 51.1875 -27.4375 51.1875 -25.4375 50.1875 C-25.19974374 48.55717134 -24.96926226 46.9254203 -24.77734375 45.2890625 C-24.00664047 40.52310432 -22.46742255 35.86112415 -19.9375 31.75 C-18.03510379 28.50007315 -17.20730464 25.19709771 -16.1796875 21.58984375 C-15.25230517 18.58805358 -13.8866274 15.97428347 -12.4375 13.1875 C-11.17851768 10.03181556 -9.93605305 6.87122957 -8.71875 3.69921875 C-6.74044065 -0.17899135 -3.99785957 0.03370877 0 0 Z M0.5625 22.1875 C-2.16921252 24.91921252 -2.20908677 27.47537261 -2.875 31.19140625 C-3.060625 31.85011719 -3.24625 32.50882813 -3.4375 33.1875 C-4.4275 33.6825 -4.4275 33.6825 -5.4375 34.1875 C-2.48085481 35.6658226 0.30479737 35.24782783 3.5625 35.1875 C4.74664294 31.63507118 4.25785532 30.48919438 3.125 27 C2.83753906 26.09894531 2.55007813 25.19789063 2.25390625 24.26953125 C2.02574219 23.58246094 1.79757812 22.89539063 1.5625 22.1875 C1.2325 22.1875 0.9025 22.1875 0.5625 22.1875 Z " fill="#3E4B59" transform="translate(440.4375,159.8125)"/>
<path d="M0 0 C0.96808594 -0.01417969 1.93617188 -0.02835938 2.93359375 -0.04296875 C5.5625 0.1875 5.5625 0.1875 8.5625 2.1875 C8.5625 2.8475 8.5625 3.5075 8.5625 4.1875 C9.2225 4.1875 9.8825 4.1875 10.5625 4.1875 C10.68496094 4.74308594 10.80742187 5.29867187 10.93359375 5.87109375 C11.8727062 9.33006073 13.32943527 12.55053187 14.72265625 15.84765625 C15.5625 18.1875 15.5625 18.1875 15.5625 21.1875 C16.2225 21.8475 16.8825 22.5075 17.5625 23.1875 C17.2325 23.8475 16.9025 24.5075 16.5625 25.1875 C17.2225 25.1875 17.8825 25.1875 18.5625 25.1875 C19.05169922 26.47333984 19.05169922 26.47333984 19.55078125 27.78515625 C22.24455504 34.91198806 22.24455504 34.91198806 25.1875 41.9375 C30.35197368 54.1444378 30.35197368 54.1444378 28.5625 59.1875 C23.50460198 60.32552706 19.5818803 60.33948892 14.5625 59.1875 C11.70773399 55.87228786 11.44452171 53.59760854 10.5625 49.1875 C3.9625 49.1875 -2.6375 49.1875 -9.4375 49.1875 C-9.4375 49.8475 -9.4375 50.5075 -9.4375 51.1875 C-10.0975 51.1875 -10.7575 51.1875 -11.4375 51.1875 C-11.6540625 52.610625 -11.6540625 52.610625 -11.875 54.0625 C-12.4375 57.1875 -12.4375 57.1875 -13.4375 59.1875 C-15.80078125 59.63671875 -15.80078125 59.63671875 -18.75 59.875 C-19.71550781 59.96136719 -20.68101562 60.04773438 -21.67578125 60.13671875 C-24.18570274 60.18287006 -26.06078843 59.93833762 -28.4375 59.1875 C-27.94091703 53.52645411 -26.89239316 49.31075529 -24.4375 44.1875 C-23.7775 44.1875 -23.1175 44.1875 -22.4375 44.1875 C-22.64890625 43.62289062 -22.8603125 43.05828125 -23.078125 42.4765625 C-23.55560116 39.43524696 -22.69225096 38.21743417 -21.1875 35.5625 C-18.95604026 31.36931741 -17.51426239 27.3934325 -16.25 22.83203125 C-14.703697 17.79911235 -12.51982336 13.01686233 -10.4375 8.1875 C-9.98310547 7.05828125 -9.98310547 7.05828125 -9.51953125 5.90625 C-7.28215593 0.36391927 -5.82343613 0.03866823 0 0 Z M-0.4375 23.1875 C-1.54586423 25.07066159 -1.54586423 25.07066159 -2.4375 27.1875 C-2.1075 27.8475 -1.7775 28.5075 -1.4375 29.1875 C-2.0975 29.1875 -2.7575 29.1875 -3.4375 29.1875 C-3.7675 31.1675 -4.0975 33.1475 -4.4375 35.1875 C-1.4675 35.1875 1.5025 35.1875 4.5625 35.1875 C4.85412929 30.22980204 4.69190055 27.15943147 1.5625 23.1875 C0.9025 23.1875 0.2425 23.1875 -0.4375 23.1875 Z " fill="#3D4958" transform="translate(340.4375,159.8125)"/>
<path d="M0 0 C2.71988913 2.02333216 4.51780214 3.53973952 5.5078125 6.84375 C5.796875 9.0546875 5.796875 9.0546875 5.859375 12.6796875 C4.61760805 13.38194891 3.36551901 14.06597859 2.109375 14.7421875 C1.41328125 15.12503906 0.7171875 15.50789063 0 15.90234375 C-2.56766267 16.8347614 -3.63361447 16.70411275 -6.140625 15.6796875 C-7.0275 14.8546875 -7.914375 14.0296875 -8.828125 13.1796875 C-12.58479639 9.92453647 -16.26015812 9.42369008 -21.140625 9.6796875 C-25.03534049 10.27728935 -27.96054886 11.26027198 -30.52734375 14.34765625 C-33.32112954 19.25883759 -34.08732259 24.1250843 -33.140625 29.6796875 C-31.82898164 33.97568795 -30.48089498 36.91381894 -26.515625 39.1796875 C-20.84852015 40.01925859 -15.48745185 40.70642425 -10.140625 38.3671875 C-7.92326647 36.65505353 -7.92326647 36.65505353 -6.140625 33.6796875 C-1.57608249 34.22308542 1.8321926 35.47432571 5.859375 37.6796875 C6.03597333 40.97618964 6.07605303 42.6761727 4.859375 45.6796875 C-2.86295643 53.07971795 -9.97095184 56.07330132 -20.54736328 55.97290039 C-29.60015861 55.74188278 -35.61740597 51.83629151 -42.140625 45.6796875 C-43.84091488 43.39193792 -44.91125504 41.28595181 -46.140625 38.6796875 C-46.48738281 38.07898438 -46.83414062 37.47828125 -47.19140625 36.859375 C-50.31308217 29.69108214 -49.90930499 19.92508886 -47.140625 12.6796875 C-43.40567328 4.80286324 -38.00548124 -0.38168101 -29.953125 -3.6953125 C-19.16593227 -7.21223287 -9.58507378 -5.91196156 0 0 Z " fill="#1C6CF6" transform="translate(517.140625,164.3203125)"/>
<path d="M0 0 C1.14662109 -0.03867188 1.14662109 -0.03867188 2.31640625 -0.078125 C4.93473244 0.32691994 5.78268701 1.24096187 7.4375 3.25 C7.1075 3.91 6.7775 4.57 6.4375 5.25 C7.0975 5.25 7.7575 5.25 8.4375 5.25 C8.91858275 6.66601714 9.39728141 8.08284437 9.875 9.5 C10.14183594 10.28890625 10.40867187 11.0778125 10.68359375 11.890625 C11.4375 14.25 11.4375 14.25 11.91015625 16.484375 C12.08417969 17.06703125 12.25820313 17.6496875 12.4375 18.25 C13.0975 18.58 13.7575 18.91 14.4375 19.25 C14.82794206 20.56774196 15.14705086 21.90667272 15.4375 23.25 C16.32712855 26.09681136 17.19735989 28.78306089 18.5625 31.4375 C19.4375 33.25 19.4375 33.25 19.4375 36.25 C20.0975 36.25 20.7575 36.25 21.4375 36.25 C21.705625 35.115625 21.97375 33.98125 22.25 32.8125 C23.39828681 28.20294865 24.88847898 23.73773519 26.4375 19.25 C26.9325 17.765 26.9325 17.765 27.4375 16.25 C28.0975 16.25 28.7575 16.25 29.4375 16.25 C29.540625 15.239375 29.64375 14.22875 29.75 13.1875 C30.48794864 8.96106689 31.49778449 6.05482658 33.4375 2.25 C36.70877586 0.06914943 37.71126723 0.00112141 41.5 0.0625 C42.81677734 0.07216797 42.81677734 0.07216797 44.16015625 0.08203125 C46.4375 0.25 46.4375 0.25 48.4375 1.25 C48.02950675 9.27386726 45.52713187 15.87364642 42.4375 23.25 C41.7775 23.25 41.1175 23.25 40.4375 23.25 C40.9325 24.735 40.9325 24.735 41.4375 26.25 C40.51546291 28.61522558 39.52051035 30.95401807 38.4375 33.25 C37.7775 33.25 37.1175 33.25 36.4375 33.25 C36.64375 33.8275 36.85 34.405 37.0625 35 C37.52411261 37.76967567 36.86694945 38.89561267 35.4375 41.25 C34.7775 41.25 34.1175 41.25 33.4375 41.25 C33.4375 43.23 33.4375 45.21 33.4375 47.25 C32.7775 47.25 32.1175 47.25 31.4375 47.25 C31.9325 49.23 31.9325 49.23 32.4375 51.25 C31.7775 51.25 31.1175 51.25 30.4375 51.25 C30.31375 52.19875 30.19 53.1475 30.0625 54.125 C29.4375 57.25 29.4375 57.25 27.4375 59.25 C24.85685871 59.39497985 22.38806116 59.43677545 19.8125 59.375 C19.10609375 59.36597656 18.3996875 59.35695312 17.671875 59.34765625 C15.92693902 59.32407603 14.18217705 59.28820461 12.4375 59.25 C9.4375 52.75 9.4375 52.75 9.4375 48.25 C8.7775 47.92 8.1175 47.59 7.4375 47.25 C6.4375 45.25 6.4375 45.25 6.0625 43.5625 C5.37694517 41.02594713 4.37694151 38.70016403 3.32421875 36.296875 C0.64863064 30.12062756 -1.71663246 23.88868874 -3.76953125 17.48046875 C-4.62505528 15.07404402 -5.6618997 12.80982696 -6.75 10.5 C-8.23579284 7.27419122 -9.02882252 4.86399955 -8.5625 1.25 C-5.66691295 0.43211209 -3.00785913 0.06107328 0 0 Z " fill="#404C5B" transform="translate(370.5625,159.75)"/>
<path d="M0 0 C0.41218567 1.80807495 0.41218567 1.80807495 0.46411133 4.01904297 C0.49036087 4.84685272 0.51661041 5.67466248 0.5436554 6.52755737 C0.55631943 7.42338531 0.56898346 8.31921326 0.58203125 9.2421875 C0.6047258 10.1621048 0.62742035 11.08202209 0.65080261 12.02981567 C0.69544446 13.97822347 0.7327841 15.92681006 0.76342773 17.87548828 C0.81219793 20.85653611 0.88769136 23.83602602 0.96679688 26.81640625 C1.0068085 28.70830017 1.04527099 30.60022761 1.08203125 32.4921875 C1.10481644 33.38396698 1.12760162 34.27574646 1.15107727 35.19454956 C1.16156601 36.02866364 1.17205475 36.86277771 1.18286133 37.72216797 C1.19601883 38.4533786 1.20917633 39.18458923 1.22273254 39.93795776 C0.96308885 42.34172087 0.15454752 43.89083009 -1 46 C-1.33 46.99 -1.66 47.98 -2 49 C-6.43495052 54.08714912 -10.52662102 57.59063748 -17.28125 58.38671875 C-24.56772008 58.61247477 -29.97491152 58.25300363 -36 54 C-36.69921875 51.859375 -36.69921875 51.859375 -37 50 C-37.66 50 -38.32 50 -39 50 C-41.19790854 45.42102388 -42.49432386 42.19040052 -42 37 C-41 36 -41 36 -38.05859375 35.90234375 C-36.86363281 35.91394531 -35.66867187 35.92554688 -34.4375 35.9375 C-32.64119141 35.95103516 -32.64119141 35.95103516 -30.80859375 35.96484375 C-29.88175781 35.97644531 -28.95492188 35.98804688 -28 36 C-27.34 37.98 -26.68 39.96 -26 42 C-21.97959015 42.69584017 -18.91736581 43.1700097 -15 42 C-15.00785522 40.15269287 -15.00785522 40.15269287 -15.01586914 38.26806641 C-15.03393553 33.70964278 -15.04543804 29.15122233 -15.05493164 24.59277344 C-15.0599681 22.61783313 -15.06679751 20.64289657 -15.07543945 18.66796875 C-15.08753508 15.83332395 -15.0932351 12.99872834 -15.09765625 10.1640625 C-15.10281754 9.27756012 -15.10797882 8.39105774 -15.11329651 7.47769165 C-15.11387171 1.22774341 -15.11387171 1.22774341 -14 -1 C-8.92336435 -2.45046733 -4.46781326 -2.97854217 0 0 Z " fill="#404C5B" transform="translate(311,162)"/>
<path d="M0 0 C1.1034375 -0.01611328 2.206875 -0.03222656 3.34375 -0.04882812 C11.63694569 -0.05375283 18.18484989 0.98907215 25.25 5.4375 C29.10681138 9.66162675 30.84153654 13.92711297 30.8984375 19.68359375 C30.49506999 24.11316655 29.47592806 28.15008705 27.875 32.3125 C27.215 32.3125 26.555 32.3125 25.875 32.3125 C26.205 29.6725 26.535 27.0325 26.875 24.3125 C25.885 24.8075 25.885 24.8075 24.875 25.3125 C24.875 23.6625 24.875 22.0125 24.875 20.3125 C22.89008358 20.57926204 22.89008358 20.57926204 20.875 21.3125 C20.38 22.7975 20.38 22.7975 19.875 24.3125 C18.885 24.6425 17.895 24.9725 16.875 25.3125 C16.215 26.3025 15.555 27.2925 14.875 28.3125 C12.05146451 28.36920949 9.54004405 28.27152174 6.75 28 C4.15125 27.773125 1.5525 27.54625 -1.125 27.3125 C-1.125 22.0325 -1.125 16.7525 -1.125 11.3125 C2.505 11.3125 6.135 11.3125 9.875 11.3125 C9.545 10.3225 9.215 9.3325 8.875 8.3125 C9.865 8.3125 10.855 8.3125 11.875 8.3125 C11.215 6.9925 10.555 5.6725 9.875 4.3125 C8.885 4.3125 7.895 4.3125 6.875 4.3125 C2.20833333 4.3125 -2.45833333 4.3125 -7.125 4.3125 C-7.455 4.9725 -7.785 5.6325 -8.125 6.3125 C-9.115 6.3125 -10.105 6.3125 -11.125 6.3125 C-12.25237623 23.30683518 -13.35618335 40.29737358 -14.125 57.3125 C-10.165 57.6425 -6.205 57.9725 -2.125 58.3125 C-2.3725 56.146875 -2.3725 56.146875 -2.625 53.9375 C-4.00712589 40.07675178 -4.00712589 40.07675178 -2.125 36.3125 C-0.68638706 36.39996284 0.75097508 36.50815348 2.1875 36.625 C3.38826172 36.71201172 3.38826172 36.71201172 4.61328125 36.80078125 C7.26242483 37.4001557 8.07973841 38.34876811 9.875 40.3125 C10.535 40.3125 11.195 40.3125 11.875 40.3125 C12.875 43.3125 12.875 43.3125 12.875 46.3125 C13.390625 47.446875 13.90625 48.58125 14.4375 49.75 C15.89249065 53.35584639 16.00876498 53.89618829 14.875 57.3125 C14.29492188 56.20841797 14.29492188 56.20841797 13.703125 55.08203125 C11.06345505 50.13591701 8.49034162 45.62309962 4.875 41.3125 C4.875 40.6525 4.875 39.9925 4.875 39.3125 C3.225 39.3125 1.575 39.3125 -0.125 39.3125 C-0.11976318 39.88282959 -0.11452637 40.45315918 -0.10913086 41.04077148 C-0.08841779 43.61050323 -0.0753581 46.18021747 -0.0625 48.75 C-0.05412109 49.64783203 -0.04574219 50.54566406 -0.03710938 51.47070312 C-0.03388672 52.32470703 -0.03066406 53.17871094 -0.02734375 54.05859375 C-0.02210693 54.84935303 -0.01687012 55.6401123 -0.01147461 56.45483398 C-0.125 58.3125 -0.125 58.3125 -1.125 59.3125 C-3.28980797 59.4114294 -5.45793785 59.442211 -7.625 59.4375 C-8.8109375 59.44007813 -9.996875 59.44265625 -11.21875 59.4453125 C-14.125 59.3125 -14.125 59.3125 -15.125 58.3125 C-15.23433299 56.5743027 -15.27407948 54.83167862 -15.28613281 53.09008789 C-15.29574036 51.9754567 -15.3053479 50.8608255 -15.31524658 49.7124176 C-15.3216214 47.89217323 -15.3216214 47.89217323 -15.328125 46.03515625 C-15.33382507 44.79833603 -15.33952515 43.56151581 -15.34539795 42.28721619 C-15.35486479 39.6652004 -15.36138858 37.04317263 -15.36523438 34.42114258 C-15.36963245 31.72536782 -15.38357047 29.02991073 -15.40625 26.33422852 C-15.43657625 22.46360455 -15.4472673 18.59338548 -15.453125 14.72265625 C-15.4654718 13.51118423 -15.4778186 12.29971222 -15.49053955 11.05152893 C-15.48753845 9.93374557 -15.48453735 8.81596222 -15.48144531 7.66430664 C-15.48509094 6.67693008 -15.48873657 5.68955353 -15.49249268 4.67225647 C-15.37122009 3.89353683 -15.24994751 3.1148172 -15.125 2.3125 C-10.42525449 -0.82066368 -5.52710159 -0.01580979 0 0 Z M11.875 4.3125 C12.875 6.3125 12.875 6.3125 12.875 6.3125 Z M-0.125 14.3125 C-0.125 18.2725 -0.125 22.2325 -0.125 26.3125 C7.36951971 26.94384039 7.36951971 26.94384039 14.0625 24.3125 C14.660625 23.6525 15.25875 22.9925 15.875 22.3125 C15.60843428 19.37806598 15.60843428 19.37806598 14.875 16.3125 C10.12868713 13.14829142 5.50743123 14.19137245 -0.125 14.3125 Z " fill="#2FA6F5" transform="translate(544.125,159.6875)"/>
<path d="M0 0 C2.71988913 2.02333216 4.51780214 3.53973952 5.5078125 6.84375 C5.796875 9.0546875 5.796875 9.0546875 5.859375 12.6796875 C4.61760805 13.38194891 3.36551901 14.06597859 2.109375 14.7421875 C1.41328125 15.12503906 0.7171875 15.50789063 0 15.90234375 C-2.56766267 16.8347614 -3.63361447 16.70411275 -6.140625 15.6796875 C-7.0275 14.8546875 -7.914375 14.0296875 -8.828125 13.1796875 C-12.58479639 9.92453647 -16.26015812 9.42369008 -21.140625 9.6796875 C-25.03534049 10.27728935 -27.96054886 11.26027198 -30.52734375 14.34765625 C-33.32112954 19.25883759 -34.08732259 24.1250843 -33.140625 29.6796875 C-31.83343303 33.9611084 -30.51549235 36.92678395 -26.515625 39.1171875 C-22.07069884 39.85800853 -17.63330293 40.34229271 -13.140625 40.6796875 C-13.140625 41.0096875 -13.140625 41.3396875 -13.140625 41.6796875 C-25.3580163 42.07099185 -25.3580163 42.07099185 -30.140625 39.6796875 C-30.635625 38.1946875 -30.635625 38.1946875 -31.140625 36.6796875 C-32.460625 36.6796875 -33.780625 36.6796875 -35.140625 36.6796875 C-35.140625 38.3296875 -35.140625 39.9796875 -35.140625 41.6796875 C-36.203125 39.8046875 -36.203125 39.8046875 -37.140625 37.6796875 C-36.810625 37.0196875 -36.480625 36.3596875 -36.140625 35.6796875 C-35.9079237 32.38493256 -35.74695552 29.09707597 -35.62304688 25.796875 C-35.40813291 21.43371611 -34.7407623 17.79987908 -33.140625 13.6796875 C-32.480625 13.6796875 -31.820625 13.6796875 -31.140625 13.6796875 C-31.0375 13.1640625 -30.934375 12.6484375 -30.828125 12.1171875 C-29.89798634 8.81942315 -28.52666988 5.81335418 -27.140625 2.6796875 C-27.800625 2.3496875 -28.460625 2.0196875 -29.140625 1.6796875 C-28.810625 1.0196875 -28.480625 0.3596875 -28.140625 -0.3203125 C-29.790625 -0.6503125 -31.440625 -0.9803125 -33.140625 -1.3203125 C-24.66244558 -9.79849192 -8.87805782 -5.47588238 0 0 Z " fill="#1AA1F9" transform="translate(517.140625,164.3203125)"/>
<path d="M0 0 C0.66 0.66 1.32 1.32 2 2 C2.66 1.67 3.32 1.34 4 1 C4 2.65 4 4.3 4 6 C4.66 5.34 5.32 4.68 6 4 C5.40145892 8.18978754 4.60640991 12.07322022 3 16 C2.01 16.66 1.02 17.32 0 18 C0.40478587 22.45264453 2.23680054 24.96505903 4.94140625 28.3515625 C6 30 6 30 6 33 C6.66 33 7.32 33 8 33 C9.25664978 35.90600261 10 37.79604584 10 41 C5.05 41 0.1 41 -5 41 C-6.02503387 37.92489838 -7.04673786 34.84810196 -8 31.75 C-8.8162462 28.90183016 -8.8162462 28.90183016 -11 27 C-10.625 24.375 -10.625 24.375 -10 22 C-10.99 22.33 -11.98 22.66 -13 23 C-13.66 21.68 -14.32 20.36 -15 19 C-16.32 19 -17.64 19 -19 19 C-18.67 17.68 -18.34 16.36 -18 15 C-18.66 15 -19.32 15 -20 15 C-20 14.34 -20 13.68 -20 13 C-19.34 13 -18.68 13 -18 13 C-18 12.34 -18 11.68 -18 11 C-17.27554688 10.93683594 -16.55109375 10.87367188 -15.8046875 10.80859375 C-10.56816433 10.14530082 -6.89693868 9.65208948 -3.375 5.5 C-2.05507783 3.69941253 -0.99830739 1.99661478 0 0 Z " fill="#147FF9" transform="translate(566,178)"/>
<path d="M0 0 C0 5.46088946 -1.32820751 10.22894198 -4 15 C-4.66 15 -5.32 15 -6 15 C-6.9001836 19.79593617 -7.29439762 24.51399614 -7.5625 29.375 C-7.60568359 30.11105469 -7.64886719 30.84710938 -7.69335938 31.60546875 C-7.79843799 33.40348068 -7.89962093 35.20171958 -8 37 C-10.475 37.495 -10.475 37.495 -13 38 C-12.67 38.66 -12.34 39.32 -12 40 C-13.98 42.475 -13.98 42.475 -16 45 C-21.22783455 36.44536164 -23.24785897 28.32920801 -21.375 18.1875 C-19.46036176 11.26437099 -15.46387058 5.57765884 -9.9140625 1.0546875 C-6.56202927 -0.79235122 -3.74229841 -0.39392615 0 0 Z " fill="#158CFA" transform="translate(490,163)"/>
<path d="M0 0 C0 1.32 0 2.64 0 4 C0.99 4 1.98 4 3 4 C3 5.32 3 6.64 3 8 C3.763125 7.67 4.52625 7.34 5.3125 7 C8 6 8 6 11 6 C11.33 6.66 11.66 7.32 12 8 C12.99 8.33 13.98 8.66 15 9 C14.67 9.99 14.34 10.98 14 12 C13.34 12 12.68 12 12 12 C12.04640625 12.67546875 12.0928125 13.3509375 12.140625 14.046875 C12.43184885 21.24426451 12.43184885 21.24426451 10.5 24.625 C7.68839989 26.17138006 5.27315093 26.92865191 2.03515625 26.77734375 C-1.71668575 25.34429853 -3.09474038 22.09873654 -4.87109375 18.671875 C-6.78507881 14.1418896 -7.57212766 10.79266667 -6.0625 6.0625 C-5.711875 5.381875 -5.36125 4.70125 -5 4 C-5.66 4 -6.32 4 -7 4 C-7.33 2.68 -7.66 1.36 -8 0 C-4.71023192 -1.09658936 -3.28696233 -0.79953138 0 0 Z " fill="#1B76F8" transform="translate(607,186)"/>
<path d="M0 0 C1.14662109 -0.03867188 1.14662109 -0.03867188 2.31640625 -0.078125 C4.93473244 0.32691994 5.78268701 1.24096187 7.4375 3.25 C7.1075 3.91 6.7775 4.57 6.4375 5.25 C7.0975 5.25 7.7575 5.25 8.4375 5.25 C8.91858275 6.66601714 9.39728141 8.08284437 9.875 9.5 C10.14183594 10.28890625 10.40867187 11.0778125 10.68359375 11.890625 C11.35704708 13.99821988 11.92900595 16.09753973 12.4375 18.25 C10.08311267 19.67944945 8.95717567 20.33661261 6.1875 19.875 C5.32125 19.565625 5.32125 19.565625 4.4375 19.25 C3.7775 20.24 3.1175 21.23 2.4375 22.25 C1.7775 22.25 1.1175 22.25 0.4375 22.25 C0.1075 23.24 -0.2225 24.23 -0.5625 25.25 C-2.50816215 21.53812998 -4.10379262 17.68841542 -5.6875 13.8125 C-5.96464844 13.15701172 -6.24179687 12.50152344 -6.52734375 11.82617188 C-8.01671875 8.16876578 -8.91333582 5.20834331 -8.5625 1.25 C-5.66691295 0.43211209 -3.00785913 0.06107328 0 0 Z " fill="#414E5C" transform="translate(370.5625,159.75)"/>
<path d="M0 0 C-5.05078266 5.05078266 -12.51342975 5.12436959 -19.28637695 5.12939453 C-20.51238113 5.13254669 -21.73838531 5.13569885 -23.00154114 5.13894653 C-24.97497749 5.13591019 -24.97497749 5.13591019 -26.98828125 5.1328125 C-28.37387611 5.13348775 -29.75947085 5.13445961 -31.14506531 5.13571167 C-34.05090461 5.13718364 -36.95671312 5.13505381 -39.86254883 5.13037109 C-43.53589941 5.12473202 -47.20917658 5.12800394 -50.88252449 5.13382339 C-79.94272884 5.17266357 -79.94272884 5.17266357 -94 4 C-94 3.67 -94 3.34 -94 3 C-92.91816185 2.98786972 -92.91816185 2.98786972 -91.81446838 2.97549438 C-84.89082891 2.89632281 -77.96733752 2.80870915 -71.04391575 2.71247292 C-67.48772834 2.66331628 -63.93155989 2.61700836 -60.37524414 2.578125 C-44.19522717 2.39905343 -28.13143866 1.91489436 -12.00756836 0.41552734 C-7.98069227 0.04829665 -4.04171958 -0.08612066 0 0 Z " fill="#64BAE7" transform="translate(220,232)"/>
<path d="M0 0 C1.28355258 2.56710516 1.0818427 4.31195967 1.02172852 7.18408203 C1.00163223 8.26505157 0.98153595 9.34602112 0.96083069 10.45974731 C0.93379562 11.63060883 0.90676056 12.80147034 0.87890625 14.0078125 C0.85529526 15.20356903 0.83168427 16.39932556 0.80735779 17.63131714 C0.73058708 21.46266154 0.64662032 25.29381059 0.5625 29.125 C0.50929275 31.71743825 0.45655228 34.30988613 0.40429688 36.90234375 C0.27495376 43.26835362 0.1391553 49.63419736 0 56 C3.96 56.33 7.92 56.66 12 57 C11.7525 54.834375 11.7525 54.834375 11.5 52.625 C10.11787411 38.76425178 10.11787411 38.76425178 12 35 C13.43861294 35.08746284 14.87597508 35.19565348 16.3125 35.3125 C17.51326172 35.39951172 17.51326172 35.39951172 18.73828125 35.48828125 C21.38742483 36.0876557 22.20473841 37.03626811 24 39 C24.66 39 25.32 39 26 39 C27 42 27 42 27 45 C27.515625 46.134375 28.03125 47.26875 28.5625 48.4375 C30.01749065 52.04334639 30.13376498 52.58368829 29 56 C28.41992188 54.89591797 28.41992188 54.89591797 27.828125 53.76953125 C25.18845505 48.82341701 22.61534162 44.31059962 19 40 C19 39.34 19 38.68 19 38 C17.35 38 15.7 38 14 38 C14.00523682 38.57032959 14.01047363 39.14065918 14.01586914 39.72827148 C14.03658221 42.29800323 14.0496419 44.86771747 14.0625 47.4375 C14.07087891 48.33533203 14.07925781 49.23316406 14.08789062 50.15820312 C14.09111328 51.01220703 14.09433594 51.86621094 14.09765625 52.74609375 C14.10289307 53.53685303 14.10812988 54.3276123 14.11352539 55.14233398 C14 57 14 57 13 58 C10.83519203 58.0989294 8.66706215 58.129711 6.5 58.125 C5.3140625 58.12757813 4.128125 58.13015625 2.90625 58.1328125 C0 58 0 58 -1 57 C-1.09887792 55.25617465 -1.12799032 53.50834457 -1.12939453 51.76171875 C-1.13254669 50.64385986 -1.13569885 49.52600098 -1.13894653 48.37426758 C-1.1369223 47.15763428 -1.13489807 45.94100098 -1.1328125 44.6875 C-1.13376923 43.44830811 -1.13472595 42.20911621 -1.13571167 40.93237305 C-1.13639374 38.30611719 -1.13503538 35.67995367 -1.13037109 33.05371094 C-1.12467381 29.68071286 -1.12795302 26.30779435 -1.13394356 22.93479919 C-1.1384177 19.72736323 -1.13528882 16.519937 -1.1328125 13.3125 C-1.13483673 12.0958667 -1.13686096 10.8792334 -1.13894653 9.62573242 C-1.13579437 8.50787354 -1.13264221 7.39001465 -1.12939453 6.23828125 C-1.12859894 5.24868408 -1.12780334 4.25908691 -1.12698364 3.23950195 C-1 1 -1 1 0 0 Z " fill="#4888DC" transform="translate(530,161)"/>
<path d="M0 0 C0.99 0.33 1.98 0.66 3 1 C3.70211894 2.65204456 4.36971413 4.31923769 5 6 C5.66 6.33 6.32 6.66 7 7 C6.34 8.65 5.68 10.3 5 12 C6.65 12.33 8.3 12.66 10 13 C10 13.66 10 14.32 10 15 C10.66 15 11.32 15 12 15 C12 15.99 12 16.98 12 18 C7.38 18 2.76 18 -2 18 C-2.71614583 15.4609375 -3.43229167 12.921875 -4.1484375 10.3828125 C-4.8604315 7.85430274 -4.8604315 7.85430274 -7 6 C-5.68 4.68 -4.36 3.36 -3 2 C-2.34 2.33 -1.68 2.66 -1 3 C-0.67 2.01 -0.34 1.02 0 0 Z " fill="#0D61F7" transform="translate(562,199)"/>
<path d="M0 0 C0 0.66 0 1.32 0 2 C-3.44450737 4.29633824 -5.93812283 4.54016485 -10 5 C-10.0825 5.598125 -10.165 6.19625 -10.25 6.8125 C-11.23604379 9.68846106 -12.42694423 10.42757703 -15 12 C-15.886875 12.33 -16.77375 12.66 -17.6875 13 C-18.450625 13.33 -19.21375 13.66 -20 14 C-20.33 14.99 -20.66 15.98 -21 17 C-20.34 17.33 -19.68 17.66 -19 18 C-19.99 18.66 -20.98 19.32 -22 20 C-22.96644024 21.91581104 -22.96644024 21.91581104 -23.625 24.0625 C-24.92370572 27.92370572 -24.92370572 27.92370572 -26 29 C-26.07244053 31.01964199 -26.08377188 33.04167124 -26.0625 35.0625 C-26.05347656 36.16722656 -26.04445312 37.27195313 -26.03515625 38.41015625 C-26.02355469 39.26480469 -26.01195312 40.11945313 -26 41 C-26.66 41 -27.32 41 -28 41 C-28.72019933 29.28475763 -27.72139601 19.79244836 -20.3125 10.125 C-15.08334505 4.56902287 -7.68891066 0 0 0 Z " fill="#90D2F4" transform="translate(88,169)"/>
<path d="M0 0 C0.99 0.33 1.98 0.66 3 1 C3.33 1.99 3.66 2.98 4 4 C4.33 3.01 4.66 2.02 5 1 C6.32 1 7.64 1 9 1 C9.66 1.99 10.32 2.98 11 4 C14.89784125 5.21158476 18.75772771 5.1034573 22.8125 5.0625 C24.55466797 5.04896484 24.55466797 5.04896484 26.33203125 5.03515625 C27.21246094 5.02355469 28.09289062 5.01195312 29 5 C28.67 5.66 28.34 6.32 28 7 C26.87980469 6.96519531 25.75960938 6.93039063 24.60546875 6.89453125 C23.13282749 6.86639161 21.66017002 6.83909163 20.1875 6.8125 C19.44951172 6.78736328 18.71152344 6.76222656 17.95117188 6.73632812 C13.77646374 6.54989162 13.77646374 6.54989162 10.2734375 8.49609375 C9.85320312 8.99238281 9.43296875 9.48867187 9 10 C6.80859375 10.328125 6.80859375 10.328125 4.4375 10.25 C3.25994141 10.22679687 3.25994141 10.22679687 2.05859375 10.203125 C0 10 0 10 -2 9 C-2 7.35 -2 5.7 -2 4 C-1.34 3.67 -0.68 3.34 0 3 C0 2.01 0 1.02 0 0 Z " fill="#106DF8" transform="translate(477,200)"/>
<path d="M0 0 C2.046875 3.71875 2.046875 3.71875 1.625 6.25 C1.41875 6.8275 1.2125 7.405 1 8 C2.32 7.67 3.64 7.34 5 7 C5 7.99 5 8.98 5 10 C6.94074861 9.72382467 6.94074861 9.72382467 9 9 C9.66 8.01 10.32 7.02 11 6 C10.42208519 9.98119095 9.18914835 12.7244425 7.0625 16.125 C6.53785156 16.97320312 6.01320313 17.82140625 5.47265625 18.6953125 C4.33469232 20.47621096 3.17231673 22.2415249 2 24 C1.75 16.375 1.75 16.375 4 13 C3.01 13 2.02 13 1 13 C1 12.01 1 11.02 1 10 C-0.1446875 10.495 -0.1446875 10.495 -1.3125 11 C-4 12 -4 12 -7 12 C-6.38801624 8.56049636 -5.07941153 6.48435515 -2.9375 3.75 C-2.38964844 3.04359375 -1.84179688 2.3371875 -1.27734375 1.609375 C-0.85582031 1.07828125 -0.43429687 0.5471875 0 0 Z " fill="#3891F4" transform="translate(617,182)"/>
<path d="M0 0 C1.20205078 -0.01224609 2.40410156 -0.02449219 3.64257812 -0.03710938 C4.79822266 -0.03904297 5.95386719 -0.04097656 7.14453125 -0.04296875 C8.73744995 -0.04913208 8.73744995 -0.04913208 10.36254883 -0.05541992 C13.16545344 0.1856042 14.80614567 0.74076901 17.1875 2.1875 C15.5375 2.1875 13.8875 2.1875 12.1875 2.1875 C11.8575 2.8475 11.5275 3.5075 11.1875 4.1875 C10.8575 3.5275 10.5275 2.8675 10.1875 2.1875 C9.1975 2.1875 8.2075 2.1875 7.1875 2.1875 C2.52083333 2.1875 -2.14583333 2.1875 -6.8125 2.1875 C-7.1425 2.8475 -7.4725 3.5075 -7.8125 4.1875 C-8.8025 4.1875 -9.7925 4.1875 -10.8125 4.1875 C-11.4725 14.4175 -12.1325 24.6475 -12.8125 35.1875 C-13.1425 35.1875 -13.4725 35.1875 -13.8125 35.1875 C-13.8371519 30.36369198 -13.85533693 25.53992033 -13.86743164 20.71606445 C-13.87247174 19.07380536 -13.87930378 17.43155077 -13.88793945 15.78930664 C-13.90001926 13.43374521 -13.90573139 11.07824291 -13.91015625 8.72265625 C-13.91531754 7.98410904 -13.92047882 7.24556183 -13.92579651 6.4846344 C-13.9259925 4.71851912 -13.87444719 2.95252854 -13.8125 1.1875 C-11.18050816 -1.44449184 -3.54288106 0.00188151 0 0 Z " fill="#289CED" transform="translate(543.8125,161.8125)"/>
<path d="M0 0 C0.68513672 0.08314453 1.37027344 0.16628906 2.07617188 0.25195312 C5.92566199 0.75953748 9.28322284 1.56334721 12.8125 3.1875 C12.8125 3.5175 12.8125 3.8475 12.8125 4.1875 C12.14605469 4.1153125 11.47960937 4.043125 10.79296875 3.96875 C4.1030123 3.29507606 -2.46637912 2.98686953 -9.1875 3.1875 C-10.23035156 3.21585937 -11.27320313 3.24421875 -12.34765625 3.2734375 C-19.3562577 3.62428525 -25.26984658 4.92773908 -31.82421875 7.4453125 C-34.1875 8.1875 -34.1875 8.1875 -36.1875 7.1875 C-32.22522799 4.53588393 -28.47858982 3.25689409 -23.875 2.0625 C-21.99361328 1.56363281 -21.99361328 1.56363281 -20.07421875 1.0546875 C-13.09039011 -0.50351346 -7.09304623 -0.99777779 0 0 Z " fill="#5CC0F0" transform="translate(162.1875,109.8125)"/>
<path d="M0 0 C4.56454251 0.54339792 7.9728176 1.79463821 12 4 C12.11982234 10.82987315 12.11982234 10.82987315 9 14.08984375 C2.73427914 19 2.73427914 19 0 19 C0 18.01 0 17.02 0 16 C1.32 16 2.64 16 4 16 C4 15.01 4 14.02 4 13 C3.34 13 2.68 13 2 13 C2.33 12.34 2.66 11.68 3 11 C4.65 11.33 6.3 11.66 8 12 C8.66 9.69 9.32 7.38 10 5 C5.98755739 4.79161231 5.98755739 4.79161231 2 5 C0.9805881 5.98020375 -0.02246356 6.97803008 -1 8 C-4.1875 7.6875 -4.1875 7.6875 -7 7 C-6.21625 6.401875 -5.4325 5.80375 -4.625 5.1875 C-1.85425677 3.08914751 -1.85425677 3.08914751 0 0 Z " fill="#4286E9" transform="translate(511,198)"/>
<path d="M0 0 C-3 2 -3 2 -5.4375 2.625 C-9.38690181 4.74419122 -10.65910352 7.81955805 -12 12 C-12.97429948 17.65881014 -12.09821898 22.42186678 -9.25 27.40625 C-6.63697917 30.73785156 -3.36360531 30.83057 0.609375 31.32421875 C3.07152451 31.5919949 5.53045819 31.81454034 8 32 C8 32.33 8 32.66 8 33 C-4.2173913 33.39130435 -4.2173913 33.39130435 -9 31 C-9.33 30.01 -9.66 29.02 -10 28 C-11.32 28 -12.64 28 -14 28 C-14 29.65 -14 31.3 -14 33 C-15.0625 31.125 -15.0625 31.125 -16 29 C-15.67 28.34 -15.34 27.68 -15 27 C-14.7672987 23.70524506 -14.60633052 20.41738847 -14.48242188 17.1171875 C-14.26750791 12.75402861 -13.6001373 9.12019158 -12 5 C-11.34 5 -10.68 5 -10 5 C-9.8453125 4.0409375 -9.8453125 4.0409375 -9.6875 3.0625 C-9.460625 2.381875 -9.23375 1.70125 -9 1 C-5.8035914 -0.06546953 -3.34252724 -0.07427838 0 0 Z " fill="#67A5F3" transform="translate(496,173)"/>
<path d="M0 0 C-2.48110015 1.56217417 -3.60858207 2.05728067 -6.5625 1.625 C-7.366875 1.41875 -8.17125 1.2125 -9 1 C-9.99 1 -10.98 1 -12 1 C-12 1.66 -12 2.32 -12 3 C-12.99 3 -13.98 3 -15 3 C-15 3.66 -15 4.32 -15 5 C-17.31 5.33 -19.62 5.66 -22 6 C-21.67 5.01 -21.34 4.02 -21 3 C-22.65 2.67 -24.3 2.34 -26 2 C-19.84210124 -4.15789876 -7.35316798 -3.39376984 0 0 Z " fill="#17A9F9" transform="translate(510,161)"/>
<path d="M0 0 C0.66 0 1.32 0 2 0 C2.38091797 0.79664063 2.38091797 0.79664063 2.76953125 1.609375 C4.27211931 4.6933385 5.67421728 7.56950141 7.75 10.3125 C9 12 9 12 9 15 C9.66 15 10.32 15 11 15 C12.25664978 17.90600261 13 19.79604584 13 23 C8.05 23 3.1 23 -2 23 C-2.33 22.34 -2.66 21.68 -3 21 C1.62 21 6.24 21 11 21 C11 20.01 11 19.02 11 18 C10.34 18 9.68 18 9 18 C9 17.34 9 16.68 9 16 C7.35 15.67 5.7 15.34 4 15 C4.226875 14.401875 4.45375 13.80375 4.6875 13.1875 C4.8421875 12.1046875 4.8421875 12.1046875 5 11 C4.02149805 9.97895449 3.02019573 8.9793879 2 8 C2 6.68 2 5.36 2 4 C1.34 4 0.68 4 0 4 C0 2.68 0 1.36 0 0 Z " fill="#4F89F1" transform="translate(563,196)"/>
<path d="M0 0 C2 1 2 1 3 3 C2.443125 3.061875 1.88625 3.12375 1.3125 3.1875 C-1.98120783 4.3447487 -3.59504754 6.48318929 -6 9 C-7.7968636 10.51683291 -9.61343664 12.00321647 -11.44921875 13.47265625 C-13.17379096 15.17116439 -14.03692051 16.79393122 -15 19 C-15.66 19 -16.32 19 -17 19 C-17 19.66 -17 20.32 -17 21 C-18.96147874 22.38938077 -20.96166576 23.7260411 -23 25 C-17.95976231 14.10080582 -9.96228538 6.31754682 0 0 Z " fill="#55BEF0" transform="translate(124,118)"/>
<path d="M0 0 C13.31320755 -0.49308176 13.31320755 -0.49308176 16.4375 1.75 C18.90789314 5.30736612 18.28255704 7.76164443 18 12 C16.02 12.99 16.02 12.99 14 14 C14.66 13.01 15.32 12.02 16 11 C15.84239972 7.88695186 15.84239972 7.88695186 15 5 C12.29816945 3.64908472 9.88191794 3.66141942 6.875 3.4375 C4.93625 3.293125 2.9975 3.14875 1 3 C1.33 7.29 1.66 11.58 2 16 C1.34 16 0.68 16 0 16 C0 10.72 0 5.44 0 0 Z " fill="#54B3F3" transform="translate(543,171)"/>
<path d="M0 0 C2.0625 0.4375 2.0625 0.4375 4 1 C3.67 1.99 3.34 2.98 3 4 C7.29 4.33 11.58 4.66 16 5 C16 5.33 16 5.66 16 6 C5.77 6 -4.46 6 -15 6 C-15 5.34 -15 4.68 -15 4 C-11.49675495 2.24837747 -7.49857257 2.08539511 -3.65234375 1.5 C-1.08646472 1.27442356 -1.08646472 1.27442356 0 0 Z " fill="#1D8BE3" transform="translate(172,229)"/>
<path d="M0 0 C2.4375 1.1875 2.4375 1.1875 5 3 C6.53162462 7.74339503 6.22108173 12.93720511 6.25 17.875 C6.270625 18.74769531 6.29125 19.62039062 6.3125 20.51953125 C6.34629818 26.1384779 5.5886686 29.99978222 3 35 C2.01 34.67 1.02 34.34 0 34 C0.28875 33.39414063 0.5775 32.78828125 0.875 32.1640625 C5.3926184 21.96804875 4.72085527 14.83119336 0.875 4.46875 C0 2 0 2 0 0 Z " fill="#1FACF3" transform="translate(120,184)"/>
<path d="M0 0 C7.26451204 8.47526405 7.37360733 17.23723486 7 28 C6.76939956 30.37359423 6.42692507 32.65191209 6 35 C5.67 35 5.34 35 5 35 C4.97494385 34.39003174 4.9498877 33.78006348 4.92407227 33.15161133 C4.8075942 30.37172102 4.68510368 27.5921266 4.5625 24.8125 C4.52318359 23.85279297 4.48386719 22.89308594 4.44335938 21.90429688 C4.40146484 20.97294922 4.35957031 20.04160156 4.31640625 19.08203125 C4.27974854 18.22843018 4.24309082 17.3748291 4.20532227 16.49536133 C3.99468906 13.93545406 3.55158464 11.50666757 3 9 C2.01 8.67 1.02 8.34 0 8 C-0.33 8.66 -0.66 9.32 -1 10 C-1.33 9.01 -1.66 8.02 -2 7 C-1.34 6.67 -0.68 6.34 0 6 C0 4.02 0 2.04 0 0 Z " fill="#57A9E4" transform="translate(242,167)"/>
<path d="M0 0 C0 1.32 0 2.64 0 4 C0.99 4 1.98 4 3 4 C3 6 3 6 1.75 7.5625 C-0.2077316 9.17063667 -1.50139066 9.67759879 -4 10 C-4.66 9.67 -5.32 9.34 -6 9 C-5.67 7.35 -5.34 5.7 -5 4 C-5.66 4 -6.32 4 -7 4 C-7.33 2.68 -7.66 1.36 -8 0 C-4.71023192 -1.09658936 -3.28696233 -0.79953138 0 0 Z " fill="#1380FB" transform="translate(607,186)"/>
<path d="M0 0 C0.66 0.33 1.32 0.66 2 1 C2.625 3.0625 2.625 3.0625 3 5 C3.99 4.67 4.98 4.34 6 4 C5.67 6.97 5.34 9.94 5 13 C4.34 13 3.68 13 3 13 C2.01 10.69 1.02 8.38 0 6 C-0.33 14.91 -0.66 23.82 -1 33 C-1.33 33 -1.66 33 -2 33 C-2 23.1 -2 13.2 -2 3 C-1.34 3 -0.68 3 0 3 C0 2.01 0 1.02 0 0 Z " fill="#4D92E7" transform="translate(596,186)"/>
<path d="M0 0 C4 0 4 0 5.625 1.5 C6.07875 1.995 6.5325 2.49 7 3 C7.66 3 8.32 3 9 3 C10 6 10 6 10 9 C10.515625 10.134375 11.03125 11.26875 11.5625 12.4375 C13.01749065 16.04334639 13.13376498 16.58368829 12 20 C11.61328125 19.26394531 11.2265625 18.52789062 10.828125 17.76953125 C8.18845505 12.82341701 5.61534162 8.31059962 2 4 C2 3.34 2 2.68 2 2 C1.01 1.67 0.02 1.34 -1 1 C-0.67 0.67 -0.34 0.34 0 0 Z " fill="#3A83EF" transform="translate(547,197)"/>
<path d="M0 0 C0.99 0.66 1.98 1.32 3 2 C2.34 2 1.68 2 1 2 C1.04125 2.9075 1.0825 3.815 1.125 4.75 C1.00279217 7.92740358 0.53473141 9.31422004 -1 12 C-1 12.66 -1 13.32 -1 14 C-1.99 14.66 -2.98 15.32 -4 16 C-5.35251497 17.31387169 -6.68945377 18.64426252 -8 20 C-8.33 19.34 -8.66 18.68 -9 18 C-7.890625 15.390625 -7.890625 15.390625 -6.25 12.25 C-5.45335937 10.71085938 -5.45335937 10.71085938 -4.640625 9.140625 C-4.09921875 8.10421875 -3.5578125 7.0678125 -3 6 C-1.99631846 4.00184501 -0.99520098 2.00239232 0 0 Z " fill="#2098F0" transform="translate(627,162)"/>
<path d="M0 0 C0.33 0.99 0.66 1.98 1 3 C2.3317627 2.98428955 2.3317627 2.98428955 3.69042969 2.96826172 C6.99286507 2.93412244 10.29511218 2.90907332 13.59765625 2.89013672 C15.02542078 2.88009573 16.45316483 2.86646019 17.88085938 2.84912109 C19.93624941 2.82478848 21.99136692 2.81349798 24.046875 2.8046875 C25.28276367 2.79421387 26.51865234 2.78374023 27.79199219 2.77294922 C31 3 31 3 35 5 C20.81 5 6.62 5 -8 5 C-8 4.34 -8 3.68 -8 3 C-6.865625 2.690625 -5.73125 2.38125 -4.5625 2.0625 C-1.21224901 1.37075469 -1.21224901 1.37075469 0 0 Z " fill="#28ADF9" transform="translate(108,230)"/>
<path d="M0 0 C-0.33 1.98 -0.66 3.96 -1 6 C-2.32 6 -3.64 6 -5 6 C-4.67 6.99 -4.34 7.98 -4 9 C-4.99 10.485 -4.99 10.485 -6 12 C-5.34 12.33 -4.68 12.66 -4 13 C-5.50663783 16.01327566 -8.03166411 16.61056618 -11 18 C-9.3437464 12.16199972 -7.672587 6.46137344 -5 1 C-3 0 -3 0 0 0 Z " fill="#69717D" transform="translate(338,160)"/>
<path d="M0 0 C8.25290966 1.06489157 15.20084419 5.20084419 21 11 C19.35 11 17.7 11 16 11 C16 10.34 16 9.68 16 9 C12.37 8.34 8.74 7.68 5 7 C4.67 6.01 4.34 5.02 4 4 C3.34 4 2.68 4 2 4 C2 3.34 2 2.68 2 2 C1.34 2 0.68 2 0 2 C0 1.34 0 0.68 0 0 Z " fill="#38A5EC" transform="translate(214,145)"/>
<path d="M0 0 C0.33 0 0.66 0 1 0 C1 8.91 1 17.82 1 27 C-2.63 27 -6.26 27 -10 27 C-10 23.7 -10 20.4 -10 17 C-9.67 17.99 -9.34 18.98 -9 20 C-8.34 20.33 -7.68 20.66 -7 21 C-7 21.99 -7 22.98 -7 24 C-4.69 24.33 -2.38 24.66 0 25 C0 16.75 0 8.5 0 0 Z " fill="#1D64DE" transform="translate(593,192)"/>
<path d="M0 0 C1.1446875 0.3403125 1.1446875 0.3403125 2.3125 0.6875 C2.5 3.5625 2.5 3.5625 2.3125 6.6875 C-0.6875 8.6875 -0.6875 8.6875 -3.875 8.3125 C-5.2671875 8.003125 -5.2671875 8.003125 -6.6875 7.6875 C-6.32553085 5.00892828 -5.94762724 3.07769086 -4.4375 0.8125 C-2.6875 -0.3125 -2.6875 -0.3125 0 0 Z " fill="#1068F4" transform="translate(518.6875,202.3125)"/>
<path d="M0 0 C3.30941204 0 5.11090151 0.40339294 8 2 C8.8125 4.625 8.8125 4.625 9 7 C8.38125 7.144375 7.7625 7.28875 7.125 7.4375 C4.96741678 7.93152225 4.96741678 7.93152225 3 9 C0.875 8.5625 0.875 8.5625 -1 8 C-0.67 5.36 -0.34 2.72 0 0 Z " fill="#4D5864" transform="translate(313,211)"/>
<path d="M0 0 C0.70703125 1.65234375 0.70703125 1.65234375 1 4 C-0.36328125 6.69140625 -0.36328125 6.69140625 -2.3125 9.5625 C-2.94800781 10.51253906 -3.58351563 11.46257812 -4.23828125 12.44140625 C-4.81964844 13.28574219 -5.40101563 14.13007813 -6 15 C-6.66 15.99 -7.32 16.98 -8 18 C-8.25 10.375 -8.25 10.375 -6 7 C-6.3121764 4.35367713 -6.3121764 4.35367713 -7 2 C-6.34 1.67 -5.68 1.34 -5 1 C-5 1.99 -5 2.98 -5 4 C-3.01508358 3.73323796 -3.01508358 3.73323796 -1 3 C-0.67 2.01 -0.34 1.02 0 0 Z " fill="#4A99F3" transform="translate(627,188)"/>
<path d="M0 0 C-2.96267921 2.96267921 -5.68243325 3.93774567 -9.86254883 4.13525391 C-11.39431763 4.05670166 -11.39431763 4.05670166 -12.95703125 3.9765625 C-14.06884766 3.925 -15.18066406 3.8734375 -16.32617188 3.8203125 C-17.47666016 3.75585938 -18.62714844 3.69140625 -19.8125 3.625 C-21.56723633 3.53992188 -21.56723633 3.53992188 -23.35742188 3.453125 C-26.23893 3.31198991 -29.11952248 3.16060844 -32 3 C-32 2.67 -32 2.34 -32 2 C-27.97954457 1.66200308 -23.95858312 1.33043881 -19.9375 1 C-18.2369043 0.85691406 -18.2369043 0.85691406 -16.50195312 0.7109375 C-10.98316765 0.2604244 -5.53752411 -0.12859272 0 0 Z " fill="#41A0EC" transform="translate(220,232)"/>
<path d="M0 0 C0.33 0 0.66 0 1 0 C1.33 5.94 1.66 11.88 2 18 C4.97 18.33 7.94 18.66 11 19 C10.34 16.36 9.68 13.72 9 11 C9.99 11 10.98 11 12 11 C12 14.3 12 17.6 12 21 C10.39125 21.020625 8.7825 21.04125 7.125 21.0625 C5.76761719 21.07990234 5.76761719 21.07990234 4.3828125 21.09765625 C2 21 2 21 0 20 C0 13.4 0 6.8 0 0 Z " fill="#1664E9" transform="translate(530,197)"/>
<path d="M0 0 C0.33 0 0.66 0 1 0 C1.04898438 0.67546875 1.09796875 1.3509375 1.1484375 2.046875 C1.22320313 2.93890625 1.29796875 3.8309375 1.375 4.75 C1.44460938 5.63171875 1.51421875 6.5134375 1.5859375 7.421875 C1.99850055 9.99066382 2.71160957 11.75841015 4 14 C5.98 14 7.96 14 10 14 C10 9.38 10 4.76 10 0 C10.33 0 10.66 0 11 0 C11 5.28 11 10.56 11 16 C7.37 16 3.74 16 0 16 C0 10.72 0 5.44 0 0 Z " fill="#1862EB" transform="translate(629,202)"/>
<path d="M0 0 C3.96 0.33 7.92 0.66 12 1 C12 5 12 5 11 8 C6.40378078 6.5129879 3.53027653 4.20187872 0 1 C0 0.67 0 0.34 0 0 Z " fill="#3A7EF2" transform="translate(475,209)"/>
<path d="M0 0 C1.31114005 3.94265736 0.26225037 5.96769431 -1.28369141 9.76171875 C-2.52456677 13.63913707 -2.31553353 17.46858511 -2.1875 21.5 C-2.17396484 22.32242188 -2.16042969 23.14484375 -2.14648438 23.9921875 C-2.11155016 25.99508221 -2.05776057 27.99763356 -2 30 C-5.75236976 26.24763024 -4.95326498 20.08243309 -5 15 C-4.41194697 9.46250067 -2.74401891 4.86439717 0 0 Z " fill="#90BEE2" transform="translate(473,171)"/>
<path d="M0 0 C4.52060753 0.27397621 7.27421471 2.24677819 10.55078125 5.16796875 C13.02218123 8.29219137 12.93260183 11.09090615 13 15 C11.68 15.33 10.36 15.66 9 16 C9.66 15.67 10.32 15.34 11 15 C10.67 12.69 10.34 10.38 10 8 C8.68 8.33 7.36 8.66 6 9 C6 7.35 6 5.7 6 4 C5.195625 3.71125 4.39125 3.4225 3.5625 3.125 C1 2 1 2 0 0 Z " fill="#54B0EB" transform="translate(510,162)"/>
<path d="M0 0 C2 2 2 2 2 5 C2.66 5 3.32 5 4 5 C5.0076952 6.7664657 6.00591714 8.53833823 7 10.3125 C7.556875 11.29863281 8.11375 12.28476563 8.6875 13.30078125 C10 16 10 16 10 19 C9.01 19 8.02 19 7 19 C7 17.68 7 16.36 7 15 C6.34 15 5.68 15 5 15 C5 14.01 5 13.02 5 12 C4.34 12 3.68 12 3 12 C2.49166409 10.75336669 1.99368855 9.50250613 1.5 8.25 C1.2215625 7.55390625 0.943125 6.8578125 0.65625 6.140625 C0 4 0 4 0 0 Z " fill="#5AA8EE" transform="translate(600,171)"/>
<path d="M0 0 C0.66 0.66 1.32 1.32 2 2 C-0.88341534 6.21422242 -3.04303419 7.76075855 -8 9 C-8 8.01 -8 7.02 -8 6 C-7.34 5.67 -6.68 5.34 -6 5 C-6 4.01 -6 3.02 -6 2 C-4.02 1.34 -2.04 0.68 0 0 Z " fill="#515B65" transform="translate(305,210)"/>
<path d="M0 0 C3.125 0.1875 3.125 0.1875 6.125 2.1875 C6.3125 5.3125 6.3125 5.3125 6.125 8.1875 C3.485 6.5375 0.845 4.8875 -1.875 3.1875 C-2.205 3.8475 -2.535 4.5075 -2.875 5.1875 C-3.4375 3.25 -3.4375 3.25 -3.875 1.1875 C-2.875 0.1875 -2.875 0.1875 0 0 Z " fill="#636D78" transform="translate(304.875,159.8125)"/>
<path d="M0 0 C1.65 0.33 3.3 0.66 5 1 C5 1.99 5 2.98 5 4 C4.34 4 3.68 4 3 4 C2.67 5.65 2.34 7.3 2 9 C0.35 9 -1.3 9 -3 9 C-3.33 8.01 -3.66 7.02 -4 6 C-3.34 6 -2.68 6 -2 6 C-1.34 4.02 -0.68 2.04 0 0 Z " fill="#344150" transform="translate(323,191)"/>
<path d="M0 0 C0.79921875 0.00902344 1.5984375 0.01804688 2.421875 0.02734375 C3.02515625 0.03894531 3.6284375 0.05054688 4.25 0.0625 C2.13861114 1.17120001 0.49896009 2.02588822 -1.875 2.375 C-2.803125 2.7153125 -2.803125 2.7153125 -3.75 3.0625 C-4.90521502 5.53380918 -4.90521502 5.53380918 -5.75 8.0625 C-6.74 8.5575 -6.74 8.5575 -7.75 9.0625 C-8.08 6.4225 -8.41 3.7825 -8.75 1.0625 C-5.75519083 0.1901588 -3.11424089 -0.04579766 0 0 Z " fill="#616C75" transform="translate(370.75,159.9375)"/>
<path d="M0 0 C3.96 0 7.92 0 12 0 C12 5.61 12 11.22 12 17 C11.67 17 11.34 17 11 17 C10.67 11.72 10.34 6.44 10 1 C5.03477739 1.85010335 5.03477739 1.85010335 2 5 C1.34 4.67 0.68 4.34 0 4 C0 2.68 0 1.36 0 0 Z " fill="#1D9CF2" transform="translate(628,162)"/>
<path d="M0 0 C2.79230062 4.18845093 3.08597295 8.01356896 3 13 C2.28089314 16.13456836 1.26314698 19.04552062 0 22 C-0.66 22 -1.32 22 -2 22 C-1.855625 21.195625 -1.71125 20.39125 -1.5625 19.5625 C-0.52865664 13.01482538 0.14109953 6.63167801 0 0 Z " fill="#85C0ED" transform="translate(572,170)"/>
<path d="M0 0 C-3 2 -3 2 -5.4375 2.625 C-9.36696035 4.73349092 -10.6011522 7.86640475 -12 12 C-12.55612849 14.99845944 -12.85903408 17.95513615 -13 21 C-13.33 21 -13.66 21 -14 21 C-14.20413361 15.26157749 -14.27141454 10.39460953 -12 5 C-11.34 5 -10.68 5 -10 5 C-9.8453125 4.0409375 -9.8453125 4.0409375 -9.6875 3.0625 C-9.460625 2.381875 -9.23375 1.70125 -9 1 C-5.8035914 -0.06546953 -3.34252724 -0.07427838 0 0 Z " fill="#8DC8F4" transform="translate(496,173)"/>
<path d="M0 0 C1.01964844 -0.01417969 2.03929687 -0.02835938 3.08984375 -0.04296875 C6.13409667 0.19305086 8.30987643 0.90497005 11.0625 2.1875 C9.1875 3.25 9.1875 3.25 7.0625 4.1875 C6.4025 3.8575 5.7425 3.5275 5.0625 3.1875 C3.23121229 3.09141392 1.39630041 3.05767421 -0.4375 3.0625 C-1.4171875 3.05992187 -2.396875 3.05734375 -3.40625 3.0546875 C-5.93181054 3.01809947 -5.93181054 3.01809947 -7.9375 4.1875 C-7.9375 3.5275 -7.9375 2.8675 -7.9375 2.1875 C-8.5975 1.8575 -9.2575 1.5275 -9.9375 1.1875 C-6.58649517 0.18300215 -3.49105702 0.02201171 0 0 Z " fill="#7ACCF2" transform="translate(498.9375,158.8125)"/>
<path d="M0 0 C0.89589844 0.00322266 1.79179687 0.00644531 2.71484375 0.00976562 C4.12056641 0.02233398 4.12056641 0.02233398 5.5546875 0.03515625 C6.49957031 0.03966797 7.44445312 0.04417969 8.41796875 0.04882812 C10.75527137 0.06063268 13.09244811 0.07709866 15.4296875 0.09765625 C15.0996875 0.75765625 14.7696875 1.41765625 14.4296875 2.09765625 C13.30949219 2.06285156 12.18929688 2.02804688 11.03515625 1.9921875 C9.56251499 1.96404786 8.08985752 1.93674788 6.6171875 1.91015625 C5.87919922 1.88501953 5.14121094 1.85988281 4.38085938 1.83398438 C0.14729708 1.68092872 0.14729708 1.68092872 -3.4453125 3.62890625 C-3.8165625 4.11359375 -4.1878125 4.59828125 -4.5703125 5.09765625 C-6.7578125 4.78515625 -6.7578125 4.78515625 -8.5703125 4.09765625 C-7.9103125 4.09765625 -7.2503125 4.09765625 -6.5703125 4.09765625 C-6.5703125 3.10765625 -6.5703125 2.11765625 -6.5703125 1.09765625 C-4.16971433 -0.10264283 -2.67670601 -0.01694118 0 0 Z " fill="#1B69E8" transform="translate(490.5703125,204.90234375)"/>
<path d="M0 0 C1.01136941 2.73069741 1.04557718 3.86001293 0.125 6.6875 C-1 9 -1 9 -2 10 C-2.07244053 12.01964199 -2.08377188 14.04167124 -2.0625 16.0625 C-2.05347656 17.16722656 -2.04445312 18.27195313 -2.03515625 19.41015625 C-2.02355469 20.26480469 -2.01195312 21.11945313 -2 22 C-2.66 22 -3.32 22 -4 22 C-4.05411124 19.58303128 -4.09372278 17.16728213 -4.125 14.75 C-4.14175781 14.06808594 -4.15851562 13.38617188 -4.17578125 12.68359375 C-4.21213482 8.9391765 -4.07944349 6.17647273 -2 3 C-1.34 3 -0.68 3 0 3 C0 2.01 0 1.02 0 0 Z " fill="#83CCF2" transform="translate(64,188)"/>
<path d="M0 0 C-0.33 1.32 -0.66 2.64 -1 4 C-5.95 4 -10.9 4 -16 4 C-16 3.67 -16 3.34 -16 3 C-13.36 3 -10.72 3 -8 3 C-8 2.34 -8 1.68 -8 1 C-4.93251126 -0.86240388 -3.40254489 -1.2151946 0 0 Z " fill="#0A7BD8" transform="translate(176,230)"/>
<path d="M0 0 C1.44197868 2.88395737 1.58833581 5.82430479 2 9 C-0.75924185 10.80411967 -1.88972103 11.0127245 -5.25 10.625 C-6.61125 10.315625 -6.61125 10.315625 -8 10 C-8 9.34 -8 8.68 -8 8 C-6.35 8 -4.7 8 -3 8 C-2.690625 6.865625 -2.38125 5.73125 -2.0625 4.5625 C-1 1 -1 1 0 0 Z " fill="#303B48" transform="translate(365,209)"/>
<path d="M0 0 C0.99 0.33 1.98 0.66 3 1 C3.33 2.98 3.66 4.96 4 7 C2.02 7.99 2.02 7.99 0 9 C0 7.68 0 6.36 0 5 C-0.99 5.66 -1.98 6.32 -3 7 C-3.33 5.35 -3.66 3.7 -4 2 C-3.01 2.33 -2.02 2.66 -1 3 C-0.67 2.01 -0.34 1.02 0 0 Z " fill="#116DF9" transform="translate(562,199)"/>
<path d="M0 0 C0.66 0.33 1.32 0.66 2 1 C2 1.99 2 2.98 2 4 C-2.95 4 -7.9 4 -13 4 C-13.33 3.34 -13.66 2.68 -14 2 C-9.38 2 -4.76 2 0 2 C0 1.34 0 0.68 0 0 Z " fill="#4072D6" transform="translate(574,215)"/>
<path d="M0 0 C-1.14430177 3.87302138 -2.23320098 7.00263439 -5 10 C-5.66 10 -6.32 10 -7 10 C-7.3327958 6.33924624 -7.46170299 4.60499012 -5.1875 1.625 C-3 0 -3 0 0 0 Z " fill="#47A5EA" transform="translate(243,210)"/>
<path d="M0 0 C0.33 0 0.66 0 1 0 C1.21299999 3.12399989 1.30420188 5.36475491 -0.0625 8.21875 C-2 10 -2 10 -5.35546875 10.171875 C-6.62003906 10.03265625 -7.88460937 9.8934375 -9.1875 9.75 C-10.45980469 9.62109375 -11.73210938 9.4921875 -13.04296875 9.359375 C-14.50669922 9.18148437 -14.50669922 9.18148437 -16 9 C-16 8.67 -16 8.34 -16 8 C-9.07 7.01 -9.07 7.01 -2 6 C-1.34 4.02 -0.68 2.04 0 0 Z " fill="#378FE7" transform="translate(561,178)"/>
<path d="M0 0 C2.0625 2.3125 2.0625 2.3125 4 5 C3.15250816 7.54247553 2.37334617 9.71108972 1 12 C0.01 12.33 -0.98 12.66 -2 13 C-1.48041715 8.62065881 -0.94324258 4.31196609 0 0 Z " fill="#41ADF9" transform="translate(596,163)"/>
<path d="M0 0 C-0.3125 1.9375 -0.3125 1.9375 -1 4 C-1.99 4.33 -2.98 4.66 -4 5 C-4 6.98 -4 8.96 -4 11 C-4.99 11.495 -4.99 11.495 -6 12 C-6 10.68 -6 9.36 -6 8 C-7.32 7.67 -8.64 7.34 -10 7 C-3.18421053 0 -3.18421053 0 0 0 Z " fill="#46AFEE" transform="translate(484,163)"/>
<path d="M0 0 C0.33 0 0.66 0 1 0 C1.33 5.61 1.66 11.22 2 17 C1.34 17 0.68 17 0 17 C-1.03450549 13.89648352 -1.38321746 11.18976667 -1.6875 7.9375 C-1.79449219 6.87402344 -1.90148437 5.81054688 -2.01171875 4.71484375 C-2 2 -2 2 0 0 Z " fill="#208CEE" transform="translate(542,172)"/>
<path d="M0 0 C0.66 0.99 1.32 1.98 2 3 C1.01 4.485 1.01 4.485 0 6 C0.66 6.33 1.32 6.66 2 7 C0.49336217 10.01327566 -2.03166411 10.61056618 -5 12 C-4.01 9.03 -3.02 6.06 -2 3 C-1.34 3 -0.68 3 0 3 C0 2.01 0 1.02 0 0 Z " fill="#5B6473" transform="translate(332,166)"/>
<path d="M0 0 C2 3 2 3 1.625 5.6875 C1.41875 6.450625 1.2125 7.21375 1 8 C0.34 8 -0.32 8 -1 8 C-1.66 9.32 -2.32 10.64 -3 12 C-3.66 11.34 -4.32 10.68 -5 10 C-1.81818182 1.81818182 -1.81818182 1.81818182 0 0 Z " fill="#324250" transform="translate(451,168)"/>
<path d="M0 0 C0 0.99 0 1.98 0 3 C-1.6796875 4.60546875 -1.6796875 4.60546875 -3.875 6.1875 C-4.59429688 6.71730469 -5.31359375 7.24710938 -6.0546875 7.79296875 C-8 9 -8 9 -10 9 C-10 8.01 -10 7.02 -10 6 C-8.68 6 -7.36 6 -6 6 C-6 5.01 -6 4.02 -6 3 C-6.66 3 -7.32 3 -8 3 C-7.67 2.34 -7.34 1.68 -7 1 C-5.824375 1.309375 -5.824375 1.309375 -4.625 1.625 C-3.75875 1.74875 -2.8925 1.8725 -2 2 C-1.34 1.34 -0.68 0.68 0 0 Z " fill="#6195F0" transform="translate(521,208)"/>
<path d="M0 0 C1.98 0 3.96 0 6 0 C5.67 0.99 5.34 1.98 5 3 C4.01 3 3.02 3 2 3 C1.67 6.96 1.34 10.92 1 15 C0.67 15 0.34 15 0 15 C0 10.05 0 5.1 0 0 Z " fill="#1CA5FA" transform="translate(531,163)"/>
<path d="M0 0 C5.37721374 0.61453871 8.27073147 3.27073147 12 7 C10.35 7 8.7 7 7 7 C7 6.34 7 5.68 7 5 C5.5459375 4.5978125 5.5459375 4.5978125 4.0625 4.1875 C3.051875 3.795625 2.04125 3.40375 1 3 C0.67 2.01 0.34 1.02 0 0 Z " fill="#54AEE8" transform="translate(223,149)"/>
<path d="M0 0 C0.33 1.32 0.66 2.64 1 4 C2.65 4.33 4.3 4.66 6 5 C6 5.99 6 6.98 6 8 C1.56541027 6.6062718 -0.87378374 4.39417765 -4 1 C-2.68 0.67 -1.36 0.34 0 0 Z " fill="#87CEF3" transform="translate(73,224)"/>
<path d="M0 0 C0.66 0 1.32 0 2 0 C3.88695626 4.28853694 5.58192622 8.52761347 7 13 C1.26598465 7.56777494 1.26598465 7.56777494 0 4 C0 2.68 0 1.36 0 0 Z " fill="#9FD9F2" transform="translate(62,212)"/>
<path d="M0 0 C3 1 3 1 4.1875 3.375 C5 6 5 6 5 9 C4.34 9 3.68 9 3 9 C3 8.34 3 7.68 3 7 C0.525 6.01 0.525 6.01 -2 5 C-1.34 4.67 -0.68 4.34 0 4 C0 2.68 0 1.36 0 0 Z " fill="#586A87" transform="translate(460,194)"/>
<path d="M0 0 C-0.33 0.99 -0.66 1.98 -1 3 C-1.66 3 -2.32 3 -3 3 C-3 3.66 -3 4.32 -3 5 C-4.32 4.67 -5.64 4.34 -7 4 C-6.625 2.0625 -6.625 2.0625 -6 0 C-3.50907189 -1.24546405 -2.58919267 -0.7767578 0 0 Z " fill="#4C5865" transform="translate(407,198)"/>
<path d="M0 0 C0.99 0 1.98 0 3 0 C3 0.66 3 1.32 3 2 C2.34 2 1.68 2 1 2 C1.185625 2.70125 1.37125 3.4025 1.5625 4.125 C2.05156976 7.33888698 1.66231558 9.83560336 1 13 C-1.70238949 8.94641576 -1.22937614 6.81689896 -1 2 C-0.67 1.34 -0.34 0.68 0 0 Z " fill="#3B424C" transform="translate(297,161)"/>
<path d="M0 0 C3.375 -0.125 3.375 -0.125 7 0 C7.66 0.66 8.32 1.32 9 2 C8.01 2 7.02 2 6 2 C5.67 2.99 5.34 3.98 5 5 C4.34 5 3.68 5 3 5 C3 4.34 3 3.68 3 3 C2.01 2.67 1.02 2.34 0 2 C0 1.34 0 0.68 0 0 Z " fill="#76808B" transform="translate(339,160)"/>
<path d="M0 0 C0.66 0 1.32 0 2 0 C2.67408308 1.26691507 3.33900497 2.53870749 4 3.8125 C4.556875 4.87404297 4.556875 4.87404297 5.125 5.95703125 C6 8 6 8 6 11 C5.34 11 4.68 11 4 11 C2 8 2 8 2 4 C1.34 4 0.68 4 0 4 C0 2.68 0 1.36 0 0 Z " fill="#6AA1F0" transform="translate(563,196)"/>
<path d="M0 0 C0 1.98 0 3.96 0 6 C-0.66 6 -1.32 6 -2 6 C-2.33 6.99 -2.66 7.98 -3 9 C-3.33 8.34 -3.66 7.68 -4 7 C-3.67 6.01 -3.34 5.02 -3 4 C-3.66 3.67 -4.32 3.34 -5 3 C-2.25 0 -2.25 0 0 0 Z " fill="#5A6370" transform="translate(342,177)"/>
<path d="M0 0 C6.625 -0.25 6.625 -0.25 10 2 C7.78023089 3.34771696 6.49852224 4.04398726 3.875 3.8125 C2 3 2 3 0 0 Z " fill="#53AEED" transform="translate(509,177)"/>
<path d="M0 0 C5.21979128 -0.1799928 9.07262981 0.02905192 14 2 C13.67 2.99 13.34 3.98 13 5 C11.783125 4.525625 10.56625 4.05125 9.3125 3.5625 C6.22731209 2.40075962 3.26878802 1.51074813 0 1 C0 0.67 0 0.34 0 0 Z " fill="#6BBDF1" transform="translate(496,172)"/>
<path d="M0 0 C0.33 0 0.66 0 1 0 C1.04898438 0.67546875 1.09796875 1.3509375 1.1484375 2.046875 C1.22320313 2.93890625 1.29796875 3.8309375 1.375 4.75 C1.44460938 5.63171875 1.51421875 6.5134375 1.5859375 7.421875 C1.99850055 9.99066382 2.71160957 11.75841015 4 14 C2.68 14.33 1.36 14.66 0 15 C0 10.05 0 5.1 0 0 Z " fill="#0D5FF6" transform="translate(629,202)"/>
<path d="M0 0 C1.12377697 3.30435084 0.89554742 5.0506862 -0.4375 8.25 C-0.72496094 8.95640625 -1.01242187 9.6628125 -1.30859375 10.390625 C-1.53675781 10.92171875 -1.76492188 11.4528125 -2 12 C-2.66 12 -3.32 12 -4 12 C-3.45660208 7.43545749 -2.20536179 4.0271824 0 0 Z " fill="#7BC0EF" transform="translate(473,171)"/>
<path d="M0 0 C0.66 0.33 1.32 0.66 2 1 C1.34 2.32 0.68 3.64 0 5 C-0.66 5 -1.32 5 -2 5 C-2.33 6.32 -2.66 7.64 -3 9 C-4.98 9.33 -6.96 9.66 -9 10 C-8.2575 9.46375 -7.515 8.9275 -6.75 8.375 C-3.82325039 5.84735261 -2.01378661 3.28172632 0 0 Z " fill="#2AADF6" transform="translate(118,220)"/>
<path d="M0 0 C0.33 0.66 0.66 1.32 1 2 C1.66 2.33 2.32 2.66 3 3 C2.34 3.66 1.68 4.32 1 5 C0.28072705 7.31765729 -0.3909893 9.65095874 -1 12 C-1.66 11.67 -2.32 11.34 -3 11 C-2.32829194 7.1936543 -1.27253436 3.64793184 0 0 Z " fill="#686E78" transform="translate(397,179)"/>
<path d="M0 0 C1.10336858 3.31010574 1.13531135 5.6813976 0 9 C-2.05078125 10.1484375 -2.05078125 10.1484375 -4 11 C-3.52269162 9.5410574 -3.04308958 8.08286504 -2.5625 6.625 C-2.29566406 5.81289062 -2.02882813 5.00078125 -1.75390625 4.1640625 C-1 2 -1 2 0 0 Z " fill="#56ACED" transform="translate(622,171)"/>
<path d="M0 0 C0.78375 0.04125 1.5675 0.0825 2.375 0.125 C3.035 1.775 3.695 3.425 4.375 5.125 C2.725 5.455 1.075 5.785 -0.625 6.125 C-0.295 5.135 0.035 4.145 0.375 3.125 C-1.275 2.795 -2.925 2.465 -4.625 2.125 C-2.625 0.125 -2.625 0.125 0 0 Z " fill="#3CB2F4" transform="translate(488.625,160.875)"/>
<path d="M0 0 C0.66 0 1.32 0 2 0 C4 2 4 2 5 4 C4.39421747 6.01927511 3.73080266 8.02253397 3 10 C2.67 10 2.34 10 2 10 C1.34 6.7 0.68 3.4 0 0 Z " fill="#0E98F0" transform="translate(210,150)"/>
<path d="M0 0 C4 6 4 6 4 9 C3.01 9 2.02 9 1 9 C1 7.68 1 6.36 1 5 C0.34 5 -0.32 5 -1 5 C-0.67 3.35 -0.34 1.7 0 0 Z " fill="#66AEEE" transform="translate(606,181)"/>
<path d="M0 0 C0.99 0.33 1.98 0.66 3 1 C3 2.65 3 4.3 3 6 C1.35 6.33 -0.3 6.66 -2 7 C-2 5.68 -2 4.36 -2 3 C-1.34 2.67 -0.68 2.34 0 2 C0 1.34 0 0.68 0 0 Z " fill="#535E69" transform="translate(348,163)"/>
<path d="M0 0 C2.1640625 -0.29296875 2.1640625 -0.29296875 4.625 -0.1875 C5.44226563 -0.16042969 6.25953125 -0.13335937 7.1015625 -0.10546875 C8.04128906 -0.05326172 8.04128906 -0.05326172 9 0 C6.90868131 1.08731034 5.11946484 1.97269375 2.8125 2.5 C2.214375 2.665 1.61625 2.83 1 3 C0.67 3.66 0.34 4.32 0 5 C-0.66 4.34 -1.32 3.68 -2 3 C-1.34 2.01 -0.68 1.02 0 0 Z " fill="#818997" transform="translate(366,160)"/>
<path d="M0 0 C1.61949011 2.57213134 2.04408751 3.67669159 1.625 6.75 C1.41875 7.4925 1.2125 8.235 1 9 C-0.32 9.33 -1.64 9.66 -3 10 C-3.33 9.34 -3.66 8.68 -4 8 C-3.01 8 -2.02 8 -1 8 C-0.67 5.36 -0.34 2.72 0 0 Z " fill="#6F747B" transform="translate(368,210)"/>
<path d="M0 0 C2 1 2 1 2.6875 2.75 C3.05449975 5.39239823 2.64331769 7.42672922 2 10 C1.87625 9.360625 1.7525 8.72125 1.625 8.0625 C1.41875 7.381875 1.2125 6.70125 1 6 C0.34 5.67 -0.32 5.34 -1 5 C-1.66666667 3.66666667 -2.33333333 2.33333333 -3 1 C-2.01 0.67 -1.02 0.34 0 0 Z " fill="#626A74" transform="translate(379,202)"/>
<path d="M0 0 C2.475 0.495 2.475 0.495 5 1 C5 3.64 5 6.28 5 9 C3.02 9.99 3.02 9.99 1 11 C1.66 10.01 2.32 9.02 3 8 C2.65554402 3.49149818 2.65554402 3.49149818 0 0 Z " fill="#82C7F2" transform="translate(556,174)"/>
<path d="M0 0 C0.66 0.33 1.32 0.66 2 1 C1.34 4.3 0.68 7.6 0 11 C-0.99 11.33 -1.98 11.66 -3 12 C-2.01 8.04 -1.02 4.08 0 0 Z " fill="#2294EF" transform="translate(474,171)"/>
<path d="M0 0 C1.5 1.1875 1.5 1.1875 3 3 C3.1875 5.6875 3.1875 5.6875 3 8 C2.01 8 1.02 8 0 8 C-0.33 8.66 -0.66 9.32 -1 10 C-1.33 9.01 -1.66 8.02 -2 7 C-1.34 6.67 -0.68 6.34 0 6 C0 4.02 0 2.04 0 0 Z " fill="#3A9FE9" transform="translate(242,167)"/>
<path d="M0 0 C2.31 0.33 4.62 0.66 7 1 C7.33 2.32 7.66 3.64 8 5 C7.67 4.34 7.34 3.68 7 3 C6.01 3 5.02 3 4 3 C4 3.66 4 4.32 4 5 C3.34 5 2.68 5 2 5 C2 3.68 2 2.36 2 1 C1.34 0.67 0.68 0.34 0 0 Z " fill="#79818B" transform="translate(441,160)"/>
<path d="M0 0 C-0.33 0.99 -0.66 1.98 -1 3 C-4.63 3 -8.26 3 -12 3 C-12.33 2.34 -12.66 1.68 -13 1 C-12.06027344 1.01740234 -12.06027344 1.01740234 -11.1015625 1.03515625 C-9.87566406 1.04869141 -9.87566406 1.04869141 -8.625 1.0625 C-7.40683594 1.07990234 -7.40683594 1.07990234 -6.1640625 1.09765625 C-3.79725153 0.9908507 -2.35519775 0 0 0 Z " fill="#60B3EA" transform="translate(100,233)"/>
<path d="M0 0 C0.66 0.33 1.32 0.66 2 1 C-0.97180943 2.89865603 -3.51460083 4.35455571 -7 5 C-7.33 4.01 -7.66 3.02 -8 2 C-6.865625 1.855625 -5.73125 1.71125 -4.5625 1.5625 C-1.19222799 1.38828522 -1.19222799 1.38828522 0 0 Z " fill="#5CB3ED" transform="translate(228,226)"/>
<path d="M0 0 C2.125 0.9375 2.125 0.9375 4 2 C3.34 3.65 2.68 5.3 2 7 C-0.2477975 4.94766315 -1.0022242 3.99332739 -2 1 C-1.34 0.67 -0.68 0.34 0 0 Z " fill="#565F75" transform="translate(372,185)"/>
<path d="M0 0 C2 3 2 3 2 7 C2.66 7.33 3.32 7.66 4 8 C2.35 8 0.7 8 -1 8 C-1.93065133 5.39417629 -2.14917407 4.35801776 -1.0625 1.75 C-0.711875 1.1725 -0.36125 0.595 0 0 Z " fill="#505C6B" transform="translate(428,174)"/>
<path d="M0 0 C-5.17578125 3.22265625 -5.17578125 3.22265625 -7 4 C-7.99 3.67 -8.98 3.34 -10 3 C-9 1 -9 1 -6.6875 -0.1875 C-3.88010429 -1.03624754 -2.698065 -0.99928333 0 0 Z " fill="#1AA3FA" transform="translate(178,227)"/>
<path d="M0 0 C0.33 0 0.66 0 1 0 C1 1.98 1 3.96 1 6 C1.66 6 2.32 6 3 6 C2.67 7.32 2.34 8.64 2 10 C-1.07692308 5.69230769 -1.07692308 5.69230769 -0.6875 2.1875 C-0.460625 1.465625 -0.23375 0.74375 0 0 Z " fill="#5894EB" transform="translate(472,198)"/>
<path d="M0 0 C1.32 0 2.64 0 4 0 C4.33 2.31 4.66 4.62 5 7 C3.5 5.625 3.5 5.625 2 4 C2 3.34 2 2.68 2 2 C1.01 1.67 0.02 1.34 -1 1 C-0.67 0.67 -0.34 0.34 0 0 Z " fill="#5594EF" transform="translate(547,197)"/>
<path d="M0 0 C1.98 0.99 1.98 0.99 4 2 C4 4.64 4 7.28 4 10 C1.81024227 6.71536341 1.00193437 3.79303725 0 0 Z " fill="#2AB0F7" transform="translate(120,184)"/>
<path d="M0 0 C0.99 0.66 1.98 1.32 3 2 C2.34 2 1.68 2 1 2 C0.9175 2.78375 0.835 3.5675 0.75 4.375 C0 7 0 7 -2.0625 8.3125 C-3.0215625 8.6528125 -3.0215625 8.6528125 -4 9 C-3.71125 8.443125 -3.4225 7.88625 -3.125 7.3125 C-1.9586747 4.91505355 -0.9660119 2.48403061 0 0 Z " fill="#58B4EE" transform="translate(627,162)"/>
<path d="M0 0 C0.5775 0.78375 1.155 1.5675 1.75 2.375 C3.82897637 4.80047244 5.09040333 5.85694417 8 7 C5.69 7 3.38 7 1 7 C0.67 4.69 0.34 2.38 0 0 Z " fill="#69C6F5" transform="translate(205,138)"/>
<path d="M0 0 C1.32 0.66 2.64 1.32 4 2 C3.34 3.32 2.68 4.64 2 6 C0.68 6 -0.64 6 -2 6 C-2 5.34 -2 4.68 -2 4 C-1.34 4 -0.68 4 0 4 C0 2.68 0 1.36 0 0 Z " fill="#6A717B" transform="translate(325,213)"/>
<path d="M0 0 C0 3 0 3 -1 5 C-4.3 4.67 -7.6 4.34 -11 4 C-11 3.67 -11 3.34 -11 3 C-10.28972656 2.86722656 -9.57945312 2.73445312 -8.84765625 2.59765625 C-7.92855469 2.42105469 -7.00945313 2.24445313 -6.0625 2.0625 C-4.68771484 1.80146484 -4.68771484 1.80146484 -3.28515625 1.53515625 C-1.04710156 1.22285012 -1.04710156 1.22285012 0 0 Z " fill="#548BE6" transform="translate(618,206)"/>
<path d="M0 0 C0.66 0 1.32 0 2 0 C3.625 2.5 3.625 2.5 5 5 C4.01 6.485 4.01 6.485 3 8 C0 3.375 0 3.375 0 0 Z " fill="#69A1EE" transform="translate(601,199)"/>
<path d="M0 0 C1.98 0.99 1.98 0.99 4 2 C3.67 3.65 3.34 5.3 3 7 C2.01 6.67 1.02 6.34 0 6 C0 4.02 0 2.04 0 0 Z " fill="#4B5660" transform="translate(296,198)"/>
<path d="M0 0 C0.33 0 0.66 0 1 0 C1.66 3.63 2.32 7.26 3 11 C2.01 11 1.02 11 0 11 C0 7.37 0 3.74 0 0 Z " fill="#217BE7" transform="translate(470,187)"/>
<path d="M0 0 C0.66 0 1.32 0 2 0 C2.33 1.65 2.66 3.3 3 5 C1.68 5.33 0.36 5.66 -1 6 C-1.33 5.01 -1.66 4.02 -2 3 C-1.34 2.01 -0.68 1.02 0 0 Z " fill="#313A46" transform="translate(405,192)"/>
<path d="M0 0 C1.65 0 3.3 0 5 0 C4.67 1.32 4.34 2.64 4 4 C2.35 3.67 0.7 3.34 -1 3 C-0.67 2.01 -0.34 1.02 0 0 Z " fill="#12A6FE" transform="translate(557,164)"/>
<path d="M0 0 C0.99 0.33 1.98 0.66 3 1 C2.67 2.32 2.34 3.64 2 5 C0.02 5 -1.96 5 -4 5 C-3.67 4.34 -3.34 3.68 -3 3 C-2.01 3 -1.02 3 0 3 C0 2.01 0 1.02 0 0 Z " fill="#323D4B" transform="translate(321,214)"/>
<path d="M0 0 C0.99 0.99 1.98 1.98 3 3 C2.67 3.66 2.34 4.32 2 5 C-0.0625 5.625 -0.0625 5.625 -2 6 C-1.34 4.02 -0.68 2.04 0 0 Z M-4 6 C-3.01 6.495 -3.01 6.495 -2 7 C-2.99 7.495 -2.99 7.495 -4 8 C-4 7.34 -4 6.68 -4 6 Z " fill="#303D4C" transform="translate(318,205)"/>
<path d="M0 0 C1.32 0.33 2.64 0.66 4 1 C2.515 4.465 2.515 4.465 1 8 C0.67 8 0.34 8 0 8 C0 5.36 0 2.72 0 0 Z " fill="#5292EC" transform="translate(619,198)"/>
<path d="M0 0 C2.97 1.98 2.97 1.98 6 4 C5.67 4.66 5.34 5.32 5 6 C4.34 6 3.68 6 3 6 C2.67 5.34 2.34 4.68 2 4 C1.01 3.34 0.02 2.68 -1 2 C-0.67 1.34 -0.34 0.68 0 0 Z " fill="#67BDF3" transform="translate(566,164)"/>
</svg>
