<?xml version="1.0" standalone="no"?>
<!DOCTYPE svg PUBLIC "-//W3C//DTD SVG 20010904//EN"
 "http://www.w3.org/TR/2001/REC-SVG-20010904/DTD/svg10.dtd">
<svg version="1.0" xmlns="http://www.w3.org/2000/svg"
 width="1150.000000pt" height="301.000000pt" viewBox="0 0 1150.000000 301.000000"
 preserveAspectRatio="xMidYMid meet">

<g transform="translate(0.000000,301.000000) scale(0.100000,-0.100000)"
fill="#000000" stroke="none">
<path d="M3260 2050 c85 -166 123 -337 124 -550 1 -167 -13 -259 -60 -400 -99
-295 -328 -560 -607 -702 -89 -44 -271 -108 -310 -108 -14 0 -28 -3 -30 -7 -3
-5 79 -7 181 -6 103 2 329 4 502 6 263 3 325 6 375 21 150 43 305 147 410 273
62 75 143 233 169 328 53 201 33 445 -52 635 -116 258 -354 463 -617 530 -109
28 -109 28 -85 -20z"/>
<path d="M8385 1746 c-163 -39 -303 -171 -357 -336 -29 -90 -36 -272 -14 -361
26 -99 65 -168 137 -242 92 -92 189 -139 303 -145 158 -8 268 31 361 129 52
54 93 127 109 192 l6 27 -109 0 -108 0 -6 -30 c-8 -40 -77 -106 -124 -119 -50
-14 -136 -14 -185 1 -59 17 -120 77 -154 150 -27 59 -29 71 -29 188 1 105 4
134 23 180 29 73 69 120 133 155 128 69 305 17 334 -98 l7 -27 100 0 100 0 -7
33 c-17 85 -39 130 -91 186 -101 109 -271 156 -429 117z"/>
<path d="M5000 1344 c0 -452 -1 -458 -65 -488 -48 -23 -116 -21 -150 6 -30 24
-55 74 -55 113 l0 25 -105 0 c-118 0 -111 6 -94 -85 14 -78 48 -143 98 -188
56 -51 102 -68 199 -74 165 -11 278 46 342 171 l35 69 3 428 3 429 -105 0
-106 0 0 -406z"/>
<path d="M5707 1743 c-2 -4 -12 -33 -22 -63 -10 -30 -96 -270 -191 -534 -96
-263 -174 -480 -174 -482 0 -2 48 -4 108 -4 l107 0 45 130 44 130 186 0 186 0
40 -122 40 -123 112 -5 c108 -5 112 -4 106 15 -4 11 -93 254 -198 540 l-191
520 -97 3 c-53 1 -98 -1 -101 -5z m166 -465 c32 -92 57 -169 57 -171 0 -3 -55
-3 -122 -1 -93 3 -122 7 -120 16 15 60 117 337 122 331 4 -5 32 -83 63 -175z"/>
<path d="M6196 1728 c3 -13 26 -77 50 -143 24 -66 108 -298 187 -516 l142
-396 109 -7 c60 -4 113 -3 117 1 7 7 91 245 234 663 31 91 76 223 100 293 l45
128 -107 -3 -106 -3 -18 -55 c-10 -30 -71 -221 -135 -423 -65 -202 -121 -362
-124 -355 -4 7 -69 199 -145 426 l-139 412 -108 0 c-109 0 -109 0 -102 -22z"/>
<path d="M7407 1708 c-9 -24 -68 -187 -131 -363 -63 -176 -144 -400 -179 -498
l-65 -178 111 3 111 3 40 123 41 122 184 -2 184 -3 43 -120 42 -120 111 -3
111 -3 -18 48 c-10 26 -99 270 -198 540 l-179 493 -96 0 -96 0 -16 -42z m176
-421 c31 -95 57 -175 57 -178 0 -6 -238 -3 -242 3 -4 5 117 348 122 348 3 0
31 -78 63 -173z"/>
<path d="M9070 1211 l0 -541 105 0 105 0 0 200 0 200 79 0 78 0 98 -200 99
-200 113 0 113 0 -108 216 -107 216 25 16 c14 9 48 39 77 68 41 42 56 66 72
119 25 80 26 121 6 200 -19 70 -63 131 -126 175 -82 56 -120 63 -386 68 l-243
4 0 -541z m476 333 c74 -37 102 -115 70 -199 -28 -73 -66 -89 -213 -94 l-123
-3 0 162 0 163 114 -5 c84 -4 124 -10 152 -24z"/>
<path d="M10020 1210 l0 -540 101 0 101 0 -3 328 -4 329 45 -76 c25 -42 90
-154 145 -248 l100 -173 71 0 c67 0 71 1 83 26 15 33 250 446 260 457 4 4 6
-139 4 -318 l-3 -325 105 0 105 0 0 540 0 541 -92 -3 -93 -3 -38 -70 c-21 -38
-104 -193 -184 -344 -123 -230 -148 -270 -156 -255 -6 11 -91 165 -188 344
l-178 325 -90 3 -91 3 0 -541z"/>
</g>
</svg>
