<?xml version="1.0" encoding="UTF-8"?>
<!DOCTYPE svg PUBLIC "-//W3C//DTD SVG 1.1//EN" "http://www.w3.org/Graphics/SVG/1.1/DTD/svg11.dtd">
<svg xmlns="http://www.w3.org/2000/svg" version="1.1" width="300px" height="79px" style="shape-rendering:geometricPrecision; text-rendering:geometricPrecision; image-rendering:optimizeQuality; fill-rule:evenodd; clip-rule:evenodd" xmlns:xlink="http://www.w3.org/1999/xlink">
<g><path style="opacity:1" fill="#08acf8" d="M 84.5,23.5 C 92.4644,47.3656 84.7978,63.3656 61.5,71.5C 52.0144,72.4938 42.3478,72.8271 32.5,72.5C 34.631,71.6862 36.9644,71.1862 39.5,71C 36.8333,70.6667 34.1667,70.3333 31.5,70C 43.6944,59.1613 43.3611,48.8279 30.5,39C 28.4144,38.6847 26.4144,38.1847 24.5,37.5C 27.5087,15.9882 39.842,5.48821 61.5,6C 72.1499,7.98366 79.8166,13.817 84.5,23.5 Z"/></g>
<g><path style="opacity:0.93" fill="#202020" d="M 235.5,32.5 C 240.844,32.334 246.177,32.5006 251.5,33C 256.155,35.8966 257.655,40.0633 256,45.5C 254.833,47.3333 253.333,48.8333 251.5,50C 253.5,53.6667 255.5,57.3333 257.5,61C 255.167,61.6667 252.833,61.6667 250.5,61C 248.706,57.9123 247.039,54.7456 245.5,51.5C 244.675,50.6143 243.675,50.281 242.5,50.5C 242.665,53.8499 242.498,57.1832 242,60.5C 239.959,61.4231 237.792,61.7564 235.5,61.5C 235.5,51.8333 235.5,42.1667 235.5,32.5 Z M 242.5,37.5 C 246.098,37.1346 248.765,38.4679 250.5,41.5C 248.765,44.5321 246.098,45.8654 242.5,45.5C 242.5,42.8333 242.5,40.1667 242.5,37.5 Z"/></g>
<g><path style="opacity:1" fill="#0c78ae" d="M 84.5,23.5 C 97.6554,26.2732 104.655,34.4399 105.5,48C 105.208,59.2751 99.8746,66.9418 89.5,71C 80.1726,71.4998 70.8393,71.6665 61.5,71.5C 84.7978,63.3656 92.4644,47.3656 84.5,23.5 Z"/></g>
<g><path style="opacity:0.899" fill="#202020" d="M 218.5,31.5 C 225.532,31.0064 230.199,34.0064 232.5,40.5C 231.829,41.9458 230.662,42.6125 229,42.5C 226.621,40.4701 223.954,38.8034 221,37.5C 216.239,38.8476 214.072,42.0143 214.5,47C 214.332,54.3421 217.665,56.8421 224.5,54.5C 226.425,51.828 229.092,50.828 232.5,51.5C 232.245,56.1709 229.911,59.3375 225.5,61C 211.91,62.3729 206.077,56.2062 208,42.5C 209.684,36.9845 213.184,33.3178 218.5,31.5 Z"/></g>
<g><path style="opacity:1" fill="#3dbefa" d="M 24.5,37.5 C 26.4144,38.1847 28.4144,38.6847 30.5,39C 43.3611,48.8279 43.6944,59.1613 31.5,70C 34.1667,70.3333 36.8333,70.6667 39.5,71C 36.9644,71.1862 34.631,71.6862 32.5,72.5C 13.3107,72.7208 6.14399,63.7208 11,45.5C 14.2106,40.6452 18.7106,37.9785 24.5,37.5 Z"/></g>
<g><path style="opacity:0.946" fill="#212121" d="M 147.5,32.5 C 149.833,32.5 152.167,32.5 154.5,32.5C 157.255,42.0166 160.589,51.3499 164.5,60.5C 159.396,62.5242 156.396,60.8576 155.5,55.5C 149.784,53.2197 146.118,54.8864 144.5,60.5C 142.235,61.6474 139.902,61.8141 137.5,61C 141.328,51.6816 144.662,42.1816 147.5,32.5 Z M 150.5,41.5 C 151.578,43.5394 152.578,45.706 153.5,48C 151.833,48.6667 150.167,48.6667 148.5,48C 149.669,45.9935 150.335,43.8268 150.5,41.5 Z"/></g>
<g><path style="opacity:0.914" fill="#212121" d="M 260.5,32.5 C 262.604,32.2011 264.604,32.5344 266.5,33.5C 269.263,38.7015 272.263,43.7015 275.5,48.5C 278.333,43.5 281.167,38.5 284,33.5C 286.041,32.5769 288.208,32.2436 290.5,32.5C 290.5,42.1667 290.5,51.8333 290.5,61.5C 288.167,61.5 285.833,61.5 283.5,61.5C 283.666,56.8215 283.499,52.1548 283,47.5C 281.08,50.3388 279.413,53.3388 278,56.5C 275.733,57.9348 273.733,57.6015 272,55.5C 270.587,52.3388 268.92,49.3388 267,46.5C 266.501,51.4889 266.334,56.4889 266.5,61.5C 264.5,61.5 262.5,61.5 260.5,61.5C 260.5,51.8333 260.5,42.1667 260.5,32.5 Z"/></g>
<g><path style="opacity:0.912" fill="#202020" d="M 160.5,32.5 C 162.833,32.5 165.167,32.5 167.5,32.5C 169.361,39.5834 171.528,46.5834 174,53.5C 176.269,46.8589 178.436,40.1922 180.5,33.5C 182.765,32.3526 185.098,32.1859 187.5,33C 184.335,41.8277 181.168,50.6611 178,59.5C 175.333,62.1667 172.667,62.1667 170,59.5C 166.727,50.5143 163.561,41.5143 160.5,32.5 Z"/></g>
<g><path style="opacity:0.934" fill="#212121" d="M 192.5,32.5 C 194.792,32.2436 196.959,32.5769 199,33.5C 202.474,42.7569 205.641,52.0903 208.5,61.5C 202.732,62.733 200.066,60.3997 200.5,54.5C 197.482,54.3354 194.482,54.502 191.5,55C 190.331,57.0065 189.665,59.1732 189.5,61.5C 187.076,61.8076 184.743,61.4742 182.5,60.5C 186.038,51.2191 189.371,41.8858 192.5,32.5 Z M 195.5,42.5 C 196.738,44.2143 197.405,46.2143 197.5,48.5C 196.022,48.762 194.689,48.4287 193.5,47.5C 194.174,45.8045 194.841,44.1379 195.5,42.5 Z"/></g>
<g><path style="opacity:0.927" fill="#212121" d="M 129.5,32.5 C 131.5,32.5 133.5,32.5 135.5,32.5C 135.941,41.2756 135.441,49.9422 134,58.5C 133.167,59.3333 132.333,60.1667 131.5,61C 122.497,63.843 117.497,60.6764 116.5,51.5C 118.833,51.5 121.167,51.5 123.5,51.5C 123.701,55.35 125.534,56.35 129,54.5C 129.5,47.1742 129.666,39.8409 129.5,32.5 Z"/></g>
</svg>
