<?xml version="1.0" encoding="UTF-8"?>
<svg version="1.1" xmlns="http://www.w3.org/2000/svg" width="678" height="368">
<path d="M0 0 C1.09892578 -0.02900391 2.19785156 -0.05800781 3.33007812 -0.08789062 C10.4991549 -0.14346486 15.53316909 0.89242639 21.8125 4.3125 C22.70839844 4.69792969 23.60429687 5.08335938 24.52734375 5.48046875 C32.91496556 9.32786645 40.35257895 14.60304356 43.8125 23.3125 C44.8025 23.6425 45.7925 23.9725 46.8125 24.3125 C49.8125 29.53472222 49.8125 29.53472222 49.8125 32.3125 C51.00875 32.250625 52.205 32.18875 53.4375 32.125 C57.64531301 32.1397384 60.14939962 33.14454263 63.8125 35.3125 C64.50214844 35.62960938 65.19179687 35.94671875 65.90234375 36.2734375 C75.68180668 40.98764014 82.76609199 51.02288083 86.90625 60.9296875 C90.05595995 72.68679447 89.15871086 85.36709768 83.29150391 96.03198242 C79.92763828 101.61640588 75.90928611 106.22963937 70.8125 110.3125 C70.20019531 110.82167969 69.58789062 111.33085937 68.95703125 111.85546875 C59.12952614 119.00084027 45.52992576 118.78372397 33.87695312 118.64868164 C31.6545908 118.62464405 29.43340072 118.6282061 27.2109375 118.63476562 C16.34114687 118.59237626 16.34114687 118.59237626 13.86444092 117.28115845 C11.48101317 116.15601522 10.30707953 116.19995414 7.72021484 116.53930664 C6.91677643 116.63392685 6.11333801 116.72854706 5.28555298 116.82603455 C3.98018082 116.99142479 3.98018082 116.99142479 2.6484375 117.16015625 C-8.67934901 118.40910081 -19.91961799 118.71827099 -31.31005859 118.73803711 C-34.58113688 118.75006855 -37.85040233 118.79960999 -41.12109375 118.84960938 C-55.07726855 118.95826289 -68.5771416 118.8851572 -79.4375 108.9375 C-86.0450429 101.43570318 -87.46564175 93.49961132 -87.34765625 83.65625 C-86.9874987 78.38565172 -86.13114493 73.7279674 -83.1875 69.3125 C-82.5275 69.3125 -81.8675 69.3125 -81.1875 69.3125 C-80.98125 68.755625 -80.775 68.19875 -80.5625 67.625 C-76.96775342 61.57928984 -69.73255865 57.49072871 -63.1875 55.3125 C-60.37890625 55.6796875 -60.37890625 55.6796875 -58.1875 56.3125 C-58.08953125 55.58546875 -57.9915625 54.8584375 -57.890625 54.109375 C-56.15820476 42.46034235 -53.22986553 32.81786901 -46.1875 23.3125 C-45.75179687 22.65121094 -45.31609375 21.98992187 -44.8671875 21.30859375 C-42.38074437 17.56329105 -40.14792554 15.40272459 -36.1875 13.3125 C-35.8575 12.6525 -35.5275 11.9925 -35.1875 11.3125 C-34.5275 11.3125 -33.8675 11.3125 -33.1875 11.3125 C-33.1875 10.6525 -33.1875 9.9925 -33.1875 9.3125 C-30.43956182 7.99552963 -27.68932815 6.68379631 -24.9375 5.375 C-24.16019531 5.00181641 -23.38289063 4.62863281 -22.58203125 4.24414062 C-21.82792969 3.88642578 -21.07382813 3.52871094 -20.296875 3.16015625 C-19.60561523 2.83023682 -18.91435547 2.50031738 -18.20214844 2.16040039 C-12.31685009 -0.3165314 -6.29222506 0.05439964 0 0 Z " fill="#153773" transform="translate(161.1875,114.6875)"/>
<path d="M0 0 C1.45880109 0.14107747 2.91703551 0.28802415 4.375 0.4375 C5.59316406 0.55931641 5.59316406 0.55931641 6.8359375 0.68359375 C9 1 9 1 11 2 C11 2.66 11 3.32 11 4 C12.65 4.33 14.3 4.66 16 5 C16 5.99 16 6.98 16 8 C16.99 7.67 17.98 7.34 19 7 C20.70884005 8.62339805 22.37446717 10.29319053 24 12 C24 12.66 24 13.32 24 14 C24.66 14 25.32 14 26 14 C26.495 15.98 26.495 15.98 27 18 C27.99 17.67 28.98 17.34 30 17 C37.13235324 26.98529453 37.65191105 38.07411391 36 50 C33.27742067 60.04220006 27.05801338 68.54500172 19 75 C18.38769531 75.50917969 17.77539062 76.01835937 17.14453125 76.54296875 C7.31702614 83.68834027 -6.28257424 83.47122397 -17.93554688 83.33618164 C-20.1579092 83.31214405 -22.37909928 83.3157061 -24.6015625 83.32226562 C-35.71049471 83.27894367 -35.71049471 83.27894367 -40 81 C-42.06278995 80.90465689 -42.06278995 80.90465689 -44.2109375 81.2421875 C-45.44396606 81.38756958 -45.44396606 81.38756958 -46.7019043 81.53588867 C-48.02508667 81.70374878 -48.02508667 81.70374878 -49.375 81.875 C-57.16553998 82.74182992 -64.84782342 83.20502636 -72.6875 83.1875 C-74.01177002 83.1882251 -74.01177002 83.1882251 -75.36279297 83.18896484 C-81.28850854 83.14086105 -87.11506036 82.68414884 -93 82 C-93 81.67 -93 81.34 -93 81 C-84.60294844 80.2875229 -76.3013544 79.94090132 -67.875 80 C-64.58329657 80.00804439 -61.29170357 80.00707741 -58 80 C-56.79988281 79.99742187 -55.59976563 79.99484375 -54.36328125 79.9921875 C-42.75348167 79.56378161 -32.03497273 75.06652056 -22.734375 68.19921875 C-21 67 -21 67 -18 66 C-17.505 64.515 -17.505 64.515 -17 63 C-16.01 62.34 -15.02 61.68 -14 61 C-13.67 60.01 -13.34 59.02 -13 58 C-12.01 58 -11.02 58 -10 58 C-8.27865384 54.82213017 -7.08563129 51.51557283 -5.8515625 48.125 C-5.02720689 46.06789241 -4.06084241 44.19352809 -3 42.25 C4.07104471 28.40707016 1.89312167 14.72240153 0 0 Z " fill="#0D131F" transform="translate(213,150)"/>
<path d="M0 0 C1.33417969 -0.00483398 1.33417969 -0.00483398 2.6953125 -0.00976562 C7.21708727 0.02735342 10.90150664 0.16932951 15 2.3125 C15 2.9725 15 3.6325 15 4.3125 C15.556875 4.580625 16.11375 4.84875 16.6875 5.125 C17.450625 5.516875 18.21375 5.90875 19 6.3125 C19.86625 6.725 20.7325 7.1375 21.625 7.5625 C24.65208055 9.7929804 25.12347684 11.72672344 26 15.3125 C26.66 15.3125 27.32 15.3125 28 15.3125 C31.22219843 23.77077088 31.43538792 33.91741296 28 42.3125 C24.56402542 48.48796783 20.89988724 53.06777157 14.6015625 56.375 C12.81669496 57.22412625 12.81669496 57.22412625 12 59.3125 C8.85449187 59.43042821 5.70956459 59.50031383 2.5625 59.5625 C1.24475586 59.61277344 1.24475586 59.61277344 -0.09960938 59.6640625 C-7.71012961 59.7763949 -13.41701575 58.0025114 -19.5234375 53.41796875 C-27.24247762 45.42208542 -29.29316641 37.75309775 -29.16015625 26.65625 C-28.7999987 21.38565172 -27.94364493 16.7279674 -25 12.3125 C-24.34 12.3125 -23.68 12.3125 -23 12.3125 C-22.79375 11.755625 -22.5875 11.19875 -22.375 10.625 C-20.50637468 7.48231195 -17.92924988 5.42182441 -15 3.3125 C-14.31550781 2.77367187 -13.63101563 2.23484375 -12.92578125 1.6796875 C-8.63367861 -0.32596794 -4.67641909 -0.08471774 0 0 Z " fill="#1369F6" transform="translate(103,171.6875)"/>
<path d="M0 0 C1.06992187 -0.04898438 2.13984375 -0.09796875 3.2421875 -0.1484375 C6.125 0.375 6.125 0.375 7.9140625 2.78125 C8.31367187 3.6371875 8.71328125 4.493125 9.125 5.375 C9.62 5.99375 10.115 6.6125 10.625 7.25 C12.20527767 9.4887267 13.13908039 11.76357742 14.1640625 14.29296875 C16.11427386 18.51842669 18.67086701 22.42773755 21.125 26.375 C24.6600062 22.32480232 26.93640002 18.11124063 29.25 13.3125 C29.77013672 12.25192383 29.77013672 12.25192383 30.30078125 11.16992188 C31.64000699 8.43759349 32.97262368 5.70692464 34.2421875 2.94140625 C35.125 1.375 35.125 1.375 37.125 0.375 C38.99879605 0.30466231 40.87501102 0.2906978 42.75 0.3125 C44.25433594 0.32603516 44.25433594 0.32603516 45.7890625 0.33984375 C46.55992187 0.35144531 47.33078125 0.36304688 48.125 0.375 C49.97910109 3.53034493 50.35583315 5.76295351 50.27612305 9.40307617 C50.25917892 10.40058395 50.2422348 11.39809174 50.22477722 12.42582703 C50.19571793 13.4957338 50.16665863 14.56564056 50.13671875 15.66796875 C50.11406448 16.76973953 50.09141022 17.87151031 50.06806946 19.00666809 C50.01814836 21.33259967 49.96318962 23.65842781 49.90356445 25.98413086 C49.81259113 29.55891922 49.73801633 33.13376856 49.66601562 36.70898438 C49.61554598 38.96616756 49.56414588 41.22333018 49.51171875 43.48046875 C49.48873215 44.55644821 49.46574554 45.63242767 49.44206238 46.74101257 C49.41566177 47.72906387 49.38926117 48.71711517 49.36206055 49.73510742 C49.34048386 50.60906662 49.31890717 51.48302582 49.29667664 52.38346863 C49.125 54.375 49.125 54.375 48.125 55.375 C46.12264659 55.33716483 44.121489 55.22024147 42.125 55.0625 C41.031875 54.98386719 39.93875 54.90523437 38.8125 54.82421875 C37.925625 54.67597656 37.03875 54.52773437 36.125 54.375 C34.97845518 52.08191037 34.92770883 50.57590344 34.80859375 48.0234375 C34.76669922 47.17265625 34.72480469 46.321875 34.68164062 45.4453125 C34.64232422 44.55585938 34.60300781 43.66640625 34.5625 42.75 C34.51931641 41.8528125 34.47613281 40.955625 34.43164062 40.03125 C34.32543285 37.81268761 34.22470041 35.59386435 34.125 33.375 C31.485 38.325 28.845 43.275 26.125 48.375 C23.155 48.375 20.185 48.375 17.125 48.375 C14.155 43.095 11.185 37.815 8.125 32.375 C8.07601562 33.86773437 8.02703125 35.36046875 7.9765625 36.8984375 C7.90154173 38.84897763 7.8259936 40.79949753 7.75 42.75 C7.70359375 44.22726563 7.70359375 44.22726563 7.65625 45.734375 C7.59824219 47.14589844 7.59824219 47.14589844 7.5390625 48.5859375 C7.5076416 49.45524902 7.4762207 50.32456055 7.44384766 51.22021484 C7.125 53.375 7.125 53.375 5.125 55.375 C2.3046875 55.3515625 2.3046875 55.3515625 -1 55 C-2.09570312 54.88914063 -3.19140625 54.77828125 -4.3203125 54.6640625 C-5.16335938 54.56867188 -6.00640625 54.47328125 -6.875 54.375 C-6.90026648 46.84530348 -6.91783141 39.3156178 -6.92993164 31.78588867 C-6.9349737 29.22208243 -6.94180714 26.65827909 -6.95043945 24.09448242 C-6.96251064 20.41844979 -6.96822942 16.74245502 -6.97265625 13.06640625 C-6.97781754 11.91225723 -6.98297882 10.75810822 -6.98829651 9.56898499 C-6.98837204 8.50796066 -6.98844757 7.44693634 -6.98852539 6.35375977 C-6.990746 5.41444107 -6.99296661 4.47512238 -6.99525452 3.50733948 C-6.75106995 -0.82251364 -3.70930247 0.11563773 0 0 Z " fill="#126BF6" transform="translate(564.875,161.625)"/>
<path d="M0 0 C1.2890625 -0.020625 2.578125 -0.04125 3.90625 -0.0625 C5.14890625 -0.06765625 6.3915625 -0.0728125 7.671875 -0.078125 C8.81237305 -0.0874707 9.95287109 -0.09681641 11.12792969 -0.10644531 C14.6095291 0.29104727 16.41364262 1.24475557 19.25 3.25 C20.11625 3.848125 20.9825 4.44625 21.875 5.0625 C25.16272891 8.09067136 26.92637665 10.86050705 27.53515625 15.35546875 C27.77234104 21.34696281 26.81144189 27.10918434 22.9375 31.859375 C21.76346481 33.0467515 20.51297285 34.15769915 19.25 35.25 C22.25064027 40.88098876 25.43786361 46.13084541 29.25 51.25 C28.59 52.57 27.93 53.89 27.25 55.25 C25.16587093 55.18976506 23.08255565 55.10091679 21 55 C19.83984375 54.95359375 18.6796875 54.9071875 17.484375 54.859375 C13.70026745 54.1464272 12.57794932 53.25449295 10.25 50.25 C9.08984375 48.25 9.08984375 48.25 8.1875 46.25 C6.79680403 43.29270975 5.24669879 40.84570842 3.25 38.25 C3.25 37.59 3.25 36.93 3.25 36.25 C1.765 36.745 1.765 36.745 0.25 37.25 C0.22421875 38.38179687 0.1984375 39.51359375 0.171875 40.6796875 C0.11560374 42.16149743 0.05825618 43.64326677 0 45.125 C-0.02126953 46.24455078 -0.02126953 46.24455078 -0.04296875 47.38671875 C-0.140625 49.5546875 -0.140625 49.5546875 -0.75 53.25 C-3.40698859 55.51642902 -6.03018155 55.49945124 -9.4375 55.4375 C-10.22511719 55.43105469 -11.01273438 55.42460937 -11.82421875 55.41796875 C-13.75 55.25 -13.75 55.25 -14.75 54.25 C-14.84868509 52.59808604 -14.87798837 50.94196783 -14.87939453 49.28710938 C-14.88254669 48.22931274 -14.88569885 47.17151611 -14.88894653 46.08166504 C-14.88591019 44.35514709 -14.88591019 44.35514709 -14.8828125 42.59375 C-14.88376923 41.42114624 -14.88472595 40.24854248 -14.88571167 39.04040527 C-14.8863937 36.55541938 -14.88453784 34.07043171 -14.88037109 31.58544922 C-14.87502319 27.76656113 -14.88031536 23.94779065 -14.88671875 20.12890625 C-14.88605797 17.72135391 -14.88477682 15.31380163 -14.8828125 12.90625 C-14.88483673 11.75523804 -14.88686096 10.60422607 -14.88894653 9.41833496 C-14.88579437 8.36053833 -14.88264221 7.3027417 -14.87939453 6.21289062 C-14.87859894 5.27658813 -14.87780334 4.34028564 -14.87698364 3.37561035 C-14.53401104 -2.3654922 -4.28657299 0.01694298 0 0 Z M-0.75 14.25 C-0.75 17.55 -0.75 20.85 -0.75 24.25 C5.94207708 24.84885364 5.94207708 24.84885364 11.9375 22.5625 C13.48727646 20.31174731 13.48727646 20.31174731 13.125 17.625 C12.38532087 15.10594875 12.38532087 15.10594875 10.25 13.25 C8.10856259 12.96937674 8.10856259 12.96937674 5.75 13.0625 C4.9559375 13.06894531 4.161875 13.07539063 3.34375 13.08203125 C1.19163609 13.12324164 1.19163609 13.12324164 -0.75 14.25 Z " fill="#0F60F5" transform="translate(524.75,161.75)"/>
<path d="M0 0 C3.54806204 2.95564515 6.72218706 5.70783243 7.58984375 10.41796875 C7.29122795 12.09120439 6.96176265 13.75948594 6.58984375 15.41796875 C2.9351889 16.35053585 -0.64164988 17.15769781 -4.41015625 17.41796875 C-7.09765625 15.66796875 -7.09765625 15.66796875 -8.41015625 13.41796875 C-8.41015625 12.75796875 -8.41015625 12.09796875 -8.41015625 11.41796875 C-13.55423773 9.97762594 -17.84398366 8.99324398 -23.09765625 10.41796875 C-27.01241677 12.78159775 -29.01215329 15.12469338 -30.41015625 19.41796875 C-31.23383993 24.30062976 -30.92388579 27.47613126 -28.53515625 31.85546875 C-25.82487937 35.48079731 -25.82487937 35.48079731 -21.765625 36.71875 C-20.72019531 36.72261719 -19.67476563 36.72648437 -18.59765625 36.73046875 C-17.55996094 36.74722656 -16.52226562 36.76398438 -15.453125 36.78125 C-12.02542752 36.37203836 -10.17209192 35.45256193 -7.41015625 33.41796875 C-6.08222019 31.3509622 -6.08222019 31.3509622 -5.41015625 29.41796875 C-1.21546054 30.01721099 2.59984209 30.99296816 6.58984375 32.41796875 C7.52655964 35.39842839 7.79174315 36.92583897 6.58984375 39.85546875 C2.09017746 45.62066618 -3.1307761 49.94029091 -10.41015625 51.41796875 C-19.69616033 52.52784972 -28.33580041 51.33232028 -36.41015625 46.41796875 C-39.32675772 43.35281372 -41.43836161 40.14921091 -43.41015625 36.41796875 C-43.78785156 35.8353125 -44.16554688 35.25265625 -44.5546875 34.65234375 C-47.10743211 27.98490121 -46.79846658 17.99321608 -44.2421875 11.41015625 C-42.77921071 9.19124544 -41.25815297 7.32330188 -39.41015625 5.41796875 C-38.62640625 4.48984375 -37.84265625 3.56171875 -37.03515625 2.60546875 C-26.69416604 -6.01202309 -11.50594452 -7.55252436 0 0 Z " fill="#0D4AEE" transform="translate(497.41015625,165.58203125)"/>
<path d="M0 0 C0.9590625 -0.00773438 1.918125 -0.01546875 2.90625 -0.0234375 C5.5 0.375 5.5 0.375 7.19140625 1.51953125 C8.95624435 4.02191363 9.89162616 6.56048967 10.9375 9.4375 C11.370625 10.60925781 11.80375 11.78101563 12.25 12.98828125 C12.6625 14.10589844 13.075 15.22351563 13.5 16.375 C14.1393759 17.96095195 14.78464574 19.54454865 15.4375 21.125 C16.69108117 24.22088872 17.84722261 27.33723195 18.94140625 30.4921875 C19.32727905 31.6044873 19.32727905 31.6044873 19.72094727 32.73925781 C20.22534241 34.20296795 20.72485416 35.66837385 21.21850586 37.13574219 C22.7342994 41.54363892 24.53988529 45.56090126 26.828125 49.62646484 C27.5 51.375 27.5 51.375 26.5 54.375 C20.93842552 55.28957003 16.824335 55.69586397 11.5 53.375 C11.005 49.415 11.005 49.415 10.5 45.375 C3.57 45.375 -3.36 45.375 -10.5 45.375 C-10.5 47.355 -10.5 49.335 -10.5 51.375 C-12.5 54.375 -12.5 54.375 -16.25 55.125 C-19.81794577 55.45705335 -22.98934286 55.16489786 -26.5 54.375 C-26.06680414 49.28494865 -24.78083099 45.50046736 -22.60546875 40.8984375 C-21.37183052 38.08242938 -20.43322605 35.24128057 -19.5 32.3125 C-18.39703793 28.89632176 -17.27101208 25.71878739 -15.5625 22.5625 C-13.17978235 18.13477271 -11.77791484 13.36308404 -10.33813477 8.56518555 C-8.33361545 2.14163107 -6.87902812 -0.05547603 0 0 Z M-0.5 19.375 C-1.00757862 20.78896902 -1.50574925 22.20631729 -2 23.625 C-2.2784375 24.41390625 -2.556875 25.2028125 -2.84375 26.015625 C-3.67864861 28.60912738 -3.67864861 28.60912738 -3.5 32.375 C-0.86 32.375 1.78 32.375 4.5 32.375 C3.43204565 27.87433525 2.35961414 23.6255466 0.5 19.375 C0.17 19.375 -0.16 19.375 -0.5 19.375 Z " fill="#888F9F" transform="translate(334.5,161.625)"/>
<path d="M0 0 C1.45599609 0.00773438 1.45599609 0.00773438 2.94140625 0.015625 C3.90949219 0.01046875 4.87757813 0.0053125 5.875 0 C8.50390625 0.265625 8.50390625 0.265625 11.50390625 2.265625 C12.53125 4.515625 12.53125 4.515625 13.44140625 7.265625 C14.71889687 10.99123452 16.02807299 14.67616112 17.50390625 18.328125 C17.83519531 19.14796875 18.16648437 19.9678125 18.5078125 20.8125 C19.00087891 22.02679688 19.00087891 22.02679688 19.50390625 23.265625 C22.22578971 30.00972492 24.86439124 36.78169704 27.453125 43.578125 C28.42453341 46.1825532 28.42453341 46.1825532 29.50390625 48.265625 C29.54389825 50.26522512 29.54737424 52.26609742 29.50390625 54.265625 C27.37918049 54.31949129 25.25406973 54.35835571 23.12890625 54.390625 C21.35386719 54.42542969 21.35386719 54.42542969 19.54296875 54.4609375 C16.50390625 54.265625 16.50390625 54.265625 14.50390625 52.265625 C14.00890625 48.800625 14.00890625 48.800625 13.50390625 45.265625 C6.57390625 45.265625 -0.35609375 45.265625 -7.49609375 45.265625 C-7.82609375 47.905625 -8.15609375 50.545625 -8.49609375 53.265625 C-13.82042875 55.58648897 -17.93451927 55.18019503 -23.49609375 54.265625 C-22.863973 49.06909986 -21.24833756 44.64231051 -19.30859375 39.828125 C-18.83993896 38.64440308 -18.83993896 38.64440308 -18.36181641 37.43676758 C-17.41273998 35.04387315 -16.45551493 32.65438793 -15.49609375 30.265625 C-14.95555913 28.91413049 -14.41518388 27.56257223 -13.875 26.2109375 C-12.89044913 23.74845622 -11.9014884 21.28790104 -10.91015625 18.828125 C-9.9448948 16.39630609 -8.99932661 13.96514809 -8.08203125 11.515625 C-7.42074219 9.7521875 -7.42074219 9.7521875 -6.74609375 7.953125 C-6.359375 6.90511719 -5.97265625 5.85710937 -5.57421875 4.77734375 C-4.21003333 1.59918714 -3.52485065 0.37510148 0 0 Z M2.50390625 20.265625 C-0.20454256 25.99853415 -0.20454256 25.99853415 -0.49609375 32.265625 C2.14390625 32.265625 4.78390625 32.265625 7.50390625 32.265625 C6.51390625 28.305625 5.52390625 24.345625 4.50390625 20.265625 C3.84390625 20.265625 3.18390625 20.265625 2.50390625 20.265625 Z " fill="#8F96A6" transform="translate(422.49609375,161.734375)"/>
<path d="M0 0 C0.97710937 -0.02578125 1.95421875 -0.0515625 2.9609375 -0.078125 C6.11709307 0.3106097 6.64957934 0.85184869 8.625 3.25 C9.56054688 5.26782227 9.56054688 5.26782227 10.34375 7.56640625 C10.78267578 8.83774414 10.78267578 8.83774414 11.23046875 10.13476562 C11.52566406 11.01841797 11.82085937 11.90207031 12.125 12.8125 C12.42019531 13.66908203 12.71539062 14.52566406 13.01953125 15.40820312 C15.03645898 21.31238144 16.87145885 27.26274891 18.625 33.25 C19.285 33.25 19.945 33.25 20.625 33.25 C20.79443115 32.66226807 20.9638623 32.07453613 21.13842773 31.46899414 C23.09876579 24.78973501 25.32127962 18.2330187 27.6875 11.6875 C28.03876953 10.69169922 28.39003906 9.69589844 28.75195312 8.66992188 C29.09291016 7.72568359 29.43386719 6.78144531 29.78515625 5.80859375 C30.24353882 4.52940063 30.24353882 4.52940063 30.71118164 3.22436523 C31.625 1.25 31.625 1.25 33.625 0.25 C35.66555005 0.17934383 37.70834257 0.16578024 39.75 0.1875 C40.84570312 0.19652344 41.94140625 0.20554688 43.0703125 0.21484375 C44.33488281 0.23224609 44.33488281 0.23224609 45.625 0.25 C46.8276726 3.85801779 46.33513707 4.71716279 45 8.1875 C44.62617188 9.16589844 44.25234375 10.14429688 43.8671875 11.15234375 C42.23917226 15.21214277 40.54989443 19.24428659 38.84765625 23.2734375 C37.31455027 27.00579135 35.95129705 30.78699534 34.59375 34.5859375 C32.1754921 41.23614671 29.44588811 47.76195736 26.625 54.25 C22.005 54.25 17.385 54.25 12.625 54.25 C8.5777469 45.28822528 4.96066988 36.23491873 1.62890625 26.984375 C-0.42070703 21.40177073 -2.60816047 15.88816351 -5.125 10.5 C-6.41825171 7.13754557 -6.7147 4.81685003 -6.375 1.25 C-4.64280072 -0.48219928 -2.35473192 0.03708239 0 0 Z " fill="#8E96A6" transform="translate(360.375,161.75)"/>
<path d="M0 0 C0.99128906 0.00257813 1.98257812 0.00515625 3.00390625 0.0078125 C3.99261719 0.00523437 4.98132813 0.00265625 6 0 C8.56640625 0.1328125 8.56640625 0.1328125 10.56640625 1.1328125 C10.69096585 6.50382234 10.78119327 11.87397261 10.84106445 17.24609375 C10.86604904 19.06948512 10.90004904 20.89277798 10.94360352 22.71582031 C11.41840134 43.11536931 11.41840134 43.11536931 5.56640625 50.1328125 C3.26301462 51.96325849 1.30581018 52.94401457 -1.43359375 54.1328125 C-2.42359375 54.6278125 -2.42359375 54.6278125 -3.43359375 55.1328125 C-10.80657169 55.83445315 -18.38961929 55.92454701 -24.43359375 51.1328125 C-27.6348597 46.56081479 -29.1331517 41.72927608 -28.43359375 36.1328125 C-27.43359375 35.1328125 -27.43359375 35.1328125 -24.7109375 35.03515625 C-23.60878906 35.04675781 -22.50664062 35.05835938 -21.37109375 35.0703125 C-19.71400391 35.08384766 -19.71400391 35.08384766 -18.0234375 35.09765625 C-17.16878906 35.10925781 -16.31414062 35.12085938 -15.43359375 35.1328125 C-15.16417969 35.9371875 -14.89476562 36.7415625 -14.6171875 37.5703125 C-14.03130859 38.83875 -14.03130859 38.83875 -13.43359375 40.1328125 C-10.53008251 41.29730131 -10.53008251 41.29730131 -7.43359375 41.1328125 C-5.60106202 40.21775148 -5.60106202 40.21775148 -4.43359375 38.1328125 C-4.11440943 35.28110825 -3.96877572 32.63610255 -3.95703125 29.78125 C-3.94145172 28.96661285 -3.92587219 28.15197571 -3.90982056 27.31265259 C-3.86228403 24.71104878 -3.83452632 22.10971384 -3.80859375 19.5078125 C-3.77214652 16.89895849 -3.73158311 14.29025837 -3.6859436 11.68154907 C-3.65864206 10.05792221 -3.63732353 8.43418215 -3.62240601 6.81039429 C-3.52950355 0.19262138 -3.52950355 0.19262138 0 0 Z " fill="#9198A8" transform="translate(296.43359375,161.8671875)"/>
<path d="M0 0 C1.18529297 -0.01224609 2.37058594 -0.02449219 3.59179688 -0.03710938 C5.3155957 -0.04000977 5.3155957 -0.04000977 7.07421875 -0.04296875 C8.12569092 -0.04707764 9.17716309 -0.05118652 10.26049805 -0.05541992 C13.58346001 0.20906669 16.24169544 0.8986905 19.3125 2.1875 C20.1875 4.3125 20.1875 4.3125 20.3125 6.1875 C20.9725 6.1875 21.6325 6.1875 22.3125 6.1875 C23.66689668 8.89629335 23.37751451 11.19683268 23.3125 14.1875 C23.9725 14.1875 24.6325 14.1875 25.3125 14.1875 C25.11993982 23.36036652 25.11993982 23.36036652 21.75 26.8125 C20.5434375 27.493125 20.5434375 27.493125 19.3125 28.1875 C18.3225 27.5275 17.3325 26.8675 16.3125 26.1875 C16.3125 25.5275 16.3125 24.8675 16.3125 24.1875 C15.6525 24.1875 14.9925 24.1875 14.3125 24.1875 C14.3125 24.8475 14.3125 25.5075 14.3125 26.1875 C11.9375 26.8125 11.9375 26.8125 9.3125 27.1875 C8.6525 26.5275 7.9925 25.8675 7.3125 25.1875 C9.2925 24.8575 11.2725 24.5275 13.3125 24.1875 C14.16993651 19.79313789 14.40198558 15.66177924 14.3125 11.1875 C10.63862505 10.33451624 7.2677607 10.07960529 3.5 10.125 C2.52417969 10.13402344 1.54835938 10.14304688 0.54296875 10.15234375 C-0.19308594 10.16394531 -0.92914062 10.17554688 -1.6875 10.1875 C-2.02522739 12.89534994 -2.35780687 15.60366996 -2.6875 18.3125 C-2.83058594 19.45332031 -2.83058594 19.45332031 -2.9765625 20.6171875 C-3.38255544 23.98112903 -3.68803614 27.15861571 -3.625 30.5546875 C-3.6875 33.1875 -3.6875 33.1875 -5.6875 36.1875 C-6.53639215 39.55760185 -7.21461257 42.94599994 -7.90625 46.3515625 C-8.1640625 47.28742188 -8.421875 48.22328125 -8.6875 49.1875 C-9.6775 49.6825 -9.6775 49.6825 -10.6875 50.1875 C-11.74023878 47.02928365 -11.68621396 44.52080178 -11.52734375 41.22265625 C-11.5360343 39.15955712 -11.5360343 39.15955712 -12.68310547 37.54736328 C-14.10707266 34.20169801 -13.95363202 30.9676811 -13.91796875 27.39453125 C-13.91751053 26.64789719 -13.91705231 25.90126312 -13.9165802 25.13200378 C-13.91356682 23.55942183 -13.90570793 21.98684262 -13.89331055 20.41430664 C-13.87498561 17.99810313 -13.87280144 15.58228157 -13.87304688 13.16601562 C-13.86813396 11.6380175 -13.86230662 10.11002198 -13.85546875 8.58203125 C-13.85435593 7.85603226 -13.8532431 7.13003326 -13.85209656 6.3820343 C-13.76604015 -2.62468233 -7.64748413 0.00409175 0 0 Z " fill="#1575F7" transform="translate(524.6875,163.8125)"/>
<path d="M0 0 C2.48020497 0.11341491 4.95844969 0.24014686 7.4375 0.375 C8.14455078 0.4059375 8.85160156 0.436875 9.58007812 0.46875 C11.39239188 0.57280629 13.19817988 0.77919892 15 1 C15.495 1.99 15.495 1.99 16 3 C17.73775108 3.72133064 19.47564081 4.44233327 21.21484375 5.16015625 C23.79606183 6.37451486 25.30115975 7.71309966 27 10 C28.36842105 15.26315789 28.36842105 15.26315789 27 18 C23.39190015 19.18083268 19.79201919 19.83416826 16 20 C13.3125 18.25 13.3125 18.25 12 16 C12 15.34 12 14.68 12 14 C6.85591852 12.55965719 2.56617259 11.57527523 -2.6875 13 C-6.63034625 15.38058641 -8.59431543 17.68142461 -10 22 C-10.40696854 24.80401327 -10.62542525 27.57003011 -10.78515625 30.3984375 C-11.03975224 33.48136348 -11.84022127 36.13921247 -13 39 C-13.66 38.67 -14.32 38.34 -15 38 C-15 37.34 -15 36.68 -15 36 C-15.66 36 -16.32 36 -17 36 C-17.33 36.66 -17.66 37.32 -18 38 C-18.99 37.67 -19.98 37.34 -21 37 C-22.65497356 33.69005287 -22.10084335 30.00877 -22.0625 26.375 C-22.05798828 25.57320312 -22.05347656 24.77140625 -22.04882812 23.9453125 C-22.03703168 21.96350994 -22.01909605 19.98174567 -22 18 C-21.34 18 -20.68 18 -20 18 C-19.9175 17.21625 -19.835 16.4325 -19.75 15.625 C-19 13 -19 13 -16.9375 11.6875 C-16.298125 11.460625 -15.65875 11.23375 -15 11 C-15 9.68 -15 8.36 -15 7 C-12.6875 5.375 -12.6875 5.375 -10 4 C-9.01 3.34 -8.02 2.68 -7 2 C-4.66800612 1.92094936 -2.33167378 1.91201231 0 2 C0 1.34 0 0.68 0 0 Z " fill="#1371F9" transform="translate(477,163)"/>
<path d="M0 0 C1.06992187 -0.04898438 2.13984375 -0.09796875 3.2421875 -0.1484375 C6.125 0.375 6.125 0.375 8.0703125 2.7734375 C8.59238281 4.06121094 8.59238281 4.06121094 9.125 5.375 C8.795 6.035 8.465 6.695 8.125 7.375 C7.465 6.055 6.805 4.735 6.125 3.375 C2.165 3.045 -1.795 2.715 -5.875 2.375 C-5.545 18.875 -5.215 35.375 -4.875 52.375 C-1.575 52.705 1.725 53.035 5.125 53.375 C5.0528125 52.65957031 4.980625 51.94414062 4.90625 51.20703125 C2.94452327 30.1457151 2.94452327 30.1457151 6.125 25.375 C8.0625 25.875 8.0625 25.875 10.125 27.375 C10.81290422 30.07158452 10.94446464 32.5767019 11.125 35.375 C12.0840625 35.560625 12.0840625 35.560625 13.0625 35.75 C13.743125 35.95625 14.42375 36.1625 15.125 36.375 C15.455 37.035 15.785 37.695 16.125 38.375 C16.516875 37.446875 16.90875 36.51875 17.3125 35.5625 C19.26699427 32.12528594 20.52269041 30.90598158 24.125 29.375 C27.125 30.375 27.125 30.375 28.125 32.375 C28.785 31.055 29.445 29.735 30.125 28.375 C30.62 29.365 30.62 29.365 31.125 30.375 C32.445 30.045 33.765 29.715 35.125 29.375 C35.125 28.715 35.125 28.055 35.125 27.375 C35.785 27.375 36.445 27.375 37.125 27.375 C39.02620099 34.50450371 39.34924141 41.01240707 39.125 48.375 C40.775 49.035 42.425 49.695 44.125 50.375 C44.44106489 48.41723886 44.75262832 46.45875094 45.0625 44.5 C45.23652344 43.40945312 45.41054688 42.31890625 45.58984375 41.1953125 C46.84625505 32.22618654 47.3666213 23.29772731 47.6875 14.25 C47.75227539 12.52910156 47.75227539 12.52910156 47.81835938 10.7734375 C47.92333601 7.97406058 48.02455837 5.1745433 48.125 2.375 C44.495 2.375 40.865 2.375 37.125 2.375 C37.62 4.355 37.62 4.355 38.125 6.375 C36.805 6.705 35.485 7.035 34.125 7.375 C34.021875 8.014375 33.91875 8.65375 33.8125 9.3125 C33.585625 9.993125 33.35875 10.67375 33.125 11.375 C32.135 11.705 31.145 12.035 30.125 12.375 C34.14318182 1.86590909 34.14318182 1.86590909 37.125 0.375 C38.99879605 0.30466231 40.87501102 0.2906978 42.75 0.3125 C44.25433594 0.32603516 44.25433594 0.32603516 45.7890625 0.33984375 C46.55992187 0.35144531 47.33078125 0.36304688 48.125 0.375 C49.97910109 3.53034493 50.35583315 5.76295351 50.27612305 9.40307617 C50.25917892 10.40058395 50.2422348 11.39809174 50.22477722 12.42582703 C50.19571793 13.4957338 50.16665863 14.56564056 50.13671875 15.66796875 C50.11406448 16.76973953 50.09141022 17.87151031 50.06806946 19.00666809 C50.01814836 21.33259967 49.96318962 23.65842781 49.90356445 25.98413086 C49.81259113 29.55891922 49.73801633 33.13376856 49.66601562 36.70898438 C49.61554598 38.96616756 49.56414588 41.22333018 49.51171875 43.48046875 C49.48873215 44.55644821 49.46574554 45.63242767 49.44206238 46.74101257 C49.41566177 47.72906387 49.38926117 48.71711517 49.36206055 49.73510742 C49.34048386 50.60906662 49.31890717 51.48302582 49.29667664 52.38346863 C49.125 54.375 49.125 54.375 48.125 55.375 C46.12264659 55.33716483 44.121489 55.22024147 42.125 55.0625 C41.031875 54.98386719 39.93875 54.90523437 38.8125 54.82421875 C37.925625 54.67597656 37.03875 54.52773437 36.125 54.375 C34.97845518 52.08191037 34.92770883 50.57590344 34.80859375 48.0234375 C34.76669922 47.17265625 34.72480469 46.321875 34.68164062 45.4453125 C34.64232422 44.55585938 34.60300781 43.66640625 34.5625 42.75 C34.51931641 41.8528125 34.47613281 40.955625 34.43164062 40.03125 C34.32543285 37.81268761 34.22470041 35.59386435 34.125 33.375 C31.485 38.325 28.845 43.275 26.125 48.375 C23.155 48.375 20.185 48.375 17.125 48.375 C14.155 43.095 11.185 37.815 8.125 32.375 C8.07601562 33.86773437 8.02703125 35.36046875 7.9765625 36.8984375 C7.90154173 38.84897763 7.8259936 40.79949753 7.75 42.75 C7.70359375 44.22726563 7.70359375 44.22726563 7.65625 45.734375 C7.59824219 47.14589844 7.59824219 47.14589844 7.5390625 48.5859375 C7.5076416 49.45524902 7.4762207 50.32456055 7.44384766 51.22021484 C7.125 53.375 7.125 53.375 5.125 55.375 C2.3046875 55.3515625 2.3046875 55.3515625 -1 55 C-2.09570312 54.88914063 -3.19140625 54.77828125 -4.3203125 54.6640625 C-5.16335938 54.56867188 -6.00640625 54.47328125 -6.875 54.375 C-6.90026648 46.84530348 -6.91783141 39.3156178 -6.92993164 31.78588867 C-6.9349737 29.22208243 -6.94180714 26.65827909 -6.95043945 24.09448242 C-6.96251064 20.41844979 -6.96822942 16.74245502 -6.97265625 13.06640625 C-6.97781754 11.91225723 -6.98297882 10.75810822 -6.98829651 9.56898499 C-6.98837204 8.50796066 -6.98844757 7.44693634 -6.98852539 6.35375977 C-6.990746 5.41444107 -6.99296661 4.47512238 -6.99525452 3.50733948 C-6.75106995 -0.82251364 -3.70930247 0.11563773 0 0 Z " fill="#0F56EB" transform="translate(564.875,161.625)"/>
<path d="M0 0 C1.65322266 0.01740234 1.65322266 0.01740234 3.33984375 0.03515625 C4.99693359 0.04869141 4.99693359 0.04869141 6.6875 0.0625 C7.54214844 0.07410156 8.39679688 0.08570313 9.27734375 0.09765625 C9.54675781 0.90460938 9.81617188 1.7115625 10.09375 2.54296875 C10.48433594 3.38601562 10.87492187 4.2290625 11.27734375 5.09765625 C14.87090734 6.16807945 16.70418245 6.28871002 20.27734375 5.09765625 C20.93734375 7.07765625 21.59734375 9.05765625 22.27734375 11.09765625 C21.61734375 11.75765625 20.95734375 12.41765625 20.27734375 13.09765625 C21.26734375 14.08765625 22.25734375 15.07765625 23.27734375 16.09765625 C23.87546875 15.58203125 24.47359375 15.06640625 25.08984375 14.53515625 C25.81171875 14.06078125 26.53359375 13.58640625 27.27734375 13.09765625 C28.76234375 13.59265625 28.76234375 13.59265625 30.27734375 14.09765625 C26.75283096 18.01378157 23.74929078 19.80074641 18.48046875 20.43359375 C11.8472117 20.52133525 5.66567505 20.3695891 0.27734375 16.09765625 C-2.9239222 11.52565854 -4.4222142 6.69411983 -3.72265625 1.09765625 C-2.72265625 0.09765625 -2.72265625 0.09765625 0 0 Z " fill="#7F8695" transform="translate(271.72265625,196.90234375)"/>
<path d="M0 0 C1.45212891 -0.03867188 1.45212891 -0.03867188 2.93359375 -0.078125 C5.5625 0.25 5.5625 0.25 7.2734375 1.515625 C12.3521374 8.34878486 13.1233071 14.91578334 12.5625 23.25 C11.5725 23.58 10.5825 23.91 9.5625 24.25 C7.58984375 23.0703125 7.58984375 23.0703125 5.5 21.375 C2.67501972 19.08839531 2.67501972 19.08839531 -0.4375 17.25 C-1.0975 19.23 -1.7575 21.21 -2.4375 23.25 C-3.94309539 21.28617993 -5.32881683 19.46736634 -6.4375 17.25 C-7.0975 16.26 -7.7575 15.27 -8.4375 14.25 C-8.1075 13.59 -7.7775 12.93 -7.4375 12.25 C-8.4275 12.58 -9.4175 12.91 -10.4375 13.25 C-9.93290386 8.96093278 -9.38100927 5.13701855 -7.4375 1.25 C-4.85741408 -0.04004296 -2.88008426 0.04589776 0 0 Z " fill="#959DAD" transform="translate(334.4375,161.75)"/>
<path d="M0 0 C2.48020497 0.11341491 4.95844969 0.24014686 7.4375 0.375 C8.14455078 0.4059375 8.85160156 0.436875 9.58007812 0.46875 C11.39239188 0.57280629 13.19817988 0.77919892 15 1 C15.33 1.66 15.66 2.32 16 3 C17.73775108 3.72133064 19.47564081 4.44233327 21.21484375 5.16015625 C23.79606183 6.37451486 25.30115975 7.71309966 27 10 C28.36842105 15.26315789 28.36842105 15.26315789 27 18 C23.39190015 19.18083268 19.79201919 19.83416826 16 20 C13.3125 18.25 13.3125 18.25 12 16 C12 15.34 12 14.68 12 14 C11.4225 13.855625 10.845 13.71125 10.25 13.5625 C8.16666667 13.04166667 6.08333333 12.52083333 4 12 C4 11.34 4 10.68 4 10 C2.35 10 0.7 10 -1 10 C-0.34 8.68 0.32 7.36 1 6 C2.65 6 4.3 6 6 6 C3.8614515 3.8614515 2.86724686 3.57344937 0 3 C0 2.01 0 1.02 0 0 Z " fill="#187DF8" transform="translate(477,163)"/>
<path d="M0 0 C1.09570312 0.00902344 2.19140625 0.01804688 3.3203125 0.02734375 C4.16335938 0.03894531 5.00640625 0.05054688 5.875 0.0625 C7.10527758 3.75333274 6.47706654 4.86138197 5.125 8.4375 C4.77953125 9.37335938 4.4340625 10.30921875 4.078125 11.2734375 C2.87518126 14.0620798 1.60190446 16.56303302 -0.125 19.0625 C-0.785 19.0625 -1.445 19.0625 -2.125 19.0625 C-2.125 19.7225 -2.125 20.3825 -2.125 21.0625 C-2.785 21.0625 -3.445 21.0625 -4.125 21.0625 C-3.795 22.0525 -3.465 23.0425 -3.125 24.0625 C-7 22.3125 -7 22.3125 -8.125 20.0625 C-11.24285113 20.70894661 -11.24285113 20.70894661 -12.125 23.0625 C-12.785 22.7325 -13.445 22.4025 -14.125 22.0625 C-13.68419457 14.56880773 -11.32002624 7.84073324 -8.125 1.0625 C-5.36047967 -0.31976016 -3.0788637 -0.03275387 0 0 Z M-14.125 23.0625 C-12.125 24.0625 -12.125 24.0625 -12.125 24.0625 Z " fill="#98A1B0" transform="translate(400.125,161.9375)"/>
<path d="M0 0 C1.50433594 0.01353516 1.50433594 0.01353516 3.0390625 0.02734375 C3.80992187 0.03894531 4.58078125 0.05054688 5.375 0.0625 C7.22910109 3.21784493 7.60583315 5.45045351 7.52612305 9.09057617 C7.50917892 10.08808395 7.4922348 11.08559174 7.47477722 12.11332703 C7.44571793 13.1832338 7.41665863 14.25314056 7.38671875 15.35546875 C7.36406448 16.45723953 7.34141022 17.55901031 7.31806946 18.69416809 C7.26814836 21.02009967 7.21318962 23.34592781 7.15356445 25.67163086 C7.06259113 29.24641922 6.98801633 32.82126856 6.91601562 36.39648438 C6.86554598 38.65366756 6.81414588 40.91083018 6.76171875 43.16796875 C6.73873215 44.24394821 6.71574554 45.31992767 6.69206238 46.42851257 C6.66566177 47.41656387 6.63926117 48.40461517 6.61206055 49.42260742 C6.57969551 50.73354622 6.57969551 50.73354622 6.54667664 52.07096863 C6.375 54.0625 6.375 54.0625 5.375 55.0625 C3.37264659 55.02466483 1.371489 54.90774147 -0.625 54.75 C-1.718125 54.67136719 -2.81125 54.59273437 -3.9375 54.51171875 C-4.824375 54.36347656 -5.71125 54.21523437 -6.625 54.0625 C-8.56499152 50.18251696 -8.06607538 45.40124735 -8.25 41.125 C-8.3015625 40.10986328 -8.353125 39.09472656 -8.40625 38.04882812 C-8.47199219 36.58799805 -8.47199219 36.58799805 -8.5390625 35.09765625 C-8.5798291 34.2044165 -8.6205957 33.31117676 -8.66259766 32.39086914 C-8.625 30.0625 -8.625 30.0625 -7.625 27.0625 C-6.965 27.0625 -6.305 27.0625 -5.625 27.0625 C-3.72379901 34.19200371 -3.40075859 40.69990707 -3.625 48.0625 C-1.975 48.7225 -0.325 49.3825 1.375 50.0625 C1.69106489 48.10473886 2.00262832 46.14625094 2.3125 44.1875 C2.48652344 43.09695312 2.66054688 42.00640625 2.83984375 40.8828125 C4.09625505 31.91368654 4.6166213 22.98522731 4.9375 13.9375 C4.98068359 12.79023438 5.02386719 11.64296875 5.06835938 10.4609375 C5.17333601 7.66156058 5.27455837 4.8620433 5.375 2.0625 C1.745 2.0625 -1.885 2.0625 -5.625 2.0625 C-5.295 3.3825 -4.965 4.7025 -4.625 6.0625 C-5.945 6.3925 -7.265 6.7225 -8.625 7.0625 C-8.728125 7.701875 -8.83125 8.34125 -8.9375 9 C-9.164375 9.680625 -9.39125 10.36125 -9.625 11.0625 C-10.615 11.3925 -11.605 11.7225 -12.625 12.0625 C-7.97740041 -0.09276047 -7.97740041 -0.09276047 0 0 Z " fill="#1149C4" transform="translate(607.625,161.9375)"/>
<path d="M0 0 C1.2890625 -0.020625 2.578125 -0.04125 3.90625 -0.0625 C5.14890625 -0.06765625 6.3915625 -0.0728125 7.671875 -0.078125 C8.81237305 -0.0874707 9.95287109 -0.09681641 11.12792969 -0.10644531 C14.56346992 0.28578872 16.45333488 1.2691923 19.25 3.25 C16.25 4.25 16.25 4.25 13.25 3.25 C11.2579697 3.16708047 9.26326287 3.14261823 7.26953125 3.15234375 C6.22128174 3.15484131 5.17303223 3.15733887 4.09301758 3.15991211 C2.76294678 3.16901611 1.43287598 3.17812012 0.0625 3.1875 C-4.165625 3.208125 -8.39375 3.22875 -12.75 3.25 C-13.08 19.75 -13.41 36.25 -13.75 53.25 C-10.12 53.25 -6.49 53.25 -2.75 53.25 C-2.91048828 51.44402344 -2.91048828 51.44402344 -3.07421875 49.6015625 C-3.19612918 48.02610465 -3.31717838 46.45057999 -3.4375 44.875 C-3.51033203 44.0809375 -3.58316406 43.286875 -3.65820312 42.46875 C-3.82421875 40.1640625 -3.82421875 40.1640625 -3.75 36.25 C-0.75 34.25 -0.75 34.25 1.625 34.375 C4.96916712 35.48972237 6.81717216 36.68201506 9.25 39.25 C10.0625 43 10.0625 43 10.25 46.25 C12.23 46.91 14.21 47.57 16.25 48.25 C15.92 49.9 15.59 51.55 15.25 53.25 C19.21 53.25 23.17 53.25 27.25 53.25 C26.755 51.27 26.755 51.27 26.25 49.25 C27.24 49.91 28.23 50.57 29.25 51.25 C28.59 52.57 27.93 53.89 27.25 55.25 C25.16587093 55.18976506 23.08255565 55.10091679 21 55 C19.83984375 54.95359375 18.6796875 54.9071875 17.484375 54.859375 C13.70026745 54.1464272 12.57794932 53.25449295 10.25 50.25 C9.08984375 48.25 9.08984375 48.25 8.1875 46.25 C6.79680403 43.29270975 5.24669879 40.84570842 3.25 38.25 C3.25 37.59 3.25 36.93 3.25 36.25 C1.765 36.745 1.765 36.745 0.25 37.25 C0.22421875 38.38179687 0.1984375 39.51359375 0.171875 40.6796875 C0.11560374 42.16149743 0.05825618 43.64326677 0 45.125 C-0.02126953 46.24455078 -0.02126953 46.24455078 -0.04296875 47.38671875 C-0.140625 49.5546875 -0.140625 49.5546875 -0.75 53.25 C-3.40698859 55.51642902 -6.03018155 55.49945124 -9.4375 55.4375 C-10.22511719 55.43105469 -11.01273438 55.42460937 -11.82421875 55.41796875 C-13.75 55.25 -13.75 55.25 -14.75 54.25 C-14.84868509 52.59808604 -14.87798837 50.94196783 -14.87939453 49.28710938 C-14.88254669 48.22931274 -14.88569885 47.17151611 -14.88894653 46.08166504 C-14.88591019 44.35514709 -14.88591019 44.35514709 -14.8828125 42.59375 C-14.88376923 41.42114624 -14.88472595 40.24854248 -14.88571167 39.04040527 C-14.8863937 36.55541938 -14.88453784 34.07043171 -14.88037109 31.58544922 C-14.87502319 27.76656113 -14.88031536 23.94779065 -14.88671875 20.12890625 C-14.88605797 17.72135391 -14.88477682 15.31380163 -14.8828125 12.90625 C-14.88483673 11.75523804 -14.88686096 10.60422607 -14.88894653 9.41833496 C-14.88579437 8.36053833 -14.88264221 7.3027417 -14.87939453 6.21289062 C-14.87859894 5.27658813 -14.87780334 4.34028564 -14.87698364 3.37561035 C-14.53401104 -2.3654922 -4.28657299 0.01694298 0 0 Z " fill="#103DA5" transform="translate(524.75,161.75)"/>
<path d="M0 0 C1.82421875 2.109375 1.82421875 2.109375 3 4 C1.02 3.34 -0.96 2.68 -3 2 C-3 1.34 -3 0.68 -3 0 C-4.175625 0.020625 -5.35125 0.04125 -6.5625 0.0625 C-10.47413467 0.06947261 -14.14497944 -0.35749657 -18 -1 C-18 -0.34 -18 0.32 -18 1 C-18.99 1.061875 -19.98 1.12375 -21 1.1875 C-25.71827991 1.82432306 -29.1745514 4.30728164 -33 7 C-32.67 8.32 -32.34 9.64 -32 11 C-32.804375 11.2475 -33.60875 11.495 -34.4375 11.75 C-37.171081 12.72238859 -37.171081 12.72238859 -37.8125 15.125 C-37.874375 15.74375 -37.93625 16.3625 -38 17 C-38.66 17 -39.32 17 -40 17 C-39.67 24.26 -39.34 31.52 -39 39 C-38.01 39.33 -37.02 39.66 -36 40 C-35.401875 40.94875 -34.80375 41.8975 -34.1875 42.875 C-31.74374836 46.36607377 -29.8244689 47.30023605 -26 49 C-25.67 49.66 -25.34 50.32 -25 51 C-29.52092906 50.20037989 -32.93006189 49.17212321 -36.0859375 45.71484375 C-37.84601223 43.19355527 -39.47689104 40.67071461 -41 38 C-41.38285156 37.41476563 -41.76570313 36.82953125 -42.16015625 36.2265625 C-44.68159454 29.54181912 -44.39133721 19.5830423 -41.83203125 12.9921875 C-40.36905446 10.77327669 -38.84799672 8.90533313 -37 7 C-36.21625 6.071875 -35.4325 5.14375 -34.625 4.1875 C-24.61995719 -4.15003567 -11.86864749 -5.13860667 0 0 Z " fill="#1D65CA" transform="translate(495,164)"/>
<path d="M0 0 C1.32 0.33 2.64 0.66 4 1 C3.67 1.66 3.34 2.32 3 3 C3.89522239 5.01551672 3.89522239 5.01551672 5.25 7.1875 C11 17.11786212 11 17.11786212 11 21 C7.04 21 3.08 21 -1 21 C-1.33 19.35 -1.66 17.7 -2 16 C-2.66 15.690625 -3.32 15.38125 -4 15.0625 C-4.66 14.711875 -5.32 14.36125 -6 14 C-6.75 10.875 -6.75 10.875 -7 8 C-3.25 5 -3.25 5 -1 5 C-0.67 3.35 -0.34 1.7 0 0 Z " fill="#0F4FE5" transform="translate(541,194)"/>
<path d="M0 0 C1.06992187 -0.04898438 2.13984375 -0.09796875 3.2421875 -0.1484375 C6.125 0.375 6.125 0.375 8.0703125 2.7734375 C8.59238281 4.06121094 8.59238281 4.06121094 9.125 5.375 C8.795 6.035 8.465 6.695 8.125 7.375 C7.465 6.055 6.805 4.735 6.125 3.375 C2.165 3.045 -1.795 2.715 -5.875 2.375 C-5.545 18.875 -5.215 35.375 -4.875 52.375 C-1.575 52.705 1.725 53.035 5.125 53.375 C5.0528125 52.65957031 4.980625 51.94414062 4.90625 51.20703125 C2.94452327 30.1457151 2.94452327 30.1457151 6.125 25.375 C8.0625 25.875 8.0625 25.875 10.125 27.375 C10.81290422 30.07158452 10.94446464 32.5767019 11.125 35.375 C11.785 35.375 12.445 35.375 13.125 35.375 C13.455 37.355 13.785 39.335 14.125 41.375 C11.14998316 38.82498556 9.8135933 35.86570547 8.125 32.375 C8.10518066 33.00067871 8.08536133 33.62635742 8.06494141 34.27099609 C7.96985774 37.09776519 7.86011254 39.92377815 7.75 42.75 C7.70359375 44.22726563 7.70359375 44.22726563 7.65625 45.734375 C7.59824219 47.14589844 7.59824219 47.14589844 7.5390625 48.5859375 C7.5076416 49.45524902 7.4762207 50.32456055 7.44384766 51.22021484 C7.125 53.375 7.125 53.375 5.125 55.375 C2.3046875 55.3515625 2.3046875 55.3515625 -1 55 C-2.09570312 54.88914063 -3.19140625 54.77828125 -4.3203125 54.6640625 C-5.16335938 54.56867188 -6.00640625 54.47328125 -6.875 54.375 C-6.90026648 46.84530348 -6.91783141 39.3156178 -6.92993164 31.78588867 C-6.9349737 29.22208243 -6.94180714 26.65827909 -6.95043945 24.09448242 C-6.96251064 20.41844979 -6.96822942 16.74245502 -6.97265625 13.06640625 C-6.97781754 11.91225723 -6.98297882 10.75810822 -6.98829651 9.56898499 C-6.98837204 8.50796066 -6.98844757 7.44693634 -6.98852539 6.35375977 C-6.990746 5.41444107 -6.99296661 4.47512238 -6.99525452 3.50733948 C-6.75106995 -0.82251364 -3.70930247 0.11563773 0 0 Z " fill="#2259AE" transform="translate(564.875,161.625)"/>
<path d="M0 0 C1.65322266 0.01740234 1.65322266 0.01740234 3.33984375 0.03515625 C4.99693359 0.04869141 4.99693359 0.04869141 6.6875 0.0625 C7.54214844 0.07410156 8.39679688 0.08570313 9.27734375 0.09765625 C9.60734375 2.40765625 9.93734375 4.71765625 10.27734375 7.09765625 C10.93734375 7.09765625 11.59734375 7.09765625 12.27734375 7.09765625 C11.94734375 8.08765625 11.61734375 9.07765625 11.27734375 10.09765625 C10.28734375 10.42765625 9.29734375 10.75765625 8.27734375 11.09765625 C7.05864446 13.60213141 7.05864446 13.60213141 6.27734375 16.09765625 C4.62734375 15.76765625 2.97734375 15.43765625 1.27734375 15.09765625 C1.27734375 14.43765625 1.27734375 13.77765625 1.27734375 13.09765625 C0.61734375 13.09765625 -0.04265625 13.09765625 -0.72265625 13.09765625 C-3.12651318 8.89090663 -4.17492237 5.95951699 -3.72265625 1.09765625 C-2.72265625 0.09765625 -2.72265625 0.09765625 0 0 Z " fill="#878E9D" transform="translate(271.72265625,196.90234375)"/>
<path d="M0 0 C0 0.66 0 1.32 0 2 C-0.99 2.33 -1.98 2.66 -3 3 C-3 2.34 -3 1.68 -3 1 C-6.3 1.99 -9.6 2.98 -13 4 C-13.66 3.34 -14.32 2.68 -15 2 C-15.33 2.66 -15.66 3.32 -16 4 C-16.9075 3.814375 -17.815 3.62875 -18.75 3.4375 C-21.68314324 3.04265379 -23.2644657 3.05308428 -26 4 C-26.33 5.98 -26.66 7.96 -27 10 C-27.886875 9.773125 -28.77375 9.54625 -29.6875 9.3125 C-33.6840134 8.93547043 -34.68647231 9.92904519 -38 12 C-41.3125 12.1875 -41.3125 12.1875 -44 12 C-43.93359375 10.265625 -43.93359375 10.265625 -43 8 C-29.94260813 -1.63048552 -15.54705857 -0.93235734 0 0 Z " fill="#1E50A7" transform="translate(171,116)"/>
<path d="M0 0 C0.99 0.33 1.98 0.66 3 1 C4.20577428 5.94367454 3.6290678 9.20862412 2 14 C2.66 14.33 3.32 14.66 4 15 C4 15.99 4 16.98 4 18 C3.34 18 2.68 18 2 18 C2 18.99 2 19.98 2 21 C3.423125 21.2165625 3.423125 21.2165625 4.875 21.4375 C8 22 8 22 10 23 C10 23.66 10 24.32 10 25 C9.35675781 24.84660156 8.71351562 24.69320312 8.05078125 24.53515625 C4.10232463 23.84253326 0.1868113 23.64199119 -3.8125 23.4375 C-4.60076172 23.39431641 -5.38902344 23.35113281 -6.20117188 23.30664062 C-8.13394215 23.20121679 -10.06695026 23.10016906 -12 23 C-11.34 22.34 -10.68 21.68 -10 21 C-7.375 21.375 -7.375 21.375 -5 22 C-4.89042969 21.24976563 -4.78085938 20.49953125 -4.66796875 19.7265625 C-3.61713944 12.94316028 -2.16201198 6.51486278 0 0 Z " fill="#1954A9" transform="translate(108,149)"/>
<path d="M0 0 C0 5.24949479 -3.68932144 9.11894236 -7 13 C-9.07004176 14.58727583 -11.09270304 15.85176684 -13.3984375 17.0625 C-15.18330504 17.91162625 -15.18330504 17.91162625 -16 20 C-19.14550813 20.11792821 -22.29043541 20.18781383 -25.4375 20.25 C-26.75524414 20.30027344 -26.75524414 20.30027344 -28.09960938 20.3515625 C-34.47673272 20.44568978 -39.5179457 19.36688536 -45 16 C-47.5625 13.25 -47.5625 13.25 -49 11 C-46.625 11.25 -46.625 11.25 -44 12 C-42.6875 14.0625 -42.6875 14.0625 -42 16 C-40.02 15.34 -38.04 14.68 -36 14 C-35.67 14.99 -35.34 15.98 -35 17 C-34.34 17 -33.68 17 -33 17 C-33 16.34 -33 15.68 -33 15 C-32.34 15 -31.68 15 -31 15 C-31 15.99 -31 16.98 -31 18 C-26.71 18 -22.42 18 -18 18 C-18.33 16.68 -18.66 15.36 -19 14 C-18.34 13.67 -17.68 13.34 -17 13 C-17 13.66 -17 14.32 -17 15 C-16.2575 14.690625 -15.515 14.38125 -14.75 14.0625 C-12.49307824 13.1905075 -10.3549847 12.52332993 -8 12 C-7.9175 11.4225 -7.835 10.845 -7.75 10.25 C-6.79421474 7.38264421 -5.14915257 6.08199155 -3 4 C-2.67 3.01 -2.34 2.02 -2 1 C-1.34 0.67 -0.68 0.34 0 0 Z " fill="#1347DC" transform="translate(131,211)"/>
<path d="M0 0 C0.62109375 1.8203125 0.62109375 1.8203125 1 4 C0.360625 4.94875 -0.27875 5.8975 -0.9375 6.875 C-3.25540209 10.38697286 -3.18553906 11.91814059 -3 16 C-7.11732612 20.11732612 -12.96150729 20.25386003 -18.51171875 20.2734375 C-19.25035156 20.26570313 -19.98898438 20.25796875 -20.75 20.25 C-21.50410156 20.25773437 -22.25820312 20.26546875 -23.03515625 20.2734375 C-26.87917457 20.25978202 -28.73120282 20.17919812 -32 18 C-26.72 18 -21.44 18 -16 18 C-15.67 17.01 -15.34 16.02 -15 15 C-9.62857143 11 -9.62857143 11 -7 11 C-6.773125 10.484375 -6.54625 9.96875 -6.3125 9.4375 C-4.5024447 6.07596873 -2.26003596 3.07088856 0 0 Z " fill="#092C7D" transform="translate(131,213)"/>
<path d="M0 0 C2.96015432 1.48007716 4.69683507 2.47635149 6.375 5.375 C7.07565718 8.31776016 6.67153029 10.09003542 6 13 C2.34534515 13.9325671 -1.23149363 14.73972906 -5 15 C-7.6875 13.25 -7.6875 13.25 -9 11 C-9 10.34 -9 9.68 -9 9 C-9.5775 8.87625 -10.155 8.7525 -10.75 8.625 C-13.02335767 7.99351176 -14.9253529 7.11141809 -17 6 C-10.44812362 5.62913907 -10.44812362 5.62913907 -8.1875 7.5 C-7.795625 7.995 -7.40375 8.49 -7 9 C-6.34 9 -5.68 9 -5 9 C-4.67 8.34 -4.34 7.68 -4 7 C-2.68 7.33 -1.36 7.66 0 8 C0 5.36 0 2.72 0 0 Z " fill="#1774F3" transform="translate(498,168)"/>
<path d="M0 0 C3 3.75 3 3.75 3 6 C4.19625 5.938125 5.3925 5.87625 6.625 5.8125 C10.83281301 5.8272384 13.33689962 6.83204263 17 9 C17.68964844 9.31710938 18.37929687 9.63421875 19.08984375 9.9609375 C25.70742852 13.15095272 30.12262806 17.76662277 34 24 C34 24.99 34 25.98 34 27 C33.34 27 32.68 27 32 27 C31.67 25.68 31.34 24.36 31 23 C30.34 23 29.68 23 29 23 C28.195625 22.01 27.39125 21.02 26.5625 20 C25.716875 19.01 24.87125 18.02 24 17 C23.01 17 22.02 17 21 17 C21 16.01 21 15.02 21 14 C18.525 13.505 18.525 13.505 16 13 C16 12.34 16 11.68 16 11 C12.37 10.34 8.74 9.68 5 9 C4.67 10.32 4.34 11.64 4 13 C3.71125 12.195625 3.4225 11.39125 3.125 10.5625 C2.26737432 7.8673532 2.26737432 7.8673532 0 7 C0 4.69 0 2.38 0 0 Z " fill="#222C40" transform="translate(208,141)"/>
<path d="M0 0 C0.99 0.495 0.99 0.495 2 1 C2.9645833 3.8937499 3.07801303 5.63125005 3 8.625 C2.96225644 10.08284483 2.95354285 11.54240683 3 13 C3.33 13.33 3.66 13.66 4 14 C4.99 9.71 5.98 5.42 7 1 C7.99 1 8.98 1 10 1 C11.04225175 6.08097726 11.07822869 10.83690648 11 16 C7.37 16 3.74 16 0 16 C0 10.72 0 5.44 0 0 Z " fill="#0F4BF1" transform="translate(511,199)"/>
<path d="M0 0 C1.2890625 -0.020625 2.578125 -0.04125 3.90625 -0.0625 C5.14890625 -0.06765625 6.3915625 -0.0728125 7.671875 -0.078125 C8.81237305 -0.0874707 9.95287109 -0.09681641 11.12792969 -0.10644531 C14.56346992 0.28578872 16.45333488 1.2691923 19.25 3.25 C16.25 4.25 16.25 4.25 13.25 3.25 C11.2579697 3.16708047 9.26326287 3.14261823 7.26953125 3.15234375 C6.22128174 3.15484131 5.17303223 3.15733887 4.09301758 3.15991211 C2.76294678 3.16901611 1.43287598 3.17812012 0.0625 3.1875 C-4.165625 3.208125 -8.39375 3.22875 -12.75 3.25 C-13.08 18.76 -13.41 34.27 -13.75 50.25 C-14.08 50.25 -14.41 50.25 -14.75 50.25 C-14.77526838 43.28996553 -14.79283222 36.3299428 -14.80493164 29.36987305 C-14.80997341 27.00007688 -14.81680665 24.63028385 -14.82543945 22.26049805 C-14.8375119 18.86245961 -14.84322971 15.46446215 -14.84765625 12.06640625 C-14.85281754 10.99975235 -14.85797882 9.93309845 -14.86329651 8.8341217 C-14.86337204 7.85318039 -14.86344757 6.87223907 -14.86352539 5.86157227 C-14.865746 4.99331314 -14.86796661 4.12505402 -14.87025452 3.23048401 C-14.53382996 -2.31012664 -4.10335871 0.01621881 0 0 Z " fill="#1E559D" transform="translate(524.75,161.75)"/>
<path d="M0 0 C0.95390625 -0.01417969 1.9078125 -0.02835938 2.890625 -0.04296875 C5.87699459 0.1977359 8.04370741 0.938062 10.75 2.1875 C10.9736337 3.60183206 11.17826476 5.01917618 11.375 6.4375 C11.54902344 7.62085938 11.54902344 7.62085938 11.7265625 8.828125 C11.75319395 11.50902459 11.11592084 12.91444089 9.75 15.1875 C7.29159395 15.21441685 4.83348118 15.23429802 2.375 15.25 C1.67632813 15.25837891 0.97765625 15.26675781 0.2578125 15.27539062 C-5.0234375 15.30078125 -5.0234375 15.30078125 -7.25 14.1875 C-7.10970581 12.0412974 -6.96261836 9.89553782 -6.8125 7.75 C-6.73128906 6.55503906 -6.65007813 5.36007813 -6.56640625 4.12890625 C-6.04644596 -0.70479871 -4.46401738 0.02983969 0 0 Z M-4.25 3.1875 C-4.25 6.4875 -4.25 9.7875 -4.25 13.1875 C2.44207708 13.78635364 2.44207708 13.78635364 8.4375 11.5 C9.98727646 9.24924731 9.98727646 9.24924731 9.625 6.5625 C8.88532087 4.04344875 8.88532087 4.04344875 6.75 2.1875 C4.60856259 1.90687674 4.60856259 1.90687674 2.25 2 C1.4559375 2.00644531 0.661875 2.01289063 -0.15625 2.01953125 C-2.30836391 2.06074164 -2.30836391 2.06074164 -4.25 3.1875 Z " fill="#1B64BF" transform="translate(528.25,172.8125)"/>
<path d="M0 0 C0.99 0.495 0.99 0.495 2 1 C-7.2042742 8.80260808 -20.36844302 10.95429644 -32 11 C-33.80469027 11.02584931 -35.60937756 11.05190682 -37.4140625 11.078125 C-46.35629914 11.16348884 -55.10925509 11.05316703 -64 10 C-64 9.67 -64 9.34 -64 9 C-55.60294844 8.2875229 -47.3013544 7.94090132 -38.875 8 C-35.58329657 8.00804439 -32.29170357 8.00707741 -29 8 C-27.79988281 7.99742187 -26.59976563 7.99484375 -25.36328125 7.9921875 C-17.8280519 7.71413476 -5.6646448 5.6646448 0 0 Z " fill="#0B1730" transform="translate(184,222)"/>
<path d="M0 0 C1.37188477 -0.00483398 1.37188477 -0.00483398 2.77148438 -0.00976562 C9.54522414 0.04522414 9.54522414 0.04522414 11.8125 2.3125 C5.0625 2.4375 5.0625 2.4375 2.8125 1.3125 C2.8125 1.9725 2.8125 2.6325 2.8125 3.3125 C1.760625 3.29896484 1.760625 3.29896484 0.6875 3.28515625 C-6.25454224 3.50209507 -9.72783451 4.75857257 -14.53125 9.81640625 C-16.1875 11.3125 -16.1875 11.3125 -19.1875 11.3125 C-19.1875 10.6525 -19.1875 9.9925 -19.1875 9.3125 C-18.5275 8.9825 -17.8675 8.6525 -17.1875 8.3125 C-16.919375 7.52875 -16.65125 6.745 -16.375 5.9375 C-13.27272492 -0.9201607 -6.50514968 -0.11608047 0 0 Z " fill="#1E7CE0" transform="translate(103.1875,171.6875)"/>
<path d="M0 0 C3.63 0 7.26 0 11 0 C11 8.25 11 16.5 11 25 C10.67 25 10.34 25 10 25 C9.34 17.08 8.68 9.16 8 1 C6.35 1 4.7 1 3 1 C2.731875 1.763125 2.46375 2.52625 2.1875 3.3125 C1 6 1 6 -0.5625 7.5 C-2.48593335 9.50706089 -2.63468585 11.29667526 -3 14 C-3.66 14 -4.32 14 -5 14 C-5 14.66 -5 15.32 -5 16 C-5.99 16.33 -6.98 16.66 -8 17 C-7.67 14.69 -7.34 12.38 -7 10 C-6.01 9.67 -5.02 9.34 -4 9 C-3.65657551 7.66923011 -3.32380126 6.33568021 -3 5 C-2.01 4.34 -1.02 3.68 0 3 C0 2.01 0 1.02 0 0 Z " fill="#207EE8" transform="translate(602,164)"/>
<path d="M0 0 C4.19469571 0.59924224 8.00999834 1.57499941 12 3 C13.06351675 6.38391693 13.21442982 7.5804634 11.5625 10.8125 C11.046875 11.534375 10.53125 12.25625 10 13 C10 10 10 10 11 5 C7.37 5 3.74 5 0 5 C-0.33 5.99 -0.66 6.98 -1 8 C-4.83542457 10.55694972 -6.65902533 10.04045639 -11.1875 9.625 C-13.09595703 9.45871094 -13.09595703 9.45871094 -15.04296875 9.2890625 C-16.01878906 9.19367188 -16.99460937 9.09828125 -18 9 C-18 8.67 -18 8.34 -18 8 C-16.89591797 7.94392578 -16.89591797 7.94392578 -15.76953125 7.88671875 C-8.33536689 7.54562425 -8.33536689 7.54562425 -2 4 C-0.67206394 1.93299345 -0.67206394 1.93299345 0 0 Z " fill="#1A45A6" transform="translate(492,195)"/>
<path d="M0 0 C2.1610211 3.24153166 2.64247553 4.23692901 2 8 C-0.5 10.3125 -0.5 10.3125 -3 12 C-3.99 11.34 -4.98 10.68 -6 10 C-6 9.34 -6 8.68 -6 8 C-6.66 8 -7.32 8 -8 8 C-8 8.66 -8 9.32 -8 10 C-10.375 10.625 -10.375 10.625 -13 11 C-13.66 10.34 -14.32 9.68 -15 9 C-13.02 8.67 -11.04 8.34 -9 8 C-8.8453125 7.0409375 -8.8453125 7.0409375 -8.6875 6.0625 C-8.460625 5.381875 -8.23375 4.70125 -8 4 C-7.01 3.67 -6.02 3.34 -5 3 C-4.67 2.34 -4.34 1.68 -4 1 C-1.9375 0.375 -1.9375 0.375 0 0 Z " fill="#126BFC" transform="translate(547,180)"/>
<path d="M0 0 C1.50433594 0.01353516 1.50433594 0.01353516 3.0390625 0.02734375 C3.80992187 0.03894531 4.58078125 0.05054688 5.375 0.0625 C7.67271877 3.68552413 7.53671042 6.57550246 7.3515625 10.796875 C7.3 12.09238281 7.2484375 13.38789063 7.1953125 14.72265625 C7.13044062 16.08594857 7.06533347 17.44922972 7 18.8125 C6.94172442 20.19136502 6.88442192 21.57027153 6.828125 22.94921875 C6.68665822 26.32084372 6.53524172 29.69172366 6.375 33.0625 C6.045 33.0625 5.715 33.0625 5.375 33.0625 C5.375 22.8325 5.375 12.6025 5.375 2.0625 C1.745 2.0625 -1.885 2.0625 -5.625 2.0625 C-5.295 3.3825 -4.965 4.7025 -4.625 6.0625 C-5.945 6.3925 -7.265 6.7225 -8.625 7.0625 C-8.728125 7.701875 -8.83125 8.34125 -8.9375 9 C-9.164375 9.680625 -9.39125 10.36125 -9.625 11.0625 C-10.615 11.3925 -11.605 11.7225 -12.625 12.0625 C-7.97740041 -0.09276047 -7.97740041 -0.09276047 0 0 Z " fill="#175195" transform="translate(607.625,161.9375)"/>
<path d="M0 0 C0.5775 0.7425 1.155 1.485 1.75 2.25 C2.86375 3.61125 2.86375 3.61125 4 5 C4.56460937 5.69867188 5.12921875 6.39734375 5.7109375 7.1171875 C8.77782479 9.6397808 10.94276901 9.66358973 14.875 9.875 C16.06867188 9.95492187 17.26234375 10.03484375 18.4921875 10.1171875 C22.05555704 9.99814397 24.69986036 9.30188995 28 8 C26.25 11.875 26.25 11.875 24 13 C18.35294118 14.17647059 18.35294118 14.17647059 16 13 C12.89048688 12.48102095 9.7737187 12.03932524 6.65234375 11.59765625 C5.77707031 11.40042969 4.90179688 11.20320312 4 11 C3.67 10.34 3.34 9.68 3 9 C2.01 8.67 1.02 8.34 0 8 C-1.3125 5.625 -1.3125 5.625 -2 3 C-1.34 2.01 -0.68 1.02 0 0 Z " fill="#1152E1" transform="translate(466,194)"/>
<path d="M0 0 C3.63 0 7.26 0 11 0 C10.67 0.99 10.34 1.98 10 3 C7.69 3 5.38 3 3 3 C2.8453125 4.6396875 2.8453125 4.6396875 2.6875 6.3125 C1.80239521 11.05988024 1.80239521 11.05988024 -1 13 C-1.99 13.33 -2.98 13.66 -4 14 C-4.57766221 8.22337788 -2.72350644 4.93635543 0 0 Z " fill="#9AA2AF" transform="translate(419,163)"/>
<path d="M0 0 C3.97891352 -0.11735877 7.9573746 -0.18763654 11.9375 -0.25 C13.05447266 -0.28351563 14.17144531 -0.31703125 15.32226562 -0.3515625 C22.52379046 -0.43603786 27.71879446 0.44975339 34 4 C34.99 4.515625 35.98 5.03125 37 5.5625 C39 7 39 7 40 10 C38.35 10 36.7 10 35 10 C35 9.01 35 8.02 35 7 C32.09375703 6.26010787 29.17849225 5.58349094 26.25 4.9375 C25.45078125 4.76089844 24.6515625 4.58429688 23.828125 4.40234375 C23.22484375 4.26957031 22.6215625 4.13679688 22 4 C22 3.01 22 2.02 22 1 C14.74 1 7.48 1 0 1 C0 0.67 0 0.34 0 0 Z " fill="#2B3F68" transform="translate(149,115)"/>
<path d="M0 0 C4.53275518 2.20512414 6.32384031 4.23617773 8 9 C8.8483449 15.27542803 7.77598198 20.34889382 5 26 C2.8125 27.5 2.8125 27.5 1 28 C1.33 26.02 1.66 24.04 2 22 C2.99 22 3.98 22 5 22 C4.979375 20.906875 4.95875 19.81375 4.9375 18.6875 C5 15 5 15 6 12 C5.34 12 4.68 12 4 12 C3.67 9.36 3.34 6.72 3 4 C2.34 4 1.68 4 1 4 C0.67 2.68 0.34 1.36 0 0 Z " fill="#1D5AB8" transform="translate(544,166)"/>
<path d="M0 0 C0 0.66 0 1.32 0 2 C-0.66 2 -1.32 2 -2 2 C-2.33 2.99 -2.66 3.98 -3 5 C-3.845625 5.61875 -4.69125 6.2375 -5.5625 6.875 C-8.28684933 8.7676163 -8.28684933 8.7676163 -8.3125 11.75 C-8.209375 12.4925 -8.10625 13.235 -8 14 C-9.98 14 -11.96 14 -14 14 C-13.67 13.01 -13.34 12.02 -13 11 C-12.34 11 -11.68 11 -11 11 C-11.103125 10.113125 -11.20625 9.22625 -11.3125 8.3125 C-10.90194499 3.96061694 -9.28831975 2.74026646 -6 0 C-3.50907189 -1.24546405 -2.58919267 -0.7767578 0 0 Z " fill="#165BD0" transform="translate(128,130)"/>
<path d="M0 0 C1.16337891 0.00322266 2.32675781 0.00644531 3.52539062 0.00976562 C4.74033203 0.01814453 5.95527344 0.02652344 7.20703125 0.03515625 C8.43357422 0.03966797 9.66011719 0.04417969 10.92382812 0.04882812 C13.95577793 0.0606256 16.98763031 0.07708704 20.01953125 0.09765625 C20.01953125 0.75765625 20.01953125 1.41765625 20.01953125 2.09765625 C19.02953125 2.42765625 18.03953125 2.75765625 17.01953125 3.09765625 C17.01953125 2.43765625 17.01953125 1.77765625 17.01953125 1.09765625 C12.06953125 2.58265625 12.06953125 2.58265625 7.01953125 4.09765625 C6.35953125 3.43765625 5.69953125 2.77765625 5.01953125 2.09765625 C4.68953125 2.75765625 4.35953125 3.41765625 4.01953125 4.09765625 C3.25640625 3.91203125 2.49328125 3.72640625 1.70703125 3.53515625 C-3.28316197 2.94309943 -8.00650078 3.52237526 -12.98046875 4.09765625 C-8.60360038 0.62634685 -5.54329239 -0.02704045 0 0 Z " fill="#2E57A1" transform="translate(150.98046875,115.90234375)"/>
<path d="M0 0 C2.475 0.99 2.475 0.99 5 2 C5.33 4.64 5.66 7.28 6 10 C6.66 10 7.32 10 8 10 C8.33 11.98 8.66 13.96 9 16 C5.75487649 13.21846556 5.13307612 11.26615224 3 7 C2.67 13.93 2.34 20.86 2 28 C1.67 28 1.34 28 1 28 C0.67 24.04 0.34 20.08 0 16 C-0.33 16 -0.66 16 -1 16 C-1.02701408 13.89590361 -1.04640223 11.79170822 -1.0625 9.6875 C-1.07410156 8.51574219 -1.08570313 7.34398437 -1.09765625 6.13671875 C-1 3 -1 3 0 0 Z " fill="#0C3EA9" transform="translate(570,187)"/>
<path d="M0 0 C1.67542976 0.28604898 3.34385343 0.61781233 5 1 C0.399949 6.31880897 -4.21561079 8.71028599 -11.265625 9.25 C-21.01958921 9.424959 -21.01958921 9.424959 -25 7 C-23.96101563 6.95101562 -22.92203125 6.90203125 -21.8515625 6.8515625 C-14.08046683 6.44790554 -6.58427772 5.87783799 1 4 C1 3.34 1 2.68 1 2 C0.34 1.67 -0.32 1.34 -1 1 C-0.67 0.67 -0.34 0.34 0 0 Z " fill="#1438A3" transform="translate(495,208)"/>
<path d="M0 0 C-0.33 2.64 -0.66 5.28 -1 8 C-6.324335 10.32086397 -10.43842552 9.91457003 -16 9 C-16 8.67 -16 8.34 -16 8 C-12.7 7.67 -9.4 7.34 -6 7 C-6.66 6.67 -7.32 6.34 -8 6 C-7.6875 4.125 -7.6875 4.125 -7 2 C-4 0 -4 0 0 0 Z " fill="#757986" transform="translate(415,207)"/>
<path d="M0 0 C4.0980738 -0.47059221 7.92079117 -0.69929294 12 0 C14.66024255 2.24357805 16.09946432 4.642901 17 8 C16.60546875 10.265625 16.60546875 10.265625 16 12 C16 11.34 16 10.68 16 10 C15.01 9.67 14.02 9.34 13 9 C12.22227595 6.66682784 11.57584432 4.38564077 11 2 C8.69 2 6.38 2 4 2 C3.34 4.31 2.68 6.62 2 9 C1.67 9 1.34 9 1 9 C0.67 6.03 0.34 3.06 0 0 Z " fill="#2081ED" transform="translate(559,164)"/>
<path d="M0 0 C0.33 0.66 0.66 1.32 1 2 C1.66 2 2.32 2 3 2 C2.01 4.97 1.02 7.94 0 11 C-0.99 11 -1.98 11 -3 11 C-3.33 9.68 -3.66 8.36 -4 7 C-4.66 7 -5.32 7 -6 7 C-6.33 5.35 -6.66 3.7 -7 2 C-6.01 2 -5.02 2 -4 2 C-1.84971696 1.05021103 -1.84971696 1.05021103 0 0 Z " fill="#0F60F3" transform="translate(582,190)"/>
<path d="M0 0 C3.00041757 1.50020878 4.70597782 2.47877886 6.375 5.4375 C7.02758299 8.11309027 6.94467607 9.44937462 6 12 C3.69 12 1.38 12 -1 12 C-1 11.67 -1 11.34 -1 11 C0.65 11 2.3 11 4 11 C2.02 10.34 0.04 9.68 -2 9 C-1.34 8.67 -0.68 8.34 0 8 C0 5.36 0 2.72 0 0 Z " fill="#1D68C9" transform="translate(498,168)"/>
<path d="M0 0 C-3 2 -3 2 -6.4375 3.1875 C-10.80290846 5.40849728 -12.32629147 7.48466544 -14 12 C-14.54283095 14.36913507 -14.80135089 16.56654844 -15 19 C-15.33 19 -15.66 19 -16 19 C-16 14.71 -16 10.42 -16 6 C-14.68 5.67 -13.36 5.34 -12 5 C-12 3.68 -12 2.36 -12 1 C-8.00439392 -1.83022097 -4.57262677 -0.76210446 0 0 Z " fill="#165AAC" transform="translate(481,173)"/>
<path d="M0 0 C3.84955327 0 5.74197937 0.06279854 9 2 C9.8125 5.125 9.8125 5.125 10 8 C6.28400809 8.20086443 5.22791555 8.1519437 2 6 C2 5.34 2 4.68 2 4 C1.01 4 0.02 4 -1 4 C-0.67 2.68 -0.34 1.36 0 0 Z " fill="#0E49F4" transform="translate(540,206)"/>
<path d="M0 0 C0.33 0 0.66 0 1 0 C1.33 3.96 1.66 7.92 2 12 C2.66 12 3.32 12 4 12 C4 13.32 4 14.64 4 16 C4.99 16.33 5.98 16.66 7 17 C7.8971875 18.423125 7.8971875 18.423125 8.8125 19.875 C11.25625164 23.36607377 13.1755311 24.30023605 17 26 C17.33 26.66 17.66 27.32 18 28 C13.47907094 27.20037989 10.06993811 26.17212321 6.9140625 22.71484375 C5.15398777 20.19355527 3.52310896 17.67071461 2 15 C1.60941406 14.35417969 1.21882813 13.70835937 0.81640625 13.04296875 C-0.25693835 10.35703944 -0.19359553 8.13101242 -0.125 5.25 C-0.09792969 3.77273437 -0.09792969 3.77273437 -0.0703125 2.265625 C-0.04710937 1.51796875 -0.02390625 0.7703125 0 0 Z " fill="#0C2C7A" transform="translate(452,187)"/>
<path d="M0 0 C1.13757948 4.55031791 0.4283779 6.63084406 -1 11 C-1.66 11 -2.32 11 -3 11 C-3.268125 11.61875 -3.53625 12.2375 -3.8125 12.875 C-5 15 -5 15 -8 17 C-8.33 16.01 -8.66 15.02 -9 14 C-9.99 13.67 -10.98 13.34 -12 13 C-12 11.35 -12 9.7 -12 8 C-10.35 9.65 -8.7 11.3 -7 13 C-3.535 6.565 -3.535 6.565 0 0 Z " fill="#1555A8" transform="translate(594,175)"/>
<path d="M0 0 C0.33 0 0.66 0 1 0 C1.66 5.94 2.32 11.88 3 18 C4.98 17.67 6.96 17.34 9 17 C9.33 13.7 9.66 10.4 10 7 C10.33 7 10.66 7 11 7 C11 10.96 11 14.92 11 19 C3.28515625 19.09765625 3.28515625 19.09765625 1 19 C0 18 0 18 -0.11352539 16.23413086 C-0.10828857 15.48526611 -0.10305176 14.73640137 -0.09765625 13.96484375 C-0.09443359 13.15595703 -0.09121094 12.34707031 -0.08789062 11.51367188 C-0.07951172 10.66353516 -0.07113281 9.81339844 -0.0625 8.9375 C-0.05798828 8.08349609 -0.05347656 7.22949219 -0.04882812 6.34960938 C-0.03700373 4.23304337 -0.01906769 2.11651315 0 0 Z " fill="#0E4BDF" transform="translate(559,196)"/>
<path d="M0 0 C0.33 0.66 0.66 1.32 1 2 C1.99 1.67 2.98 1.34 4 1 C4 1.66 4 2.32 4 3 C5.32 3.33 6.64 3.66 8 4 C8 4.66 8 5.32 8 6 C8.99 6.33 9.98 6.66 11 7 C7.86650268 8.04449911 7.01031744 7.93423645 4 7 C4 6.34 4 5.68 4 5 C2.02 5.99 2.02 5.99 0 7 C-1.98 5.35 -3.96 3.7 -6 2 C-2.25 0 -2.25 0 0 0 Z " fill="#0B52F5" transform="translate(462,199)"/>
<path d="M0 0 C1.82421875 2.109375 1.82421875 2.109375 3 4 C1.02 3.34 -0.96 2.68 -3 2 C-3 1.34 -3 0.68 -3 0 C-10.92 0 -18.84 0 -27 0 C-19.17921505 -5.21385663 -8.27996348 -3.58486303 0 0 Z " fill="#1D508F" transform="translate(495,164)"/>
<path d="M0 0 C0.99 0.33 1.98 0.66 3 1 C4.35 6.4 4.35 6.4 2.6875 9.25 C1.4706127 10.5119572 0.2396271 11.7603729 -1 13 C-1.6425235 15.06874034 -1.6425235 15.06874034 -2 17 C-2.66 17 -3.32 17 -4 17 C-2.07289294 5.47835991 -2.07289294 5.47835991 0 0 Z " fill="#16499A" transform="translate(108,149)"/>
<path d="M0 0 C0.99 0.495 0.99 0.495 2 1 C3.04976964 4.14930893 3.10131595 6.38814456 3.0625 9.6875 C3.05347656 10.68136719 3.04445313 11.67523438 3.03515625 12.69921875 C3.02355469 13.45847656 3.01195312 14.21773437 3 15 C5.31 15 7.62 15 10 15 C10.33 14.34 10.66 13.68 11 13 C11 13.99 11 14.98 11 16 C7.37 16 3.74 16 0 16 C0 10.72 0 5.44 0 0 Z " fill="#114DE4" transform="translate(511,199)"/>
<path d="M0 0 C1.32 0 2.64 0 4 0 C4.2236337 1.41433206 4.42826476 2.83167618 4.625 4.25 C4.74101563 5.03890625 4.85703125 5.8278125 4.9765625 6.640625 C5.00319395 9.32152459 4.36592084 10.72694089 3 13 C1.22950311 13.05410687 -0.54146849 13.09284119 -2.3125 13.125 C-3.79169922 13.15980469 -3.79169922 13.15980469 -5.30078125 13.1953125 C-8 13 -8 13 -11 11 C-10.31292969 10.96261719 -9.62585938 10.92523438 -8.91796875 10.88671875 C-8.01691406 10.82097656 -7.11585938 10.75523437 -6.1875 10.6875 C-5.29417969 10.62949219 -4.40085937 10.57148438 -3.48046875 10.51171875 C-0.66839514 9.93159018 0.33832222 9.31627811 2 7 C1.73904456 4.32520673 1.1995243 2.39904859 0 0 Z " fill="#1955AD" transform="translate(535,175)"/>
<path d="M0 0 C2 2 2 2 2.375 4.9375 C2.70743183 8.10476185 2.70743183 8.10476185 5.0625 9.875 C5.701875 10.24625 6.34125 10.6175 7 11 C7.66 10.67 8.32 10.34 9 10 C8.67 10.99 8.34 11.98 8 13 C7.21625 12.835 6.4325 12.67 5.625 12.5 C2.3481673 11.87584139 1.22221 11.92593 -2 13 C-2.33 11.02 -2.66 9.04 -3 7 C-2.01 6.67 -1.02 6.34 0 6 C0 4.02 0 2.04 0 0 Z " fill="#1467ED" transform="translate(580,180)"/>
<path d="M0 0 C2.64787528 1.32393764 2.97166201 2.22619357 4 5 C4.265625 8.49609375 4.265625 8.49609375 4.25 12.4375 C4.25515625 13.73558594 4.2603125 15.03367188 4.265625 16.37109375 C4.01935446 19.7355839 3.46022081 21.99264047 2 25 C1.67 25 1.34 25 1 25 C1.01160156 23.69804687 1.02320313 22.39609375 1.03515625 21.0546875 C1.04453973 19.32812644 1.05363934 17.60156382 1.0625 15.875 C1.07087891 15.0190625 1.07925781 14.163125 1.08789062 13.28125 C1.10538306 8.73321589 0.93192358 4.47616836 0 0 Z " fill="#0C3E97" transform="translate(131,188)"/>
<path d="M0 0 C-0.33 0.99 -0.66 1.98 -1 3 C-2.9375 3.5625 -2.9375 3.5625 -5 4 C-5.66 4.66 -6.32 5.32 -7 6 C-7.99 6 -8.98 6 -10 6 C-10 5.01 -10 4.02 -10 3 C-10.33 2.34 -10.66 1.68 -11 1 C-10 -1 -10 -1 -8.3125 -1.75 C-5.17326781 -2.08937645 -2.91097894 -1.12469641 0 0 Z " fill="#0C53F4" transform="translate(502,201)"/>
<path d="M0 0 C0.66 0.33 1.32 0.66 2 1 C1.34 2.32 0.68 3.64 0 5 C-0.66 5 -1.32 5 -2 5 C-2.061875 5.556875 -2.12375 6.11375 -2.1875 6.6875 C-3.33373872 9.94987173 -5.49390197 11.68667874 -8 14 C-8.66 13.67 -9.32 13.34 -10 13 C-9.34 11.35 -8.68 9.7 -8 8 C-7.34 8 -6.68 8 -6 8 C-5.7525 7.4225 -5.505 6.845 -5.25 6.25 C-3.83316683 3.6997003 -2.12372463 1.98214299 0 0 Z " fill="#206DBD" transform="translate(86,176)"/>
<path d="M0 0 C0.33 0 0.66 0 1 0 C1.2475 0.86625 1.495 1.7325 1.75 2.625 C3.06960322 6.18792868 4.88484821 8.86138767 7 12 C7.75 14.375 7.75 14.375 8 16 C7.01 16 6.02 16 5 16 C0.83746501 10.49076251 -0.12893738 6.83368138 0 0 Z " fill="#1247AD" transform="translate(75,205)"/>
<path d="M0 0 C4.3590077 3.48720616 4.94552183 6.72760915 6 12 C2.04 12 -1.92 12 -6 12 C-5.67 10.35 -5.34 8.7 -5 7 C-4.67 7.66 -4.34 8.32 -4 9 C-2.11235097 9.68472665 -2.11235097 9.68472665 0.0625 10.125 C1.16271484 10.37636719 1.16271484 10.37636719 2.28515625 10.6328125 C2.85105469 10.75398437 3.41695312 10.87515625 4 11 C3.67 9.02 3.34 7.04 3 5 C2.01 4.67 1.02 4.34 0 4 C0 2.68 0 1.36 0 0 Z " fill="#1146E1" transform="translate(546,203)"/>
<path d="M0 0 C0.66 -0.33 1.32 -0.66 2 -1 C3.54613014 -0.91348369 5.08909387 -0.75997364 6.625 -0.5625 C7.85089844 -0.40974609 7.85089844 -0.40974609 9.1015625 -0.25390625 C10.04128906 -0.12822266 10.04128906 -0.12822266 11 0 C10.67 0.66 10.34 1.32 10 2 C2.08 2 -5.84 2 -14 2 C-14 1.67 -14 1.34 -14 1 C-8.77964754 -0.81114269 -5.54445497 -0.97843323 0 0 Z " fill="#020204" transform="translate(200,231)"/>
<path d="M0 0 C2.375 0.25 2.375 0.25 5 1 C6.3125 3.0625 6.3125 3.0625 7 5 C8.98 4.34 10.96 3.68 13 3 C13.66 4.98 14.32 6.96 15 9 C8.01704814 7.4542592 4.02778947 6.04168421 0 0 Z " fill="#0E39B1" transform="translate(82,222)"/>
<path d="M0 0 C1.00496852 3.01490557 1.10335303 5.04181692 1.0625 8.1875 C1.05347656 9.08855469 1.04445313 9.98960937 1.03515625 10.91796875 C1.02355469 11.60503906 1.01195312 12.29210937 1 13 C0.360625 13.28875 -0.27875 13.5775 -0.9375 13.875 C-3.15206079 14.82823451 -3.15206079 14.82823451 -4 17 C-4.66 17 -5.32 17 -6 17 C-4.14506608 11.28062041 -2.06896109 5.64444725 0 0 Z " fill="#696D78" transform="translate(405,197)"/>
<path d="M0 0 C0.33 0.66 0.66 1.32 1 2 C-0.24125182 4.61161731 -1.5310524 7.10501786 -2.9375 9.625 C-3.32357422 10.33140625 -3.70964844 11.0378125 -4.10742188 11.765625 C-5.06448696 13.51433651 -6.03134031 15.25768432 -7 17 C-9.97 17 -12.94 17 -16 17 C-16.33 16.34 -16.66 15.68 -17 15 C-14.03 15.33 -11.06 15.66 -8 16 C-8 14.68 -8 13.36 -8 12 C-7.34 12 -6.68 12 -6 12 C-6 11.01 -6 10.02 -6 9 C-5.34 9 -4.68 9 -4 9 C-3.896875 7.88625 -3.79375 6.7725 -3.6875 5.625 C-3.460625 4.42875 -3.23375 3.2325 -3 2 C-2.01 1.34 -1.02 0.68 0 0 Z " fill="#11358E" transform="translate(598,193)"/>
<path d="M0 0 C1 2 1 2 0.2578125 4.34765625 C-0.30292969 5.69150391 -0.30292969 5.69150391 -0.875 7.0625 C-1.42800781 8.41021484 -1.42800781 8.41021484 -1.9921875 9.78515625 C-3 12 -3 12 -4 13 C-6.35313555 13.07271741 -8.70833668 13.08370868 -11.0625 13.0625 C-12.35285156 13.05347656 -13.64320313 13.04445312 -14.97265625 13.03515625 C-15.97167969 13.02355469 -16.97070312 13.01195312 -18 13 C-18 12.67 -18 12.34 -18 12 C-12.06 11.505 -12.06 11.505 -6 11 C-5.67 9.68 -5.34 8.36 -5 7 C-4.67 6.34 -4.34 5.68 -4 5 C-3.34 5 -2.68 5 -2 5 C-1.34 3.35 -0.68 1.7 0 0 Z " fill="#5E636D" transform="translate(391,203)"/>
<path d="M0 0 C2 0 2 0 3.625 1.25 C5 3 5 3 5 7 C5.66 7.33 6.32 7.66 7 8 C6.67 10.31 6.34 12.62 6 15 C4 14 4 14 2.9296875 11.09375 C2.58164062 9.9078125 2.23359375 8.721875 1.875 7.5 C1.52179688 6.3140625 1.16859375 5.128125 0.8046875 3.90625 C0 1 0 1 0 0 Z " fill="#7D838F" transform="translate(360,181)"/>
<path d="M0 0 C0 0.66 0 1.32 0 2 C-1.546875 2.12375 -1.546875 2.12375 -3.125 2.25 C-7.3354046 3.06491702 -9.51417749 4.5986556 -13 7 C-14.32 7 -15.64 7 -17 7 C-17 6.34 -17 5.68 -17 5 C-11.58287902 0.5308752 -6.99255495 0 0 0 Z " fill="#2171C9" transform="translate(477,163)"/>
<path d="M0 0 C1.66666667 0 3.33333333 0 5 0 C5.3125 2.6875 5.3125 2.6875 5 6 C2.5 8.875 2.5 8.875 0 11 C0 7.37 0 3.74 0 0 Z " fill="#1263F7" transform="translate(511,188)"/>
<path d="M0 0 C3 3.75 3 3.75 3 6 C5.64 6 8.28 6 11 6 C10.01 6.33 9.02 6.66 8 7 C8 7.66 8 8.32 8 9 C7.01 9 6.02 9 5 9 C4.67 10.32 4.34 11.64 4 13 C3.71125 12.195625 3.4225 11.39125 3.125 10.5625 C2.26737432 7.8673532 2.26737432 7.8673532 0 7 C0 4.69 0 2.38 0 0 Z " fill="#1B273F" transform="translate(208,141)"/>
<path d="M0 0 C1.81325551 0.11351517 3.62563357 0.24112961 5.4375 0.375 C6.95150391 0.47941406 6.95150391 0.47941406 8.49609375 0.5859375 C9.73552734 0.79089844 9.73552734 0.79089844 11 1 C11.33 1.66 11.66 2.32 12 3 C7.68 6 7.68 6 4.875 6 C2.21965017 4.58381342 1.34760214 2.62782417 0 0 Z " fill="#969EAC" transform="translate(328,194)"/>
<path d="M0 0 C5.86497644 -0.31419517 10.80396325 0.02906032 16 3 C17.5 5.1875 17.5 5.1875 18 7 C16.35 7 14.7 7 13 7 C13 6.01 13 5.02 13 4 C10.09375703 3.26010787 7.17849225 2.58349094 4.25 1.9375 C3.45078125 1.76089844 2.6515625 1.58429688 1.828125 1.40234375 C1.22484375 1.26957031 0.6215625 1.13679688 0 1 C0 0.67 0 0.34 0 0 Z " fill="#385790" transform="translate(171,118)"/>
<path d="M0 0 C1.65 0.33 3.3 0.66 5 1 C5.20140476 4.62528568 4.85776765 6.86501708 3 10 C1.35 9.67 -0.3 9.34 -2 9 C-1.67 7.68 -1.34 6.36 -1 5 C-0.360625 4.87625 0.27875 4.7525 0.9375 4.625 C1.618125 4.41875 2.29875 4.2125 3 4 C3.33 3.34 3.66 2.68 4 2 C2.68 1.67 1.36 1.34 0 1 C0 0.67 0 0.34 0 0 Z " fill="#114DDF" transform="translate(498,199)"/>
<path d="M0 0 C1.98 0 3.96 0 6 0 C5.01 0.66 4.02 1.32 3 2 C0.95554727 3.82187118 -1.05527549 5.67629733 -3.0625 7.5390625 C-5 9 -5 9 -8 9 C-8 8.34 -8 7.68 -8 7 C-7.34 6.67 -6.68 6.34 -6 6 C-4.86649466 3.98330173 -4.86649466 3.98330173 -4 2 C-2.68 2 -1.36 2 0 2 C0 1.34 0 0.68 0 0 Z " fill="#1B85F4" transform="translate(92,174)"/>
<path d="M0 0 C3.96 0 7.92 0 12 0 C13.31223496 3.93670488 12.24296256 6.12488144 11 10 C9.35173889 7.03312999 8.55728913 4.34373475 8 1 C5.36 1 2.72 1 0 1 C0 0.67 0 0.34 0 0 Z " fill="#5F636E" transform="translate(394,162)"/>
<path d="M0 0 C5.18039987 -0.63175608 7.66878358 0.74182681 11.6796875 3.7109375 C12.11539063 4.13632813 12.55109375 4.56171875 13 5 C13 5.66 13 6.32 13 7 C11.35 6.67 9.7 6.34 8 6 C8 5.34 8 4.68 8 4 C5.36 3.34 2.72 2.68 0 2 C0 1.34 0 0.68 0 0 Z " fill="#273347" transform="translate(216,148)"/>
<path d="M0 0 C0.556875 0.226875 1.11375 0.45375 1.6875 0.6875 C1.6875 1.3475 1.6875 2.0075 1.6875 2.6875 C1.0275 2.6875 0.3675 2.6875 -0.3125 2.6875 C-0.6425 3.6775 -0.9725 4.6675 -1.3125 5.6875 C-3.7875 4.6975 -3.7875 4.6975 -6.3125 3.6875 C-6.3125 4.6775 -6.3125 5.6675 -6.3125 6.6875 C-7.3025 7.0175 -8.2925 7.3475 -9.3125 7.6875 C-8.35178241 4.45599539 -7.61838515 2.92898827 -4.9375 0.8125 C-2.3125 -0.3125 -2.3125 -0.3125 0 0 Z " fill="#1A4DAB" transform="translate(126.3125,129.3125)"/>
<path d="M0 0 C3.90390165 0.82582535 6.41738462 1.43313098 9.3125 4.25 C11.06810636 7.11098815 12.09980372 9.77429667 13 13 C12.34 13 11.68 13 11 13 C10.608125 12.071875 10.21625 11.14375 9.8125 10.1875 C7.83703488 6.71340617 6.50419574 5.75209787 3 4 C2.01 3.34 1.02 2.68 0 2 C0 1.34 0 0.68 0 0 Z " fill="#0D4CA7" transform="translate(118,174)"/>
<path d="M0 0 C0.99 0.33 1.98 0.66 3 1 C0.25 7.875 0.25 7.875 -2 9 C-2 9.66 -2 10.32 -2 11 C-2.99 11.33 -3.98 11.66 -5 12 C-4.67 9.69 -4.34 7.38 -4 5 C-3.01 4.67 -2.02 4.34 -1 4 C-0.26676204 1.98491642 -0.26676204 1.98491642 0 0 Z " fill="#177CEF" transform="translate(599,169)"/>
<path d="M0 0 C0.625 1.8125 0.625 1.8125 1 4 C0.01 5.485 0.01 5.485 -1 7 C-1.16713569 9.62531524 -1.16713569 9.62531524 -1 12 C-4.14958831 8.57653445 -4.56179109 5.55737263 -5 1 C-4.34 1.66 -3.68 2.32 -3 3 C-2.01 2.01 -1.02 1.02 0 0 Z " fill="#7B8292" transform="translate(359,164)"/>
<path d="M0 0 C0 2.31 0 4.62 0 7 C-1.98 6.34 -3.96 5.68 -6 5 C-6.33 3.35 -6.66 1.7 -7 0 C-3.86650268 -1.04449911 -3.01031744 -0.93423645 0 0 Z " fill="#0D4FEC" transform="translate(88,217)"/>
<path d="M0 0 C0.33 1.32 0.66 2.64 1 4 C-2.83542457 6.55694972 -4.65902533 6.04045639 -9.1875 5.625 C-10.45980469 5.51414063 -11.73210937 5.40328125 -13.04296875 5.2890625 C-14.50669922 5.14597656 -14.50669922 5.14597656 -16 5 C-16 4.67 -16 4.34 -16 4 C-14.89591797 3.94392578 -14.89591797 3.94392578 -13.76953125 3.88671875 C-6.39587342 3.47015527 -6.39587342 3.47015527 0 0 Z " fill="#0E3892" transform="translate(490,199)"/>
<path d="M0 0 C0.33 0 0.66 0 1 0 C1 4.95 1 9.9 1 15 C-0.98 15 -2.96 15 -5 15 C-4.67 14.34 -4.34 13.68 -4 13 C-3.34 13 -2.68 13 -2 13 C-1.34 8.71 -0.68 4.42 0 0 Z " fill="#0D4EEB" transform="translate(611,199)"/>
<path d="M0 0 C-0.33 1.98 -0.66 3.96 -1 6 C-2.9375 5.6875 -2.9375 5.6875 -5 5 C-5.33 4.01 -5.66 3.02 -6 2 C-6.66 1.67 -7.32 1.34 -8 1 C-3.375 -1.125 -3.375 -1.125 0 0 Z " fill="#215BC4" transform="translate(145,120)"/>
<path d="M0 0 C6 2 6 2 7 4 C7.99 4.66 8.98 5.32 10 6 C9.071875 5.7834375 9.071875 5.7834375 8.125 5.5625 C3.77462983 4.77943337 -0.60021907 4.40153341 -5 4 C-2.6875 1.9375 -2.6875 1.9375 0 0 Z " fill="#1C7EF5" transform="translate(529,169)"/>
<path d="M0 0 C2 2 2 2 2 8 C-2.29 8 -6.58 8 -11 8 C-11 7.67 -11 7.34 -11 7 C-7.7 7 -4.4 7 -1 7 C-0.67 4.69 -0.34 2.38 0 0 Z " fill="#71787F" transform="translate(450,208)"/>
<path d="M0 0 C0.66 0.33 1.32 0.66 2 1 C2 2.65 2 4.3 2 6 C1.34 6 0.68 6 0 6 C-0.33 6.66 -0.66 7.32 -1 8 C-1.66 7.34 -2.32 6.68 -3 6 C-2.75 3.4375 -2.75 3.4375 -2 1 C-1.34 0.67 -0.68 0.34 0 0 Z " fill="#0A4FD9" transform="translate(544,200)"/>
<path d="M0 0 C4.875 2.75 4.875 2.75 6 5 C6.04022391 7.3329866 6.04320247 9.66706666 6 12 C5.34 12 4.68 12 4 12 C3.67 9.36 3.34 6.72 3 4 C2.34 4 1.68 4 1 4 C0.67 2.68 0.34 1.36 0 0 Z " fill="#206AC9" transform="translate(544,166)"/>
<path d="M0 0 C0.66 0.33 1.32 0.66 2 1 C1.34 4.3 0.68 7.6 0 11 C-0.66 11 -1.32 11 -2 11 C-2.25 3.375 -2.25 3.375 0 0 Z " fill="#1652C4" transform="translate(108,159)"/>
<path d="M0 0 C2.38672669 2.96283313 4.7353371 5.94270509 7 9 C5.68 8.34 4.36 7.68 3 7 C2.67 7.33 2.34 7.66 2 8 C1.34 8 0.68 8 0 8 C-1.125 5.6875 -1.125 5.6875 -2 3 C-1.34 2.01 -0.68 1.02 0 0 Z " fill="#0D41B0" transform="translate(466,194)"/>
<path d="M0 0 C0.66 0 1.32 0 2 0 C1.67 6.6 1.34 13.2 1 20 C0.67 20 0.34 20 0 20 C-0.1946838 17.22949974 -0.38102792 14.45886998 -0.5625 11.6875 C-0.61857422 10.90181641 -0.67464844 10.11613281 -0.73242188 9.30664062 C-0.78076172 8.54931641 -0.82910156 7.79199219 -0.87890625 7.01171875 C-0.9260376 6.31522217 -0.97316895 5.61872559 -1.02172852 4.90112305 C-1 3 -1 3 0 0 Z " fill="#04499B" transform="translate(600,189)"/>
<path d="M0 0 C0.33 1.32 0.66 2.64 1 4 C0.34 4 -0.32 4 -1 4 C-1.28875 5.134375 -1.5775 6.26875 -1.875 7.4375 C-2.24625 8.613125 -2.6175 9.78875 -3 11 C-3.99 11.495 -3.99 11.495 -5 12 C-5.56705966 7.17999289 -3.84482 4.79309334 -1 1 C-0.67 0.67 -0.34 0.34 0 0 Z " fill="#1A4AA0" transform="translate(116,137)"/>
<path d="M0 0 C-1.26538369 0.84158536 -2.53753779 1.67299748 -3.8125 2.5 C-4.87404297 3.19609375 -4.87404297 3.19609375 -5.95703125 3.90625 C-8 5 -8 5 -11 5 C-11.33 4.34 -11.66 3.68 -12 3 C-10.3789897 2.30314502 -8.75303934 1.61777139 -7.125 0.9375 C-6.22007812 0.55464844 -5.31515625 0.17179688 -4.3828125 -0.22265625 C-2 -1 -2 -1 0 0 Z " fill="#020813" transform="translate(184,226)"/>
<path d="M0 0 C0.33 0 0.66 0 1 0 C1.054138 2.24973447 1.09285491 4.49984383 1.125 6.75 C1.14820313 8.00296875 1.17140625 9.2559375 1.1953125 10.546875 C1.01537302 13.72820492 0.68998582 15.36521896 -1 18 C-1.66 18 -2.32 18 -3 18 C-2.690625 17.2575 -2.38125 16.515 -2.0625 15.75 C-0.59001036 10.55297775 -0.33050945 5.37512737 0 0 Z " fill="#1B60E4" transform="translate(132,194)"/>
<path d="M0 0 C0.66 0 1.32 0 2 0 C2.33 3.96 2.66 7.92 3 12 C2.34 12 1.68 12 1 12 C0.03929566 9.11788698 -0.10581883 7.30149956 -0.0625 4.3125 C-0.05347656 3.50425781 -0.04445313 2.69601563 -0.03515625 1.86328125 C-0.02355469 1.24839844 -0.01195312 0.63351563 0 0 Z " fill="#1D67DA" transform="translate(463,184)"/>
<path d="M0 0 C-0.14308594 0.55171875 -0.28617187 1.1034375 -0.43359375 1.671875 C-1.0455309 4.18714769 -1.56126811 6.71042508 -2.0625 9.25 C-2.23910156 10.14203125 -2.41570312 11.0340625 -2.59765625 11.953125 C-2.73042969 12.62859375 -2.86320312 13.3040625 -3 14 C-3.33 14 -3.66 14 -4 14 C-4 9.71 -4 5.42 -4 1 C-2 0 -2 0 0 0 Z " fill="#134897" transform="translate(469,178)"/>
<path d="M0 0 C0.309375 0.639375 0.61875 1.27875 0.9375 1.9375 C1.8345163 3.93610821 1.8345163 3.93610821 3 5 C4.34747084 5.23075082 5.70377565 5.41153063 7.0625 5.5625 C8.361875 5.706875 9.66125 5.85125 11 6 C11 6.33 11 6.66 11 7 C9.37509046 7.02698189 7.75005367 7.04638757 6.125 7.0625 C4.76761719 7.07990234 4.76761719 7.07990234 3.3828125 7.09765625 C1 7 1 7 -1 6 C-1.042721 4.33388095 -1.04063832 2.66617115 -1 1 C-0.67 0.67 -0.34 0.34 0 0 Z " fill="#0F39DD" transform="translate(601,208)"/>
<path d="M0 0 C0.66 0 1.32 0 2 0 C2 0.66 2 1.32 2 2 C3.32 1.67 4.64 1.34 6 1 C6 1.66 6 2.32 6 3 C6.78375 3.28875 7.5675 3.5775 8.375 3.875 C11 5 11 5 13 7 C8.6570138 6.34197179 4.92722404 4.96361202 1 3 C0.67 2.01 0.34 1.02 0 0 Z " fill="#5D606B" transform="translate(271,210)"/>
<path d="M0 0 C-1.97420135 2.52259061 -2.96745642 2.9929808 -6.1875 3.6875 C-7.5796875 3.8421875 -7.5796875 3.8421875 -9 4 C-9.33 3.01 -9.66 2.02 -10 1 C-6.78548731 -0.60725635 -3.56387464 -0.05748185 0 0 Z " fill="#959BAD" transform="translate(429,195)"/>
<path d="M0 0 C6.93 0.495 6.93 0.495 14 1 C10.09567131 2.95216435 7.27786748 3.50639991 3 4 C2.01 2.68 1.02 1.36 0 0 Z " fill="#134079" transform="translate(490,179)"/>
<path d="M0 0 C1.77049689 -0.05410687 3.54146849 -0.09284119 5.3125 -0.125 C6.29863281 -0.14820313 7.28476562 -0.17140625 8.30078125 -0.1953125 C11 0 11 0 14 2 C13.67 2.99 13.34 3.98 13 5 C11.68 4.34 10.36 3.68 9 3 C9.33 2.34 9.66 1.68 10 1 C6.7 1 3.4 1 0 1 C0 0.67 0 0.34 0 0 Z " fill="#515964" transform="translate(420,162)"/>
<path d="M0 0 C0 0.66 0 1.32 0 2 C-3.4019487 4.09350689 -6.05272412 4.17942163 -10 4 C-9.67 3.01 -9.34 2.02 -9 1 C-2.25 0 -2.25 0 0 0 Z " fill="#1E5CC6" transform="translate(137,124)"/>
<path d="M0 0 C0.66 0.33 1.32 0.66 2 1 C-1.32307692 5.8 -1.32307692 5.8 -4.75 6.8125 C-5.4925 6.874375 -6.235 6.93625 -7 7 C-5.66667905 3.00003714 -3.5042173 2.16217663 0 0 Z " fill="#083591" transform="translate(122,224)"/>
<path d="M0 0 C0.99 0.495 0.99 0.495 2 1 C2 2.32 2 3.64 2 5 C2.66 5 3.32 5 4 5 C4 5.66 4 6.32 4 7 C4.66 7 5.32 7 6 7 C6 7.66 6 8.32 6 9 C4.35 8.67 2.7 8.34 1 8 C0.67 5.36 0.34 2.72 0 0 Z " fill="#696C76" transform="translate(345,207)"/>
<path d="M0 0 C0.66 1.32 1.32 2.64 2 4 C-1.50776784 5.60355101 -4.14354879 6.22036864 -8 6 C-6.68 4.68 -5.36 3.36 -4 2 C-3.67 2.66 -3.34 3.32 -3 4 C-2.01 4 -1.02 4 0 4 C0 2.68 0 1.36 0 0 Z " fill="#606369" transform="translate(360,211)"/>
<path d="M0 0 C3.465 1.98 3.465 1.98 7 4 C7 4.99 7 5.98 7 7 C6.01 7 5.02 7 4 7 C4 6.34 4 5.68 4 5 C2.68 4.34 1.36 3.68 0 3 C0 2.01 0 1.02 0 0 Z " fill="#217DE9" transform="translate(120,177)"/>
<path d="M0 0 C5.66153846 2.46153846 5.66153846 2.46153846 7.375 5.1875 C7.58125 5.785625 7.7875 6.38375 8 7 C6.35 7 4.7 7 3 7 C1.79371992 4.66785852 0.8345262 2.50357861 0 0 Z " fill="#344D79" transform="translate(191,125)"/>
<path d="M0 0 C1.65 0 3.3 0 5 0 C3.9375 2 3.9375 2 2 4 C-1.6875 4.25 -1.6875 4.25 -5 4 C-4.67 3.34 -4.34 2.68 -4 2 C-2.68 2 -1.36 2 0 2 C0 1.34 0 0.68 0 0 Z " fill="#1042CE" transform="translate(113,227)"/>
<path d="M0 0 C2.97 1.98 2.97 1.98 6 4 C5.67 4.99 5.34 5.98 5 7 C4.01 7 3.02 7 2 7 C2 6.34 2 5.68 2 5 C1.34 5 0.68 5 0 5 C0 3.35 0 1.7 0 0 Z " fill="#0953E9" transform="translate(579,198)"/>
<path d="M0 0 C0.33 0.66 0.66 1.32 1 2 C0.06421005 4.35981813 -0.93347808 6.69631264 -2 9 C-2.99 8.67 -3.98 8.34 -5 8 C-4.34 6.35 -3.68 4.7 -3 3 C-2.34 3 -1.68 3 -1 3 C-0.67 2.01 -0.34 1.02 0 0 Z " fill="#1B5B9D" transform="translate(81,181)"/>
<path d="M0 0 C1.32 0 2.64 0 4 0 C4.33 2.97 4.66 5.94 5 9 C4.01 9 3.02 9 2 9 C1.855625 7.88625 1.71125 6.7725 1.5625 5.625 C1.21627965 2.17857953 1.21627965 2.17857953 0 0 Z " fill="#1450A1" transform="translate(535,175)"/>
<path d="M0 0 C4.75 0.75 4.75 0.75 7 3 C7 3.99 7 4.98 7 6 C3.63279613 4.60667426 2.0140476 3.0210714 0 0 Z " fill="#0E2D8C" transform="translate(82,222)"/>
<path d="M0 0 C0.99 0 1.98 0 3 0 C4.75 2.25 4.75 2.25 6 5 C5.6875 7.3125 5.6875 7.3125 5 9 C4.34 8.67 3.68 8.34 3 8 C2.66666667 5.66666667 2.33333333 3.33333333 2 1 C1.34 0.67 0.68 0.34 0 0 Z " fill="#5D616B" transform="translate(434,206)"/>
<path d="M0 0 C3.3566285 2.23775234 3.57996014 2.93320048 4.6875 6.625 C4.93886719 7.44226563 5.19023438 8.25953125 5.44921875 9.1015625 C5.72185547 10.04128906 5.72185547 10.04128906 6 11 C5.01 10.67 4.02 10.34 3 10 C2.05078125 7.71484375 2.05078125 7.71484375 1.3125 4.9375 C1.06113281 4.01839844 0.80976562 3.09929687 0.55078125 2.15234375 C0.36902344 1.44207031 0.18726563 0.73179687 0 0 Z " fill="#1B4E93" transform="translate(574,169)"/>
<path d="M0 0 C3.65316671 1.24976756 4.78065836 1.67098753 7 5 C5 5 3 5 1 5 C0.67 3.35 0.34 1.7 0 0 Z " fill="#223865" transform="translate(188,122)"/>
<path d="M0 0 C0.66 0 1.32 0 2 0 C2.625 1.875 2.625 1.875 3 4 C2.34 4.66 1.68 5.32 1 6 C0.01 5.67 -0.98 5.34 -2 5 C-1.125 1.125 -1.125 1.125 0 0 Z " fill="#102D64" transform="translate(125,225)"/>
<path d="M0 0 C0.99 0.33 1.98 0.66 3 1 C3 1.66 3 2.32 3 3 C3.99 3.33 4.98 3.66 6 4 C5.67 4.99 5.34 5.98 5 7 C3.29115995 5.37660195 1.62553283 3.70680947 0 2 C0 1.34 0 0.68 0 0 Z " fill="#0F3796" transform="translate(77,215)"/>
<path d="M0 0 C2.475 0.495 2.475 0.495 5 1 C4.34 3.64 3.68 6.28 3 9 C1.35173889 6.03312999 0.55728913 3.34373475 0 0 Z " fill="#5D636C" transform="translate(369,204)"/>
<path d="M0 0 C2.76 5.52 2.76 5.52 3 8 C2.01 8.99 1.02 9.98 0 11 C0 7.37 0 3.74 0 0 Z " fill="#1362E8" transform="translate(511,188)"/>
<path d="M0 0 C-0.66 0.66 -1.32 1.32 -2 2 C-4.72869407 1.96712417 -7.2966618 1.43602229 -10 1 C-10 0.67 -10 0.34 -10 0 C-6.33694766 -0.74926071 -3.57644848 -1.2380014 0 0 Z " fill="#0F2579" transform="translate(121,231)"/>
<path d="M0 0 C1.32 0 2.64 0 4 0 C4 1.65 4 3.3 4 5 C2.68 4.34 1.36 3.68 0 3 C0 2.01 0 1.02 0 0 Z " fill="#777B89" transform="translate(411,207)"/>
<path d="M0 0 C0.33 0.66 0.66 1.32 1 2 C2.32 1.67 3.64 1.34 5 1 C3.3545622 2.68762851 1.68711423 4.3540349 0 6 C-0.33 6 -0.66 6 -1 6 C-1.042721 4.33388095 -1.04063832 2.66617115 -1 1 C-0.67 0.67 -0.34 0.34 0 0 Z " fill="#135FED" transform="translate(595,190)"/>
<path d="M0 0 C6.52307692 -0.36923077 6.52307692 -0.36923077 8.9375 1.5 C9.288125 1.995 9.63875 2.49 10 3 C9.34 3.66 8.68 4.32 8 5 C8 4.34 8 3.68 8 3 C7.4225 2.87625 6.845 2.7525 6.25 2.625 C3.97664233 1.99351176 2.0746471 1.11141809 0 0 Z " fill="#154995" transform="translate(481,174)"/>
<path d="M0 0 C0.33 0.66 0.66 1.32 1 2 C1.99 2 2.98 2 4 2 C4 2.66 4 3.32 4 4 C4.99 4.33 5.98 4.66 7 5 C4.03 4.67 1.06 4.34 -2 4 C-1.34 2.68 -0.68 1.36 0 0 Z " fill="#1F79E3" transform="translate(478,169)"/>
<path d="M0 0 C2.79872437 2.52788007 4.45773019 4.20411134 5 8 C4.01 8.495 4.01 8.495 3 9 C3 7.68 3 6.36 3 5 C2.01 4.67 1.02 4.34 0 4 C0 2.68 0 1.36 0 0 Z " fill="#1840A8" transform="translate(546,203)"/>
<path d="M0 0 C1.67542976 0.28604898 3.34385343 0.61781233 5 1 C3.35 2.65 1.7 4.3 0 6 C-0.33 5.34 -0.66 4.68 -1 4 C-0.34 4 0.32 4 1 4 C1 3.34 1 2.68 1 2 C0.34 1.67 -0.32 1.34 -1 1 C-0.67 0.67 -0.34 0.34 0 0 Z " fill="#0D339E" transform="translate(495,208)"/>
<path d="M0 0 C2.29633824 3.44450737 2.54016485 5.93812283 3 10 C2.01 9.67 1.02 9.34 0 9 C0 6.03 0 3.06 0 0 Z " fill="#6A707D" transform="translate(443,189)"/>
<path d="M0 0 C0.33 0 0.66 0 1 0 C1.33 2.31 1.66 4.62 2 7 C1.34 7 0.68 7 0 7 C-0.33 7.66 -0.66 8.32 -1 9 C-1.09765625 2.84765625 -1.09765625 2.84765625 -1 1 C-0.67 0.67 -0.34 0.34 0 0 Z " fill="#2377DE" transform="translate(77,188)"/>
<path d="M0 0 C0.33 0.66 0.66 1.32 1 2 C1.66 2.33 2.32 2.66 3 3 C2.34 3 1.68 3 1 3 C1.33 3.99 1.66 4.98 2 6 C1.01 6.99 0.02 7.98 -1 9 C-0.67 6.03 -0.34 3.06 0 0 Z " fill="#767C8E" transform="translate(385,182)"/>
<path d="M0 0 C2 2 2 2 2.1875 5 C2 8 2 8 1 10 C0.34 10 -0.32 10 -1 10 C-0.67 6.7 -0.34 3.4 0 0 Z " fill="#1C66DD" transform="translate(580,180)"/>
<path d="M0 0 C5.75 0.875 5.75 0.875 8 2 C8 2.66 8 3.32 8 4 C4.31245243 3.50168276 2.39509338 2.89932357 0 0 Z " fill="#0D53B5" transform="translate(110,170)"/>
<path d="M0 0 C2.64 0 5.28 0 8 0 C7.67 0.99 7.34 1.98 7 3 C4.36 2.67 1.72 2.34 -1 2 C-0.67 1.34 -0.34 0.68 0 0 Z " fill="#2259B6" transform="translate(148,117)"/>
</svg>
